<?xml version="1.0" encoding="utf-8"?>
<!-- Generator: Adobe Illustrator 16.0.0, SVG Export Plug-In . SVG Version: 6.00 Build 0)  -->
<!DOCTYPE svg PUBLIC "-//W3C//DTD SVG 1.1//EN" "http://www.w3.org/Graphics/SVG/1.1/DTD/svg11.dtd">
<svg version="1.1" id="Layer_1" xmlns="http://www.w3.org/2000/svg" xmlns:xlink="http://www.w3.org/1999/xlink" x="0px" y="0px"
	 width="110.095px" height="99.303px" viewBox="0 0 110.095 99.303" enable-background="new 0 0 110.095 99.303"
	 xml:space="preserve">
<circle fill="#FABC3D" cx="67.985" cy="42.76" r="8.978"/>
<circle fill="#E04F5F" cx="39.04" cy="58.339" r="8.978"/>
<g>
	<path fill="#21B2D1" d="M44.264,60.951c0,0.721-0.585,1.306-1.306,1.306h-7.835c-0.722,0-1.306-0.584-1.306-1.306v-5.224
		c0-0.721,0.584-1.306,1.306-1.306h7.835c0.721,0,1.306,0.585,1.306,1.306V60.951z"/>
	<path fill="#40C9E7" d="M35.123,54.421c-0.722,0-1.306,0.585-1.306,1.306v5.224c0,0.423,0.202,0.798,0.515,1.037l7.566-7.566
		H35.123z"/>
	<path fill="#FFFFFF" d="M42.958,54.421h-7.835c-0.722,0-1.306,0.585-1.306,1.306v0.653h10.447v-0.653
		C44.264,55.006,43.679,54.421,42.958,54.421z"/>
	<circle fill="#FA5655" cx="35.285" cy="55.564" r="0.326"/>
	<circle fill="#F3B607" cx="36.591" cy="55.564" r="0.327"/>
	<circle fill="#4AC3AF" cx="37.897" cy="55.564" r="0.326"/>
	<g>
		<g>
			<path fill="#FFFFFF" d="M40.575,60.331c-0.108-0.145-0.08-0.349,0.065-0.457l0.958-0.719l-0.958-0.718
				c-0.145-0.108-0.173-0.312-0.065-0.457c0.108-0.144,0.312-0.173,0.457-0.065l1.306,0.979c0.082,0.062,0.13,0.159,0.13,0.261
				c0,0.103-0.048,0.2-0.13,0.261l-1.306,0.979C40.887,60.504,40.682,60.474,40.575,60.331z"/>
		</g>
		<g>
			<path fill="#FFFFFF" d="M37.048,60.396l-1.306-0.979c-0.083-0.062-0.131-0.158-0.131-0.261c0-0.102,0.048-0.199,0.131-0.261
				l1.306-0.979c0.145-0.108,0.349-0.079,0.458,0.065c0.108,0.145,0.079,0.349-0.065,0.457l-0.958,0.718l0.958,0.719
				c0.144,0.108,0.173,0.312,0.065,0.457C37.398,60.474,37.194,60.505,37.048,60.396z"/>
		</g>
		<g>
			<path fill="#FFFFFF" d="M38.404,60.427c-0.162-0.081-0.227-0.277-0.146-0.438l0.979-1.959c0.081-0.161,0.277-0.226,0.438-0.146
				s0.227,0.276,0.146,0.438l-0.979,1.958C38.762,60.44,38.567,60.508,38.404,60.427z"/>
		</g>
	</g>
</g>
<g>
	<circle fill="#FABC3D" cx="17.313" cy="36.324" r="8.978"/>
</g>
<g>
	<circle fill="#25B7D3" cx="62.414" cy="65.038" r="8.978"/>
</g>
<path fill="#25B7D3" d="M30.912,77.533c0,4.958-4.02,8.978-8.978,8.978c-4.958,0-8.978-4.019-8.978-8.978s4.02-8.979,8.978-8.979
	C26.892,68.555,30.912,72.575,30.912,77.533"/>
<g>
	<circle fill="#E04F5F" cx="89.62" cy="29.182" r="8.978"/>
</g>
<g>
	<g>
		<g>
			<polygon fill="#0484AB" points="19.598,37.792 18.945,37.466 18.945,38.283 19.119,38.446 			"/>
		</g>
	</g>
	<g>
		<path fill="#F7B4B4" d="M18.945,37.631l-0.833,0.652c-0.093,0.104-0.226,0.164-0.365,0.164h-0.433h-0.434
			c-0.14,0-0.273-0.06-0.366-0.164l-0.833-0.652v0.652l-0.213,0.107l1.846,2.505l1.845-2.505l-0.213-0.107V37.631z M17.313,39.589
			l-0.001-0.001C17.312,39.588,17.312,39.588,17.313,39.589C17.313,39.588,17.313,39.588,17.313,39.589L17.313,39.589z"/>
	</g>
	<g>
		<g>
			<path fill="#059BBF" d="M13.239,39.265c-0.219,0.096-0.396,0.269-0.497,0.487l-0.653,1.795h5.224l-1.959-3.101L13.239,39.265z"/>
		</g>
		<g>
			<path fill="#059BBF" d="M21.883,39.752c-0.101-0.218-0.277-0.392-0.497-0.487l-2.115-0.818l-1.958,3.101h5.223L21.883,39.752z"/>
		</g>
	</g>
	<g>
		<g>
			<polygon fill="#0484AB" points="15.027,37.792 15.68,37.466 15.68,38.283 15.514,38.459 			"/>
		</g>
	</g>
	<g>
		<path fill="#FBC8C8" d="M16.514,38.281l-0.833-0.652v0.653l-0.213,0.107l1.846,2.505v-1.305l-0.001-0.001c0,0,0.001,0,0.001,0
			v-1.143h-0.434C16.74,38.445,16.606,38.386,16.514,38.281z"/>
	</g>
	<g>
		<g>
			<polygon fill="#40C9E7" points="14.129,41.547 15.517,39.752 15.027,39.262 13.689,41.547 			"/>
		</g>
	</g>
	<g>
		<g>
			<polygon fill="#6FDAF1" points="17.313,40.895 15.027,37.792 14.375,38.609 17.313,41.547 			"/>
		</g>
	</g>
	<g>
		<g>
			<path fill="#FFFFFF" d="M16.497,41.547h-0.164l-0.163-1.225c0-0.135,0.11-0.245,0.245-0.245c0.136,0,0.245,0.11,0.245,0.245
				L16.497,41.547z"/>
		</g>
	</g>
	<g>
		<g>
			<polygon fill="#40C9E7" points="20.496,41.547 19.108,39.752 19.598,39.262 20.937,41.547 			"/>
		</g>
	</g>
	<g>
		<g>
			<polygon fill="#6FDAF1" points="17.313,40.895 19.598,37.792 20.251,38.609 17.313,41.547 			"/>
		</g>
	</g>
	<g>
		<g>
			<path fill="#FFFFFF" d="M18.129,41.547h0.163l0.164-1.225c0-0.135-0.11-0.245-0.245-0.245s-0.245,0.11-0.245,0.245L18.129,41.547
				z"/>
		</g>
	</g>
	<g>
		<path fill="#FBC8C8" d="M20.088,35.061c0-0.182-0.163-0.363-0.327-0.363s-0.164,0.181-0.164,0.181v-0.181
			c-0.002-1.469-0.167-2.449-2.285-2.449c-2.119,0-2.283,0.98-2.286,2.449v1.3l0.653,1.633l0.833,0.652
			c0.093,0.104,0.226,0.164,0.366,0.164h0.434h0.433c0.14,0,0.272-0.06,0.365-0.164l0.833-0.652l0.521-1.304
			C19.931,36.296,20.088,35.593,20.088,35.061z"/>
	</g>
	<g>
		<path fill="#E1F5FA" d="M15.027,34.698v0.181c0,0,0-0.181-0.163-0.181s-0.327,0.181-0.327,0.363c0,0.532,0.157,1.235,0.621,1.266
			l0.521,1.304l0.833,0.652c0.093,0.104,0.226,0.164,0.366,0.164h0.434V32.25C15.194,32.25,15.03,33.229,15.027,34.698z"/>
	</g>
	<g>
		<g>
			<path fill="#3E3E3F" d="M16.823,35.025c0-0.18-0.146-0.327-0.326-0.327c0,0,0,0-0.001,0c0,0.004,0.001,0.007,0.001,0.01
				c0,0.18-0.146,0.326-0.326,0.326c0.005,0.176,0.149,0.316,0.326,0.316C16.677,35.351,16.823,35.205,16.823,35.025z"/>
		</g>
	</g>
	<g>
		<g>
			<path fill="#3E3E3F" d="M18.454,35.025c0-0.18-0.146-0.327-0.326-0.327c0,0,0,0-0.001,0c0,0.004,0.001,0.007,0.001,0.01
				c0,0.18-0.146,0.326-0.326,0.326c0.006,0.176,0.149,0.316,0.326,0.316C18.308,35.351,18.454,35.205,18.454,35.025z"/>
		</g>
	</g>
	<g>
		<g>
			<path fill="#53BAD4" d="M16.497,36.657h1.632c0,0,0,0.49-0.816,0.49C16.497,37.146,16.497,36.657,16.497,36.657z"/>
		</g>
	</g>
	<g>
		<path fill="#84462D" d="M18.297,31.596c-0.326,0.327-0.489,0.49-0.979-0.326c-0.49,0.816-0.653,0.653-0.98,0.326
			c-1.469,1.143-1.306,1.318-1.306,3.428l0.327,0.001c0-1.244,0.163-1.469,0.734-1.959c0.186,0.248,0.605,0.476,1.225,0.49
			c0.618-0.015,1.039-0.243,1.224-0.49c0.571,0.49,0.734,0.715,0.734,1.959l0.327-0.001C19.604,32.915,19.767,32.739,18.297,31.596z
			"/>
	</g>
	<g>
		<g>
			<path fill="#9C6144" d="M17.318,31.27c-0.49,0.816-0.653,0.653-0.98,0.326c-1.469,1.143-1.306,1.318-1.306,3.428l0.327,0.001
				c0-1.244,0.163-1.469,0.734-1.959c0.186,0.248,0.605,0.476,1.225,0.49V31.27z"/>
		</g>
	</g>
</g>
<g>
	<g>
		<path fill="#3E3E3F" d="M92.948,32c-0.378-0.504-0.784-1.411-0.809-2.994c-0.084,0.082-0.188,0.142-0.315,0.169
			c-0.196,0.734-0.525,1.243-0.898,1.601v0.743L92.948,32z"/>
	</g>
	<g>
		<path fill="#BF8662" d="M94.258,32.881c-0.145-0.377-0.457-0.666-0.844-0.782l-2.651-0.632l-1.143,0.164l-1.143-0.164
			l-2.651,0.632c-0.387,0.116-0.699,0.405-0.844,0.782l-0.586,1.524h5.224h5.224L94.258,32.881z"/>
	</g>
	<g>
		<g>
			<path fill="#CC9978" d="M89.621,31.63l-1.143-0.164l-2.651,0.632c-0.388,0.116-0.699,0.405-0.844,0.782l-0.586,1.524h5.224V31.63
				z"/>
		</g>
	</g>
	<g>
		<path fill="#FACB1B" d="M92.382,31.806l-0.653-0.163v0.86c0,0.448-0.253,0.857-0.654,1.058l-1.448,0.724l-1.448-0.724
			c-0.401-0.201-0.654-0.61-0.654-1.058v-0.86l-0.653,0.163l-0.816,2.612h1.469h1.932h0.163h2.108h1.469L92.382,31.806z"/>
	</g>
	<g>
		<path fill="#AF7653" d="M89.729,31.479c-0.58-0.193-1.272-0.573-1.741-1.417v1.906c0,0,0.326,0.653,1.632,0.653
			c1.306,0,1.632-0.653,1.632-0.653v-1.567C90.802,31.013,90.225,31.314,89.729,31.479z"/>
	</g>
	<g>
		<path fill="#BF8662" d="M92.287,27.616c-1.129,0-1.956-0.882-1.949-2.429c-0.118,1.308-0.875,2.436-3.247,2.436
			c0,0,0-0.001,0-0.002c-0.093,0.068-0.163,0.186-0.163,0.303c0,0.514,0.146,1.188,0.71,1.262c0.4,1.482,1.341,2.043,2.092,2.293
			c0.752-0.251,1.697-0.813,2.095-2.304c0.517-0.112,0.653-0.755,0.653-1.251C92.478,27.755,92.292,27.558,92.287,27.616z"/>
	</g>
	<g>
		<path fill="#3E3E3F" d="M90.355,24.787c-2.612-0.653-3.313,0.562-3.265,2.836c2.373,0,3.129-1.128,3.247-2.436
			c-0.007,1.547,0.82,2.429,1.949,2.429C92.423,25.889,92.246,24.46,90.355,24.787z"/>
	</g>
	<g>
		<g>
			<path fill="#3E3E3F" d="M90.844,27.889c0-0.181-0.146-0.327-0.327-0.327c0,0,0,0-0.001,0c0,0.004,0.001,0.007,0.001,0.011
				c0,0.18-0.145,0.326-0.325,0.326c0.005,0.176,0.148,0.316,0.325,0.316C90.698,28.215,90.844,28.069,90.844,27.889z"/>
		</g>
	</g>
	<g>
		<g>
			<path fill="#FFFFFF" d="M91.958,29.194l0.249,0.602c0.042,0.101,0.019,0.217-0.059,0.294c-0.105,0.106-0.275,0.106-0.381,0
				c-0.077-0.077-0.1-0.193-0.058-0.294L91.958,29.194z"/>
		</g>
	</g>
	<g>
		<path fill="#3E3E3F" d="M89.419,31.36c-0.683-0.298-1.436-0.89-1.782-2.174c-0.264-0.035-0.436-0.202-0.544-0.42H87.09
			c0.082,3.213,0.985,2.802,1.184,4.091c0.102,0.663-0.367,1.341-1.02,0.906c0.227,0.905,2.55,0.625,2.55-1.335
			C89.804,32.014,89.647,31.667,89.419,31.36z"/>
	</g>
	<g>
		<g>
			<path fill="#FFFFFF" d="M87.224,29.194l0.25,0.602c0.042,0.101,0.019,0.217-0.059,0.294c-0.105,0.106-0.276,0.106-0.382,0
				c-0.077-0.077-0.1-0.193-0.058-0.294L87.224,29.194z"/>
		</g>
	</g>
	<g>
		<path fill="#CC9978" d="M87.09,27.623c0,0,0-0.001,0-0.002c-0.093,0.068-0.163,0.186-0.163,0.303c0,0.514,0.146,1.188,0.71,1.262
			c0.4,1.482,1.341,2.043,2.092,2.293v-4.754C89.243,27.268,88.421,27.623,87.09,27.623z"/>
	</g>
	<g>
		<g>
			<path fill="#3E3E3F" d="M89.212,27.889c0-0.181-0.146-0.327-0.327-0.327h0c0,0.004,0,0.007,0,0.011
				c0,0.18-0.146,0.326-0.325,0.326c0.005,0.176,0.148,0.316,0.325,0.316C89.066,28.215,89.212,28.069,89.212,27.889z"/>
		</g>
	</g>
	<g>
		<g>
			<path fill="#84462D" d="M88.886,29.684h1.633c0,0,0,0.49-0.816,0.49S88.886,29.684,88.886,29.684z"/>
		</g>
	</g>
</g>
<g>
	<path fill="#FFFFFF" d="M26.571,81.232c-0.145-0.377-0.457-0.666-0.844-0.781l-2.651-0.633l-1.143,0.163l-1.143-0.163l-2.651,0.633
		c-0.387,0.116-0.699,0.404-0.844,0.781l-0.586,1.524h5.224h5.224L26.571,81.232z"/>
</g>
<g>
	<g>
		<path fill="#E2E4E5" d="M23.858,80.454l0.034-0.069v-0.077v-0.295l-0.326-0.078v0.373c0,0-0.327,0.653-1.633,0.653
			c-1.306,0-1.632-0.653-1.632-0.653v-0.373l-0.327,0.078v0.295v0.077l0.035,0.069c0.042,0.085,0.458,0.833,1.924,0.833
			C23.399,81.287,23.815,80.539,23.858,80.454z"/>
	</g>
</g>
<g>
	<path fill="#F7B4B4" d="M21.934,79.818c-0.536-0.179-1.168-0.518-1.632-1.235v1.725c0,0,0.326,0.653,1.632,0.653
		c1.306,0,1.633-0.653,1.633-0.653v-1.725C23.103,79.301,22.47,79.64,21.934,79.818z"/>
</g>
<g>
	<path fill="#FBC8C8" d="M20.302,78.583v1.725c0,0,0.326,0.653,1.632,0.653v-1.143C21.397,79.64,20.765,79.301,20.302,78.583z"/>
</g>
<g>
	<g>
		<path fill="#FA5655" d="M19.322,77.104c0.082,3.214,0.986,2.803,1.184,4.091c0.102,0.663-0.367,1.341-1.02,0.907
			c0.227,0.904,2.55,0.624,2.55-1.335c0-1.469-2.061-1.929-2.061-3.011c0-0.55,0-0.652,0-0.652H19.322z"/>
	</g>
</g>
<g>
	<path fill="#7D261E" d="M24.451,77.254c-0.102,0.135-0.239,0.235-0.424,0.267c-0.177,0.659-0.46,1.135-0.787,1.483v0.854
		l2.02,0.481C24.874,79.825,24.462,78.893,24.451,77.254z"/>
</g>
<g>
	<path fill="#FBC8C8" d="M24.512,75.938c0,0.01-0.001,0.019-0.002,0.029c-1.13,0-1.957-0.882-1.95-2.429
		c-0.118,1.308-0.875,2.436-3.247,2.436c0-0.003,0-0.006,0-0.009c-0.089,0.069-0.155,0.183-0.155,0.298
		c0,0.504,0.141,1.164,0.682,1.257c0.398,1.486,1.341,2.047,2.093,2.297c0.751-0.25,1.695-0.812,2.093-2.297
		c0.541-0.094,0.682-0.753,0.682-1.257C24.709,76.132,24.622,76.001,24.512,75.938z"/>
</g>
<g>
	<path fill="#E1F5FA" d="M19.314,75.975c0-0.003,0-0.006,0-0.009c-0.089,0.069-0.155,0.183-0.155,0.298
		c0,0.504,0.141,1.164,0.682,1.257c0.398,1.486,1.341,2.047,2.093,2.297v-4.721C21.445,75.628,20.627,75.975,19.314,75.975z"/>
</g>
<g>
	<path fill="#7D261E" d="M22.579,73.138c-2.612-0.653-3.313,0.562-3.265,2.836c2.372,0,3.128-1.128,3.247-2.436
		c-0.007,1.547,0.82,2.429,1.95,2.429C24.646,74.24,24.469,72.812,22.579,73.138z"/>
</g>
<g>
	<g>
		<path fill="#3E3E3F" d="M21.444,76.228c0-0.18-0.146-0.327-0.327-0.327c0,0-0.001,0-0.001,0c0,0.003,0.001,0.006,0.001,0.01
			c0,0.18-0.146,0.326-0.326,0.327c0.005,0.175,0.149,0.316,0.326,0.316C21.298,76.554,21.444,76.408,21.444,76.228z"/>
	</g>
</g>
<g>
	<g>
		<path fill="#3E3E3F" d="M23.076,76.228c0-0.18-0.146-0.327-0.327-0.327c0,0,0,0-0.001,0c0,0.003,0.001,0.006,0.001,0.01
			c0,0.18-0.146,0.326-0.326,0.327c0.005,0.175,0.148,0.316,0.326,0.316C22.929,76.554,23.076,76.408,23.076,76.228z"/>
	</g>
</g>
<g>
	<g>
		<path fill="#53BAD4" d="M21.118,78.023h1.632c0,0,0,0.49-0.816,0.49C21.118,78.513,21.118,78.023,21.118,78.023z"/>
	</g>
</g>
<g>
	<g>
		<g>
			<polygon fill="#F3B607" points="64.699,66.506 64.046,66.18 64.046,66.997 64.22,67.16 			"/>
		</g>
	</g>
	<g>
		<path fill="#AF7653" d="M64.046,66.345l-0.833,0.652c-0.093,0.104-0.226,0.164-0.366,0.164h-0.434H61.98
			c-0.14,0-0.273-0.06-0.366-0.164l-0.833-0.652v0.652l-0.213,0.107l1.845,2.505l1.846-2.505l-0.213-0.107V66.345z M62.414,68.303
			l-0.001-0.001C62.413,68.302,62.414,68.302,62.414,68.303c0-0.001,0.001-0.001,0.001-0.001L62.414,68.303z"/>
	</g>
	<g>
		<g>
			<path fill="#3E3E3F" d="M58.339,67.979c-0.219,0.096-0.396,0.269-0.497,0.487l-0.653,1.795h5.224l-1.959-3.101L58.339,67.979z"/>
		</g>
		<g>
			<path fill="#3E3E3F" d="M66.984,68.466c-0.1-0.218-0.277-0.392-0.497-0.487l-2.115-0.818l-1.959,3.101h5.224L66.984,68.466z"/>
		</g>
	</g>
	<g>
		<g>
			<polygon fill="#F3B607" points="60.128,66.506 60.781,66.18 60.781,66.997 60.615,67.173 			"/>
		</g>
	</g>
	<g>
		<path fill="#BF8662" d="M61.615,66.995l-0.833-0.652v0.653l-0.213,0.107l1.845,2.505v-1.305l-0.001-0.001c0.001,0,0.001,0,0.001,0
			v-1.143H61.98C61.841,67.159,61.708,67.1,61.615,66.995z"/>
	</g>
	<g>
		<g>
			<polygon fill="#FACB1B" points="59.23,70.261 60.618,68.466 60.128,67.976 58.79,70.261 			"/>
		</g>
	</g>
	<g>
		<g>
			<polygon fill="#FBE158" points="62.414,69.608 60.128,66.506 59.476,67.323 62.414,70.261 			"/>
		</g>
	</g>
	<g>
		<g>
			<path fill="#FFFFFF" d="M61.598,70.261h-0.164l-0.163-1.225c0-0.135,0.11-0.245,0.245-0.245c0.135,0,0.245,0.11,0.245,0.245
				L61.598,70.261z"/>
		</g>
	</g>
	<g>
		<g>
			<polygon fill="#FACB1B" points="65.597,70.261 64.209,68.466 64.699,67.976 66.038,70.261 			"/>
		</g>
	</g>
	<g>
		<g>
			<polygon fill="#FBE158" points="62.414,69.608 64.699,66.506 65.352,67.323 62.414,70.261 			"/>
		</g>
	</g>
	<g>
		<g>
			<path fill="#FFFFFF" d="M63.23,70.261h0.163l0.163-1.225c0-0.135-0.109-0.245-0.245-0.245s-0.245,0.11-0.245,0.245L63.23,70.261z
				"/>
		</g>
	</g>
	<g>
		<path fill="#BF8662" d="M64.862,63.412c-0.057,0-0.113,0-0.163,0v-0.006l-0.49,0.164c0-1.386-0.073-1.864-0.304-1.982
			c-0.021-0.006-0.042-0.013-0.062-0.021c-0.267-0.064-0.712,0.208-1.43,0.208c-0.718,0-1.163-0.272-1.43-0.208
			c-0.02,0.008-0.04,0.015-0.062,0.021c-0.231,0.118-0.304,0.596-0.304,1.982l-0.49-0.154v1.296l0.653,1.632l0.833,0.653
			c0.093,0.104,0.226,0.164,0.366,0.164h0.433h0.434c0.14,0,0.272-0.061,0.366-0.164l0.833-0.653l0.521-1.303
			c0.464-0.031,0.622-0.735,0.622-1.267C65.189,63.592,65.026,63.412,64.862,63.412z"/>
	</g>
	<g>
		<path fill="#CC9978" d="M60.983,61.566c-0.02,0.008-0.04,0.015-0.062,0.021c-0.231,0.118-0.304,0.596-0.304,1.982l-0.503-0.158
			c-0.047,0-0.098,0-0.149,0c-0.164,0-0.327,0.181-0.327,0.362c0,0.532,0.157,1.236,0.622,1.267l0.521,1.303l0.833,0.653
			c0.093,0.104,0.226,0.164,0.366,0.164h0.433v-5.386C61.696,61.774,61.251,61.501,60.983,61.566z"/>
	</g>
	<g>
		<path fill="#3E3E3F" d="M64.699,61.774c-0.059,0-0.114,0.012-0.167,0.031c-0.043-0.114-0.099-0.22-0.161-0.32
			c0.1-0.089,0.165-0.218,0.165-0.363c0-0.271-0.219-0.49-0.49-0.49c-0.173,0-0.324,0.09-0.411,0.226
			c-0.208-0.093-0.453-0.157-0.735-0.192c0.001-0.011,0.003-0.021,0.003-0.033c0-0.271-0.219-0.49-0.49-0.49
			c-0.27,0-0.489,0.219-0.489,0.49c0,0.008,0.002,0.017,0.002,0.026c-0.286,0.031-0.537,0.09-0.749,0.178
			c-0.089-0.124-0.233-0.204-0.396-0.204c-0.271,0-0.49,0.219-0.49,0.49c0,0.127,0.05,0.241,0.128,0.328
			c-0.069,0.105-0.129,0.218-0.176,0.34c-0.037-0.009-0.075-0.015-0.115-0.015c-0.271,0-0.49,0.219-0.49,0.49
			c0,0.251,0.19,0.456,0.435,0.484c-0.005,0.209,0.003,0.429,0.026,0.658l0.519,0.164c0-1.386,0.073-1.864,0.304-1.982
			c0.021-0.006,0.042-0.013,0.062-0.021c0.268-0.064,0.712,0.208,1.43,0.208c0.718,0,1.163-0.272,1.43-0.208
			c0.02,0.008,0.041,0.015,0.062,0.021c0.231,0.118,0.304,0.596,0.304,1.982l0.49-0.164c0.023-0.228,0.002-0.445-0.003-0.653
			c0.001,0,0.002,0,0.003,0c0.271,0,0.49-0.219,0.49-0.489C65.189,61.993,64.97,61.774,64.699,61.774z"/>
	</g>
	<g>
		<g>
			<path fill="#3E3E3F" d="M61.923,63.737c0-0.18-0.146-0.326-0.326-0.326c0,0-0.001,0-0.001,0c0,0.003,0.001,0.007,0.001,0.01
				c0,0.18-0.146,0.326-0.326,0.326c0.005,0.176,0.149,0.316,0.326,0.316C61.777,64.063,61.923,63.917,61.923,63.737z"/>
		</g>
	</g>
	<g>
		<g>
			<path fill="#3E3E3F" d="M63.554,63.737c0-0.18-0.146-0.326-0.326-0.326c0,0-0.001,0-0.001,0c0,0.003,0.001,0.007,0.001,0.01
				c0,0.18-0.146,0.326-0.326,0.326c0.005,0.176,0.148,0.316,0.326,0.316C63.408,64.063,63.554,63.917,63.554,63.737z"/>
		</g>
	</g>
	<g>
		<g>
			<path fill="#84462D" d="M61.597,65.369h1.632c0,0,0,0.49-0.816,0.49S61.597,65.369,61.597,65.369z"/>
		</g>
	</g>
</g>
<g>
	<path fill="#FA5655" d="M21.934,73.009c-2.084-0.302-2.664,0.891-2.62,2.965c1.313,0,2.131-0.346,2.62-0.877V73.009z"/>
</g>
<path fill="#FFFFFF" d="M80.179,19.743c-0.429-0.82-1.114-1.125-1.628-1.593c-1.155-1.051-2.549-1.65-4.069-1.972
	c-0.372-0.079-0.75-0.151-1.106-0.28c-1.424-0.513-2.88-0.614-4.371-0.422c-0.308,0.039-0.622,0.021-0.986-0.17
	c0.183-0.097,0.359-0.265,0.548-0.281c1.089-0.087,2.183-0.263,3.271,0.014c1.429,0.363,2.863,0.71,4.284,1.106
	c0.929,0.259,1.74,0.757,2.476,1.386c0.281,0.24,0.614,0.419,1.077,0.73c-0.068-1.029-0.673-1.754-0.706-2.662
	c1.095,0.759,2.042,1.942,2.421,3.097c0.231,0.705,0.669,1.396,0.3,2.287c-1.324-0.211-2.673-0.348-3.866-1.086
	c-0.115-0.071-0.2-0.195-0.288-0.303c-0.021-0.025,0-0.083,0.005-0.209C78.388,19.194,79.162,19.689,80.179,19.743z"/>
<path fill="#FFFFFF" d="M99.464,53.941c0.554-0.869,0.468-1.7,0.635-2.457c0.375-1.698,0.18-3.377-0.353-5.024
	c-0.13-0.402-0.271-0.808-0.344-1.223c-0.293-1.66-1.005-3.123-2.017-4.456c-0.208-0.275-0.366-0.589-0.383-1.047
	c0.195,0.122,0.456,0.199,0.575,0.373c0.688,1.004,1.465,1.963,1.802,3.167c0.442,1.582,0.903,3.159,1.308,4.75
	c0.266,1.041,0.235,2.101,0.036,3.16c-0.076,0.405-0.064,0.826-0.107,1.445c0.955-0.637,1.32-1.624,2.179-2.159
	c-0.125,1.478-0.742,3.049-1.647,4.057c-0.552,0.614-0.976,1.42-2.042,1.558c-0.531-1.396-1.146-2.774-1.096-4.336
	c0.005-0.15,0.078-0.301,0.133-0.446c0.013-0.033,0.081-0.045,0.206-0.111C99.001,51.907,98.952,52.929,99.464,53.941z"/>
<path fill="#FFFFFF" d="M75.799,88.006c1.183,0.255,2.062-0.177,2.963-0.302c2.022-0.28,3.791-1.178,5.387-2.436
	c0.39-0.308,0.779-0.627,1.206-0.877c1.708-1,3.028-2.379,4.083-4.037c0.218-0.342,0.499-0.643,0.997-0.848
	c-0.055,0.265-0.034,0.583-0.177,0.785c-0.824,1.167-1.563,2.414-2.751,3.274c-1.561,1.131-3.11,2.282-4.696,3.376
	c-1.038,0.716-2.217,1.115-3.464,1.328c-0.477,0.082-0.936,0.265-1.634,0.471c1.091,0.792,2.325,0.791,3.265,1.519
	c-1.678,0.465-3.66,0.426-5.137-0.16c-0.901-0.357-1.961-0.496-2.548-1.613c1.32-1.153,2.587-2.393,4.327-2.975
	c0.167-0.056,0.363-0.037,0.545-0.035c0.042,0,0.083,0.069,0.206,0.181C77.851,86.667,76.706,87.029,75.799,88.006z"/>
<path fill="#FFFFFF" d="M30.39,89.44c0.746,0.953,1.699,1.183,2.471,1.663c1.733,1.079,3.667,1.52,5.698,1.574
	c0.497,0.013,1,0.017,1.489,0.098c1.952,0.324,3.849,0.108,5.72-0.491c0.386-0.124,0.795-0.175,1.308-0.015
	c-0.211,0.168-0.398,0.426-0.638,0.491c-1.38,0.369-2.745,0.854-4.209,0.756c-1.924-0.129-3.85-0.236-5.77-0.409
	c-1.255-0.113-2.417-0.562-3.512-1.196c-0.418-0.242-0.889-0.395-1.558-0.684c0.332,1.307,1.281,2.095,1.538,3.255
	c-1.587-0.716-3.085-2.013-3.846-3.409c-0.464-0.852-1.191-1.636-0.927-2.87c1.752-0.042,3.52-0.184,5.229,0.482
	c0.165,0.064,0.303,0.204,0.442,0.321c0.032,0.027,0.02,0.107,0.043,0.271C32.824,89.723,31.711,89.269,30.39,89.44z"/>
<path fill="#FFFFFF" d="M14.157,50.987c-0.578,1.063-0.411,2.029-0.545,2.928c-0.302,2.019,0.062,3.969,0.818,5.855
	c0.185,0.461,0.382,0.924,0.501,1.404c0.478,1.92,1.429,3.576,2.722,5.056c0.267,0.305,0.476,0.66,0.533,1.195
	c-0.238-0.127-0.549-0.196-0.703-0.391c-0.887-1.12-1.875-2.18-2.366-3.563c-0.646-1.817-1.312-3.627-1.916-5.458
	c-0.395-1.197-0.444-2.441-0.297-3.698c0.056-0.48,0.009-0.973,0.009-1.701c-1.067,0.823-1.415,2.008-2.377,2.704
	c0.027-1.741,0.623-3.631,1.602-4.884c0.597-0.764,1.028-1.742,2.267-1.99c0.734,1.592,1.566,3.157,1.633,4.99
	c0.007,0.177-0.067,0.358-0.12,0.533c-0.012,0.04-0.09,0.06-0.231,0.146C14.863,53.333,14.839,52.132,14.157,50.987z"/>
<path fill="#FFFFFF" d="M35.708,19.105c-0.894-0.287-1.604-0.021-2.309,0.007c-1.582,0.062-3.014,0.62-4.341,1.469
	c-0.325,0.208-0.649,0.424-0.997,0.584c-1.394,0.641-2.517,1.604-3.458,2.803c-0.194,0.247-0.434,0.458-0.833,0.578
	c0.062-0.2,0.07-0.446,0.196-0.592c0.725-0.837,1.39-1.742,2.372-2.316c1.291-0.754,2.573-1.523,3.88-2.247
	c0.855-0.473,1.795-0.69,2.773-0.76c0.374-0.026,0.742-0.134,1.296-0.238c-0.781-0.694-1.733-0.788-2.402-1.42
	c1.33-0.23,2.855-0.05,3.95,0.515c0.668,0.344,1.476,0.532,1.842,1.438c-1.106,0.789-2.178,1.648-3.564,1.964
	c-0.133,0.03-0.283,0-0.423-0.014c-0.032-0.003-0.059-0.061-0.145-0.155C34.023,19.982,34.935,19.79,35.708,19.105z"/>
<g>
	<path fill="#3E3E3F" d="M69.573,38.498c-0.361-0.279-0.848-0.444-1.483-0.444c-0.635,0-1.122,0.165-1.482,0.444l-0.997-0.775
		l0.166,2.81c0,1.37,1.036,2.479,2.313,2.479c1.278,0,2.314-1.109,2.314-2.479l0.166-2.81L69.573,38.498z"/>
	<path fill="#5B5C5F" d="M66.607,38.498l-0.997-0.775l0.166,2.81c0,1.37,1.036,2.479,2.313,2.479v-4.958
		C67.455,38.054,66.968,38.219,66.607,38.498z"/>
	<path fill="#3E3E3F" d="M68.09,42.02c-0.661,0-4.627,0.331-4.627,5.62c0,0,1.653,0.661,4.627,0.661
		c2.975,0,4.628-0.661,4.628-0.661C72.718,42.351,68.751,42.02,68.09,42.02z"/>
	<path fill="#CFD3D4" d="M68.09,48.301c1.132,0,2.072-0.096,2.803-0.214c-0.149-4.292-2.803-5.075-2.803-5.075
		s-2.653,0.782-2.802,5.075C66.019,48.205,66.958,48.301,68.09,48.301z"/>
	<path fill="#3E3E3F" d="M69.412,45.161l-0.661,0.496v-0.661l-0.661,0.496l-0.661-0.496v0.661l-0.661-0.496
		c-0.498,0.423-0.842,0.934-0.826,1.652c0.992-0.11,1.652,0,2.148,0.827c0.496-0.827,1.157-0.937,2.149-0.827
		C70.255,46.095,69.91,45.583,69.412,45.161z"/>
	<path fill="#FBC8C8" d="M68.09,43.012c0.611,0,1.165-0.255,1.578-0.669c0.753-2.238-0.97-0.983-1.578-0.983
		c-0.607,0-2.332-1.254-1.578,0.983C66.926,42.756,67.479,43.012,68.09,43.012z"/>
	<path fill="#CFD3D4" d="M69.333,40.482c-0.412,0.222-0.946,0.029-0.946,0.029s0.133-0.552,0.545-0.774
		c0.411-0.222,0.945-0.029,0.945-0.029S69.745,40.26,69.333,40.482z"/>
	<path fill="#CFD3D4" d="M66.847,40.482c0.412,0.222,0.946,0.029,0.946,0.029s-0.133-0.552-0.545-0.774
		c-0.411-0.222-0.945-0.029-0.945-0.029S66.435,40.26,66.847,40.482z"/>
	<path fill="#FBD7D7" d="M66.512,42.343c0.414,0.414,0.967,0.669,1.578,0.669v-1.652C67.482,41.359,65.758,40.105,66.512,42.343z"/>
	<path fill="#F79392" d="M67.264,41.855h1.653c0,0,0,0.496-0.827,0.496C67.264,42.351,67.264,41.855,67.264,41.855z"/>
	<path fill="#5B5C5F" d="M67.429,44.995v0.661l-0.661-0.496c-0.498,0.423-0.842,0.934-0.826,1.652c0.992-0.11,1.652,0,2.148,0.827
		v-2.148L67.429,44.995z"/>
</g>
<g>
	<circle fill="#32BEA6" cx="51.734" cy="16" r="9.75"/>
</g>
<g>
	<circle fill="#32BEA6" cx="93.339" cy="68.144" r="9.223"/>
</g>
<g>
	<g>
		<g>
			<path fill="#3E3E3F" d="M98.706,73.525l-0.671-1.844c-0.104-0.224-0.284-0.402-0.51-0.5l-2.173-0.841l-2.012,3.186H98.706z"/>
		</g>
	</g>
	<g>
		<path fill="#AF7653" d="M95.017,69.668L95.017,69.668l-0.856,0.669c-0.095,0.107-0.232,0.168-0.376,0.168h-0.445h-0.444
			c-0.144,0-0.281-0.061-0.376-0.168l-0.856-0.67v0.504l-0.335,0.168l2.012,3.186l1.651-2.614
			C95.016,70.34,95.017,69.882,95.017,69.668z M93.339,71.513l-0.001-0.001C93.338,71.512,93.339,71.512,93.339,71.513
			c0-0.001,0.001-0.001,0.001-0.001L93.339,71.513z"/>
	</g>
	<g>
		<g>
			<path fill="#FFFFFF" d="M95.017,69.668c0,0.503,0,2.347-0.335,3.856c2.18,0,2.348,0,2.348,0l-0.503-3.186L95.017,69.668z"/>
		</g>
	</g>
	<g>
		<g>
			<polygon fill="#E2E4E5" points="95.478,73.524 95.813,70.506 95.98,73.524 			"/>
		</g>
	</g>
	<g>
		<g>
			<path fill="#3E3E3F" d="M87.973,73.525l0.671-1.844c0.104-0.224,0.284-0.402,0.51-0.5l2.173-0.841l2.012,3.186H87.973z"/>
		</g>
	</g>
	<g>
		<path fill="#BF8662" d="M93.339,70.505h-0.444c-0.144,0-0.281-0.061-0.376-0.168l-0.856-0.67v0.001c0,0.214,0,0.672,0.026,1.243
			l1.651,2.614v-2.012l-0.001-0.001c0,0,0.001,0,0.001,0V70.505z"/>
	</g>
	<g>
		<g>
			<path fill="#FFFFFF" d="M91.662,69.668c0,0.503,0,2.347,0.336,3.856c-2.18,0-2.348,0-2.348,0l0.502-3.186L91.662,69.668z"/>
		</g>
	</g>
	<g>
		<g>
			<polygon fill="#E2E4E5" points="91.201,73.524 90.866,70.506 90.698,73.524 			"/>
		</g>
	</g>
	<g>
		<path fill="#BF8662" d="M95.855,66.649c-0.026,0-0.046,0.005-0.065,0.012l-0.27,0.812h-0.168v-1.342
			c-0.421,0-0.79-0.261-0.935-0.63c-0.389,0.207-0.824,0.592-1.077,0.279c-0.252,0.312-0.688-0.073-1.077-0.279
			c-0.146,0.369-0.505,0.63-0.925,0.63l-0.01,1.342h-0.168l-0.167-0.503v1.02l0.67,1.677l0.856,0.67
			c0.095,0.107,0.232,0.168,0.376,0.168h0.444h0.445c0.144,0,0.281-0.061,0.376-0.168l0.856-0.67l0.537-1.344
			c0.476-0.034,0.637-0.755,0.637-1.301C96.191,66.835,96.022,66.649,95.855,66.649z"/>
	</g>
	<g>
		<path fill="#CC9978" d="M92.263,65.502c-0.146,0.369-0.515,0.63-0.936,0.63v1.342h-0.168l-0.271-0.812
			c-0.019-0.007-0.039-0.012-0.065-0.012c-0.167,0-0.335,0.186-0.335,0.372c0,0.546,0.161,1.267,0.637,1.301l0.537,1.344l0.856,0.67
			c0.095,0.107,0.232,0.168,0.376,0.168h0.444v-4.724C93.087,66.093,92.651,65.708,92.263,65.502z"/>
	</g>
	<g>
		<g>
			<path fill="#84462D" d="M92.501,68.661h1.676c0,0,0,0.503-0.838,0.503C92.501,69.164,92.501,68.661,92.501,68.661z"/>
		</g>
	</g>
	<g>
		<g>
			<path fill="#3E3E3F" d="M92.835,66.991c0-0.186-0.15-0.335-0.335-0.335c0,0,0,0-0.001,0c0,0.003,0.001,0.006,0.001,0.01
				c0,0.185-0.149,0.334-0.334,0.335c0.005,0.18,0.152,0.325,0.334,0.325C92.685,67.326,92.835,67.176,92.835,66.991z"/>
		</g>
	</g>
	<g>
		<g>
			<path fill="#3E3E3F" d="M94.511,66.991c0-0.186-0.151-0.335-0.335-0.335c0,0,0,0-0.001,0c0,0.003,0.001,0.006,0.001,0.01
				c0,0.185-0.15,0.334-0.334,0.335c0.005,0.18,0.152,0.325,0.334,0.325C94.36,67.326,94.511,67.176,94.511,66.991z"/>
		</g>
	</g>
	<g>
		<g>
			<path fill="#3E3E3F" d="M96.209,65.625c0.343-0.606-0.03-1.372-0.721-1.474c-0.104-0.696-0.876-1.067-1.481-0.717
				c-0.153-0.202-0.394-0.335-0.668-0.335c-0.273,0-0.515,0.133-0.667,0.335c-0.606-0.35-1.378,0.021-1.481,0.717
				c-0.692,0.102-1.063,0.869-0.721,1.474c-0.091,0.107-0.148,0.257-0.148,0.423c0,0.333,0.24,0.638,0.557,0.578l0.282,0.848h0.168
				v-1.342c0.421,0,0.789-0.261,0.936-0.63c0.388,0.207,0.824,0.591,1.077,0.279c0.253,0.312,0.688-0.073,1.077-0.279
				c0.146,0.369,0.514,0.63,0.935,0.63v1.342h0.168l0.282-0.848c0.313,0.059,0.557-0.24,0.557-0.578
				C96.358,65.882,96.3,65.732,96.209,65.625z"/>
		</g>
	</g>
	<g>
		<g>
			<rect x="90.321" y="65.461" fill="#FA5655" width="6.037" height="1.006"/>
		</g>
	</g>
	<g>
		<g>
			<rect x="93.339" y="65.461" fill="#7D261E" width="3.019" height="1.006"/>
		</g>
	</g>
</g>
<g>
	<g>
		<g>
			<path fill="#FBE158" d="M56.698,19.723c-0.109-0.236-0.301-0.424-0.54-0.529l-2.12-0.712h-2.305H49.43l-2.12,0.712
				c-0.238,0.104-0.43,0.292-0.54,0.529l-0.709,1.95h5.673h5.673L56.698,19.723z"/>
		</g>
	</g>
	<g>
		<g>
			<path fill="#7D261E" d="M51.734,20.261c0.684,0,2.305-0.177,2.305-1.241c0-0.12,0-0.317,0-0.544h-0.532v0.544
				c0,0-0.354,0.709-1.773,0.709s-1.773-0.709-1.773-0.709v-0.544H49.43c0,0.228,0,0.425,0,0.544
				C49.43,20.084,51.051,20.261,51.734,20.261z"/>
		</g>
	</g>
	<g>
		<g>
			<path fill="#F3B607" d="M47.816,19.024l-0.506,0.169c-0.238,0.104-0.43,0.292-0.54,0.529l-0.709,1.95h2.112L47.816,19.024z"/>
		</g>
	</g>
	<g>
		<g>
			<path fill="#F3B607" d="M55.653,19.024l0.506,0.169c0.238,0.104,0.43,0.292,0.54,0.529l0.709,1.95h-2.112L55.653,19.024z"/>
		</g>
	</g>
	<g>
		<path fill="#F4D0A1" d="M52.205,18.305h-0.471h-0.471c-0.152,0-0.296-0.065-0.397-0.178l-0.905-0.708v1.602
			c0,0,0.354,0.709,1.773,0.709s1.773-0.709,1.773-0.709v-1.602l-0.905,0.708C52.501,18.24,52.357,18.305,52.205,18.305z"/>
	</g>
	<g>
		<path fill="#F8E1C2" d="M50.867,18.126l-0.905-0.708v1.602c0,0,0.354,0.709,1.773,0.709v-1.424h-0.471
			C51.112,18.305,50.967,18.24,50.867,18.126z"/>
	</g>
	<g>
		<path fill="#F8E1C2" d="M54.556,14.289c-0.034,0.312-0.145,0.832-0.517,0.832c0-0.532,0-1.418,0-1.418s-0.177,0.709-0.886,0.709
			c0-0.709,0-1.95,0-1.95s-0.355,1.95-1.773,1.95c0-0.354,0-1.241,0-1.241s-0.532,1.241-1.241,1.241c0-0.531,0-1.063,0-1.063
			l-0.709,0.887v0.886c0,0-0.08-0.054-0.177-0.16v0.685l0.709,1.773l0.905,0.708c0.101,0.113,0.245,0.178,0.397,0.178h0.471h0.471
			c0.152,0,0.296-0.065,0.397-0.178l0.905-0.708l0.566-1.416c0.504-0.033,0.675-0.797,0.675-1.375
			C54.748,14.493,54.665,14.36,54.556,14.289z"/>
	</g>
	<g>
		<path fill="#FCF1E2" d="M51.38,14.411c0-0.354,0-1.241,0-1.241s-0.532,1.241-1.241,1.241c0-0.531,0-1.063,0-1.063l-0.709,0.887
			v0.886c0,0-0.419-0.281-0.513-0.841c-0.111,0.071-0.196,0.206-0.196,0.342c0,0.577,0.17,1.339,0.672,1.375l0.568,1.422
			l0.905,0.708c0.101,0.113,0.245,0.178,0.397,0.178h0.471v-3.938C51.625,14.395,51.506,14.411,51.38,14.411z"/>
	</g>
	<g>
		<g>
			<path fill="#53BAD4" d="M50.848,16.36h1.772c0,0,0,0.532-0.886,0.532S50.848,16.36,50.848,16.36z"/>
		</g>
	</g>
	<g>
		<g>
			<path fill="#3E3E3F" d="M54.571,14.056c0-1.762-1.074-3.191-2.836-3.191s-2.836,1.429-2.836,3.191
				c0,0.709,0.532,1.064,0.532,1.064v-0.886l0.709-0.887c0,0,0,0.532,0,1.063c0.709,0,1.241-1.241,1.241-1.241s0,0.886,0,1.241
				c1.418,0,1.773-1.95,1.773-1.95s0,1.241,0,1.95c0.709,0,0.886-0.709,0.886-0.709s0,0.887,0,1.418
				C54.571,15.12,54.571,14.056,54.571,14.056z"/>
		</g>
	</g>
	<g>
		<g>
			<path fill="#3E3E3F" d="M52.799,14.816c0.211,0,0.398,0.047,0.528,0.12c0.013-0.101-0.03-0.205-0.132-0.282
				c-0.183-0.138-0.479-0.138-0.662,0c-0.082,0.062-0.125,0.142-0.133,0.224C52.514,14.839,52.651,14.816,52.799,14.816z"/>
		</g>
	</g>
	<g>
		<g>
			<path fill="#3E3E3F" d="M50.671,14.816c-0.211,0-0.398,0.047-0.529,0.12c-0.012-0.101,0.031-0.205,0.133-0.282
				c0.183-0.138,0.479-0.138,0.662,0c0.083,0.062,0.126,0.142,0.134,0.224C50.957,14.839,50.819,14.816,50.671,14.816z"/>
		</g>
	</g>
</g>
<g>
	<circle fill="#FABC3D" cx="60.819" cy="88.885" r="9.25"/>
</g>
<g>
	<g>
		<path fill="#84462D" d="M63.678,89.389c0-1.346,0-2.69,0-2.69c0-1.579-1.28-2.859-2.859-2.859s-2.859,1.28-2.859,2.859
			c0,0,0,1.345,0,2.69c0,1.682-1.514,1.346-1.514,1.346s0.168,1.346,2.355,1.346c1.711,0,1.979,0,2.015,0c0.001,0,0.002,0,0.003,0
			c0.026,0,0.264,0,2.018,0c2.187,0,2.355-1.346,2.355-1.346S63.678,91.071,63.678,89.389z"/>
	</g>
	<g>
		<path fill="#9C6144" d="M57.96,86.699c0,0,0,1.345,0,2.69c0,1.682-1.514,1.346-1.514,1.346s0.168,1.346,2.355,1.346
			c1.711,0,1.979,0,2.015,0c0.001,0,0.002,0,0.003,0v-8.241C59.24,83.839,57.96,85.12,57.96,86.699z"/>
	</g>
	<g>
		<path fill="#40C9E7" d="M65.597,92.696c-0.149-0.389-0.471-0.686-0.869-0.806l-2.227-0.483h-1.682h-1.682l-2.227,0.483
			c-0.398,0.12-0.72,0.417-0.869,0.806l-0.604,1.57h5.382h5.382L65.597,92.696z"/>
	</g>
	<g>
		<g>
			<g>
				<path fill="#FFFFFF" d="M58.633,91.996c0,0.317,0.251,0.573,0.564,0.586c-0.037,0.077-0.06,0.163-0.06,0.254
					c0,0.317,0.251,0.573,0.564,0.586c-0.038,0.077-0.06,0.163-0.06,0.254c0,0.325,0.264,0.589,0.589,0.589
					c0.082,0,0.159-0.017,0.23-0.047l-1.32-2.804C58.854,91.455,58.633,91.699,58.633,91.996z"/>
			</g>
		</g>
	</g>
	<g>
		<g>
			<g>
				<path fill="#FFFFFF" d="M63.005,91.996c0,0.317-0.251,0.573-0.564,0.586c0.037,0.077,0.06,0.163,0.06,0.254
					c0,0.317-0.251,0.573-0.564,0.586c0.038,0.077,0.06,0.163,0.06,0.254c0,0.325-0.264,0.589-0.589,0.589
					c-0.082,0-0.159-0.017-0.23-0.047l1.32-2.804C62.784,91.455,63.005,91.699,63.005,91.996z"/>
			</g>
		</g>
	</g>
	<g>
		<path fill="#F7B4B4" d="M60.819,91.239v3.027h0.336l1.345-2.859v-1.44C62.023,90.706,61.372,91.055,60.819,91.239z"/>
	</g>
	<g>
		<path fill="#FBC8C8" d="M59.138,89.967v1.44l1.345,2.859h0.336v-3.027C60.267,91.055,59.615,90.706,59.138,89.967z"/>
	</g>
	<g>
		<path fill="#FBC8C8" d="M63.342,87.203c-0.046,0-0.106,0-0.168,0c0-0.001,0-0.002,0-0.004c0-0.32-0.009-0.631-0.042-0.924
			c-0.107,0.342-0.422,0.592-0.799,0.592c-0.334,0-0.622-0.197-0.757-0.48c-0.135,0.283-0.422,0.48-0.757,0.48
			s-0.622-0.197-0.757-0.48c-0.135,0.283-0.422,0.48-0.757,0.48c-0.377,0-0.692-0.25-0.799-0.592
			c-0.033,0.293-0.041,0.604-0.042,0.924c0,0.001,0,0.002,0,0.004c-0.062,0-0.122,0-0.168,0c-0.168,0-0.336,0.187-0.336,0.374
			c0,0.52,0.145,1.199,0.703,1.295c0.41,1.531,1.382,2.109,2.156,2.367c0.774-0.258,1.746-0.836,2.156-2.367
			c0.558-0.096,0.703-0.775,0.703-1.295C63.678,87.39,63.51,87.203,63.342,87.203z"/>
	</g>
	<g>
		<g>
			<circle fill="#9CE5F4" cx="57.624" cy="92.585" r="0.336"/>
		</g>
	</g>
	<g>
		<g>
			<circle fill="#9CE5F4" cx="58.465" cy="93.594" r="0.336"/>
		</g>
	</g>
	<g>
		<g>
			<circle fill="#9CE5F4" cx="56.447" cy="93.594" r="0.336"/>
		</g>
	</g>
	<g>
		<g>
			<circle fill="#9CE5F4" cx="64.015" cy="92.585" r="0.336"/>
		</g>
	</g>
	<g>
		<g>
			<circle fill="#9CE5F4" cx="63.174" cy="93.594" r="0.336"/>
		</g>
	</g>
	<g>
		<g>
			<circle fill="#9CE5F4" cx="65.192" cy="93.594" r="0.336"/>
		</g>
	</g>
	<g>
		<path fill="#E1F5FA" d="M60.062,86.386c-0.135,0.283-0.422,0.48-0.757,0.48c-0.377,0-0.692-0.25-0.799-0.592
			c-0.033,0.293-0.041,0.604-0.042,0.924c0,0.001,0,0.002,0,0.004c-0.062,0-0.122,0-0.168,0c-0.168,0-0.336,0.187-0.336,0.374
			c0,0.52,0.145,1.199,0.703,1.295c0.41,1.531,1.382,2.109,2.156,2.367v-4.373C60.485,86.867,60.198,86.669,60.062,86.386z"/>
	</g>
	<g>
		<g>
			<path fill="#53BAD4" d="M59.978,89.389h1.683c0,0,0,0.505-0.841,0.505S59.978,89.389,59.978,89.389z"/>
		</g>
	</g>
	<g>
		<g>
			<path fill="#3E3E3F" d="M61.997,86.867c-0.441,0-0.883,0.294-0.883,0.294h-0.294h-0.294c0,0-0.441-0.294-0.883-0.294
				c-0.736,0-1.177,0.294-1.177,0.294v0.147h0.147c0,0.883,0.294,1.325,1.061,1.325c0.766,0,0.926-0.736,0.926-0.94
				c0-0.204,0.221-0.237,0.221-0.237s0.221,0.033,0.221,0.237c0,0.204,0.16,0.94,0.926,0.94c0.767,0,1.061-0.442,1.061-1.325h0.147
				v-0.147C63.174,87.161,62.732,86.867,61.997,86.867z"/>
		</g>
		<g>
			<g>
				<path fill="#9E9FA0" d="M59.642,87.161c-0.406,0-0.736,0.183-0.736,0.589c0,0.19,0.074,0.361,0.192,0.492l0.985-0.984
					C59.959,87.193,59.809,87.161,59.642,87.161z"/>
			</g>
		</g>
		<g>
			<g>
				<path fill="#9E9FA0" d="M61.997,87.161c-0.406,0-0.736,0.183-0.736,0.589c0,0.19,0.074,0.361,0.192,0.492l0.984-0.984
					C62.314,87.193,62.163,87.161,61.997,87.161z"/>
			</g>
		</g>
	</g>
</g>
<g>
	<path fill="#FFFFFF" d="M43.808,38.141c-0.062,0.256-0.108,0.45-0.163,0.678c-0.52,0.051-1.025,0.12-1.533,0.145
		s-1.018,0.005-1.566,0.005c-0.254,0.779-0.474,1.549-0.303,2.412c1.014,0.086,2,0.171,2.992,0.255
		c0.081,0.191,0.126,0.36,0.219,0.496c0.071,0.105,0.328,0.03,0.283,0.321c-0.069,0.022-0.159,0.071-0.25,0.075
		c-0.255,0.014-0.512,0-0.768,0.013c-0.587,0.029-1.174,0.068-1.761,0.1c-0.358,0.02-0.716,0.04-1.074,0.043
		c-0.259,0.003-0.51-0.044-0.75-0.25c-0.174-0.484-0.2-1.018-0.124-1.553c0.086-0.608,0.185-1.216,0.309-1.817
		c0.222-1.077,0.467-2.149,0.704-3.223c0.028-0.124,0.065-0.248,0.11-0.368c0.225-0.6,0.392-0.67,1.044-0.607
		c0.48,0.045,0.969,0.019,1.454,0.011c0.381-0.006,0.763-0.032,1.151-0.05c0.066,0.148,0.116,0.26,0.181,0.406
		c-0.46,0.307-0.963,0.341-1.466,0.395c-0.481,0.051-0.959,0.129-1.48,0.201c-0.122,0.596-0.302,1.173-0.148,1.822
		C41.843,37.743,42.819,37.726,43.808,38.141z M42.042,38.436c0.569,0.111,0.569,0.111,1.011-0.065
		C42.674,38.307,42.356,38.32,42.042,38.436z"/>
	<path fill="#FFFFFF" d="M44.816,37.423c0.354-0.587,0.652-1.27,1.157-1.829c0.663-0.735,1.335-0.84,2.184-0.305
		c0.236,0.149,0.461,0.326,0.66,0.522c0.42,0.416,0.268,1.075-0.285,1.306c-0.27,0.113-0.522-0.016-0.575-0.311
		c-0.022-0.121,0.015-0.252,0.005-0.376c-0.037-0.472-0.431-0.72-0.866-0.537c-0.713,0.301-1.138,0.846-1.326,1.617
		c0.066,0.097,0.114,0.234,0.211,0.298c0.51,0.337,0.988,0.73,1.604,0.886c0.576,0.146,0.99,0.505,1.275,1.033
		c0.192,0.357,0.302,0.701,0.135,1.098c-0.049,0.115-0.081,0.251-0.07,0.374c0.038,0.436-0.221,0.685-0.56,0.833
		c-0.419,0.183-0.86,0.386-1.306,0.429c-0.66,0.063-1.248-0.215-1.714-0.701c-0.041-0.043-0.059-0.175-0.029-0.206
		c0.063-0.062,0.175-0.128,0.252-0.114c0.146,0.027,0.28,0.113,0.422,0.168c0.624,0.248,1.756-0.029,2.2-0.537
		c0.313-0.357,0.326-0.552,0.101-0.968c-0.23-0.425-0.542-0.75-1.025-0.861c-0.169-0.039-0.361-0.078-0.521-0.035
		c-0.634,0.17-1.085-0.171-1.537-0.514c-0.073-0.055-0.118-0.167-0.145-0.262C44.978,38.118,44.906,37.797,44.816,37.423z
		 M47.385,35.496c-0.019-0.001-0.039-0.006-0.057-0.003c-0.005,0.001-0.005,0.026-0.007,0.041c0.019,0.001,0.039,0.006,0.057,0.002
		C47.383,35.535,47.383,35.509,47.385,35.496z M45.492,37.855c-0.003,0.031-0.006,0.061-0.01,0.092
		c0.011-0.014,0.03-0.027,0.032-0.042C45.515,37.89,45.5,37.873,45.492,37.855z"/>
	<path fill="#FFFFFF" d="M38.935,35.245c0.206,0.22,0.155,0.469,0.099,0.719c-0.191,0.849-0.42,1.686-0.726,2.502
		c-0.304,0.812-0.307,0.892-0.243,1.769c-0.246,0.179-0.438,0.426-0.512,0.768c-0.108,0.497-0.258,0.985-0.393,1.476
		c-0.065,0.237-0.335,0.398-0.598,0.361c-0.261-0.038-0.449-0.289-0.375-0.566c0.092-0.345,0.208-0.687,0.349-1.014
		c0.135-0.315,0.115-0.6-0.081-0.869c-0.429-0.589-0.663-1.262-0.902-1.94c-0.135-0.381-0.374-0.725-0.572-1.082
		c-0.273-0.492-0.52-0.994-0.609-1.542c0.501-0.69,0.524-0.693,1.078-0.158c-0.042,0.156-0.17,0.038-0.25,0.081
		c-0.009,0.039-0.04,0.09-0.025,0.121c0.391,0.832,0.785,1.663,1.182,2.492c0.2,0.417,0.471,0.782,0.841,1.155
		c0.08-0.144,0.162-0.239,0.189-0.347c0.218-0.867,0.414-1.74,0.643-2.605c0.084-0.317,0.231-0.621,0.366-0.923
		C38.496,35.424,38.675,35.293,38.935,35.245z"/>
	<path fill="#FFFFFF" d="M51.119,40.177c-0.143-1.955-0.278-3.811-0.417-5.695c0.35-0.255,0.708-0.15,1.064,0.003
		c0.318,0.137,0.43,0.407,0.474,0.731c0.084,0.619-0.048,1.222-0.123,1.828c-0.052,0.43-0.17,0.852-0.221,1.282
		c-0.071,0.602-0.106,1.207-0.16,1.851C51.567,40.177,51.378,40.177,51.119,40.177z M51.601,37.971
		c0.14-0.634,0.093-1.097,0.054-1.56C51.631,36.877,51.375,37.323,51.601,37.971z M51.093,34.8
		c-0.149,0.655-0.127,0.799,0.109,1.112C51.166,35.542,51.129,35.171,51.093,34.8z M51.939,35.501l0.024,0.027v-0.055L51.939,35.501
		z M51.81,34.983c-0.02-0.038-0.032-0.094-0.062-0.108c-0.03-0.014-0.08,0.016-0.121,0.026c0.021,0.038,0.034,0.092,0.067,0.109
		C51.72,35.023,51.77,34.994,51.81,34.983z"/>
	<path fill="#FFFFFF" d="M45.8,46.152c2.719,0.021,5.438,0.035,8.156,0.065c0.589,0.006,1.177,0.063,1.765,0.107
		c0.123,0.009,0.245,0.061,0.362,0.107c0.022,0.009,0.022,0.089,0.021,0.135c-0.001,0.018-0.032,0.042-0.054,0.05
		c-0.047,0.018-0.103,0.047-0.144,0.035c-0.701-0.215-1.423-0.166-2.14-0.179c-1.793-0.033-3.587-0.056-5.381-0.074
		c-2.846-0.028-5.693-0.052-8.54-0.071c-1.102-0.007-2.205-0.004-3.306,0.011c-0.252,0.003-0.505,0.065-0.754,0.118
		c-0.13,0.027-0.296,0.229-0.365,0c-0.052-0.176,0.186-0.223,0.322-0.252c0.349-0.074,0.705-0.166,1.058-0.165
		c2.359,0.005,4.719-0.035,7.077,0.113c0.638,0.04,1.282,0.006,1.923,0.006C45.8,46.157,45.8,46.155,45.8,46.152z"/>
	<path fill="#FFFFFF" d="M52.189,45.35c-0.346,0.169-0.619,0.118-0.883,0.004c-0.362-0.156-0.743-0.179-1.128-0.192
		c-2.843-0.092-5.686-0.028-8.529-0.009c-1.1,0.007-2.2-0.055-3.301-0.085c-0.433-0.012-0.863-0.088-1.298,0.032
		c-0.308,0.084-0.587-0.016-0.822-0.245c0.12-0.21,0.282-0.134,0.417-0.128c1.382,0.064,2.763,0.142,4.144,0.198
		c0.537,0.021,1.075-0.003,1.613-0.007c2.229-0.015,4.457-0.044,6.685-0.037c0.793,0.002,1.585,0.089,2.377,0.146
		C51.797,45.053,51.796,45.063,52.189,45.35z"/>
	<path fill="#FFFFFF" d="M51.739,42.729c-0.042,0.075-0.086,0.23-0.188,0.32c-0.159,0.142-0.372,0.168-0.565,0.061
		c-0.106-0.059-0.195-0.157-0.275-0.251c-0.222-0.264-0.221-0.461-0.012-0.662c0.199-0.191,0.549-0.216,0.761-0.054
		C51.617,42.262,51.723,42.461,51.739,42.729z"/>
</g>
</svg>
