<?xml version="1.0" encoding="utf-8"?>
<!-- Generator: Adobe Illustrator 16.0.0, SVG Export Plug-In . SVG Version: 6.00 Build 0)  -->
<!DOCTYPE svg PUBLIC "-//W3C//DTD SVG 1.1//EN" "http://www.w3.org/Graphics/SVG/1.1/DTD/svg11.dtd">
<svg version="1.1" id="Layer_1" xmlns="http://www.w3.org/2000/svg" xmlns:xlink="http://www.w3.org/1999/xlink" x="0px" y="0px"
	 width="122.585px" height="110.826px" viewBox="9.302 -0.931 122.585 110.826"
	 enable-background="new 9.302 -0.931 122.585 110.826" xml:space="preserve">
<circle fill="#FABC3D" cx="82.667" cy="49.441" r="8.978"/>
<circle fill="#E04F5F" cx="58.241" cy="59.417" r="8.978"/>
<g>
	<path fill="#21B2D1" d="M63.464,62.026c0,0.724-0.585,1.308-1.306,1.308h-7.835c-0.723,0-1.307-0.584-1.307-1.308v-5.223
		c0-0.725,0.584-1.311,1.307-1.311h7.835c0.721,0,1.306,0.586,1.306,1.311V62.026z"/>
	<path fill="#40C9E7" d="M54.323,55.5c-0.723,0-1.307,0.584-1.307,1.308v5.224c0,0.427,0.199,0.802,0.516,1.036l7.565-7.562
		L54.323,55.5L54.323,55.5z"/>
	<path fill="#FFFFFF" d="M62.159,55.5h-7.835c-0.723,0-1.307,0.584-1.307,1.308v0.651h10.444v-0.651
		C63.464,56.083,62.879,55.5,62.159,55.5z"/>
	<circle fill="#FA5655" cx="54.486" cy="56.642" r="0.326"/>
	<circle fill="#F3B607" cx="55.792" cy="56.642" r="0.327"/>
	<circle fill="#4AC3AF" cx="57.098" cy="56.642" r="0.326"/>
	<g>
		<g>
			<path fill="#FFFFFF" d="M59.775,61.408c-0.107-0.146-0.08-0.351,0.062-0.457l0.958-0.72l-0.958-0.719
				c-0.146-0.106-0.173-0.312-0.062-0.457c0.105-0.146,0.312-0.176,0.457-0.063l1.307,0.979c0.082,0.062,0.13,0.157,0.13,0.262
				c0,0.104-0.048,0.199-0.13,0.264l-1.307,0.979C60.088,61.582,59.883,61.552,59.775,61.408z"/>
		</g>
		<g>
			<path fill="#FFFFFF" d="M56.249,61.474l-1.307-0.979c-0.083-0.062-0.131-0.158-0.131-0.264c0-0.104,0.048-0.195,0.131-0.26
				l1.307-0.979c0.146-0.109,0.352-0.08,0.458,0.062c0.107,0.146,0.079,0.352-0.062,0.457l-0.958,0.719l0.958,0.721
				c0.145,0.105,0.173,0.312,0.062,0.457C56.599,61.55,56.395,61.583,56.249,61.474z"/>
		</g>
		<g>
			<path fill="#FFFFFF" d="M57.605,61.503c-0.162-0.08-0.229-0.275-0.146-0.438l0.979-1.959c0.081-0.16,0.274-0.229,0.438-0.146
				s0.229,0.275,0.146,0.438l-0.979,1.957C57.963,61.519,57.768,61.585,57.605,61.503z"/>
		</g>
	</g>
</g>
<g>
	<circle fill="#FABC3D" cx="37.041" cy="44.289" r="8.978"/>
</g>
<g>
	<circle fill="#32BEA6" cx="83.478" cy="72.167" r="8.979"/>
</g>
<path fill="#32BEA6" d="M50.64,85.498c0,4.959-4.021,8.979-8.979,8.979s-8.979-4.021-8.979-8.979s4.021-8.979,8.979-8.979
	S50.64,80.539,50.64,85.498"/>
<g>
	<circle fill="#E04F5F" cx="109.348" cy="37.146" r="8.978"/>
</g>
<g>
	<g>
		<g>
			<polygon fill="#0484AB" points="39.326,45.757 38.673,45.43 38.673,46.247 38.847,46.411 			"/>
		</g>
	</g>
	<g>
		<path fill="#F7B4B4" d="M38.673,45.595l-0.833,0.652c-0.093,0.104-0.227,0.164-0.362,0.164h-0.436h-0.435
			c-0.143,0-0.272-0.06-0.365-0.164l-0.833-0.652v0.652l-0.214,0.107l1.847,2.505l1.848-2.505l-0.216-0.107L38.673,45.595
			L38.673,45.595z M37.041,47.554L37.041,47.554C37.04,47.553,37.041,47.553,37.041,47.554
			C37.041,47.553,37.042,47.553,37.041,47.554L37.041,47.554z"/>
	</g>
	<g>
		<g>
			<path fill="#059BBF" d="M32.967,47.229c-0.219,0.096-0.396,0.269-0.494,0.487l-0.653,1.795h5.225l-1.959-3.101L32.967,47.229z"/>
		</g>
		<g>
			<path fill="#059BBF" d="M41.611,47.716c-0.104-0.218-0.276-0.392-0.497-0.487L39,46.411l-1.958,3.101h5.226L41.611,47.716z"/>
		</g>
	</g>
	<g>
		<g>
			<polygon fill="#0484AB" points="34.755,45.757 35.408,45.43 35.408,46.247 35.242,46.424 			"/>
		</g>
	</g>
	<g>
		<path fill="#FBC8C8" d="M36.242,46.246l-0.833-0.652v0.653l-0.214,0.107l1.847,2.505v-1.305l-0.001-0.001h0.001V46.41h-0.435
			C36.468,46.41,36.334,46.35,36.242,46.246z"/>
	</g>
	<g>
		<g>
			<polygon fill="#40C9E7" points="33.857,49.512 35.245,47.716 34.755,47.227 33.417,49.512 			"/>
		</g>
	</g>
	<g>
		<g>
			<polygon fill="#6FDAF1" points="37.041,48.859 34.755,45.757 34.103,46.574 37.041,49.512 			"/>
		</g>
	</g>
	<g>
		<g>
			<path fill="#FFFFFF" d="M36.225,49.512h-0.164l-0.163-1.225c0-0.135,0.107-0.245,0.245-0.245c0.136,0,0.245,0.11,0.245,0.245
				L36.225,49.512z"/>
		</g>
	</g>
	<g>
		<g>
			<polygon fill="#40C9E7" points="40.224,49.512 38.836,47.716 39.326,47.227 40.665,49.512 			"/>
		</g>
	</g>
	<g>
		<g>
			<polygon fill="#6FDAF1" points="37.041,48.859 39.326,45.757 39.979,46.574 37.041,49.512 			"/>
		</g>
	</g>
	<g>
		<g>
			<path fill="#FFFFFF" d="M37.857,49.512h0.163l0.164-1.225c0-0.135-0.109-0.245-0.245-0.245c-0.135,0-0.245,0.11-0.245,0.245
				L37.857,49.512z"/>
		</g>
	</g>
	<g>
		<path fill="#FBC8C8" d="M39.816,43.025c0-0.182-0.163-0.363-0.327-0.363c-0.163,0-0.163,0.181-0.163,0.181v-0.181
			c-0.002-1.469-0.167-2.449-2.285-2.449c-2.119,0-2.283,0.98-2.286,2.449v1.3l0.653,1.633l0.833,0.652
			c0.093,0.104,0.226,0.164,0.365,0.164h0.435h0.436c0.14,0,0.271-0.06,0.362-0.164l0.833-0.652l0.521-1.304
			C39.659,44.261,39.816,43.558,39.816,43.025z"/>
	</g>
	<g>
		<path fill="#E1F5FA" d="M34.755,42.663v0.181c0,0,0-0.181-0.163-0.181c-0.16,0-0.324,0.181-0.324,0.363
			c0,0.532,0.154,1.235,0.621,1.266l0.521,1.304l0.833,0.652c0.093,0.104,0.226,0.164,0.365,0.164h0.435v-6.197
			C34.922,40.214,34.758,41.194,34.755,42.663z"/>
	</g>
	<g>
		<g>
			<path fill="#3E3E3F" d="M36.551,42.989c0-0.18-0.146-0.327-0.323-0.327l0,0c0,0.004,0,0.007,0,0.01
				c0,0.18-0.146,0.326-0.326,0.326c0.005,0.176,0.146,0.316,0.326,0.316C36.405,43.315,36.551,43.169,36.551,42.989z"/>
		</g>
	</g>
	<g>
		<g>
			<path fill="#3E3E3F" d="M38.182,42.989c0-0.18-0.146-0.327-0.326-0.327l0,0c0,0.004,0,0.007,0,0.01
				c0,0.18-0.146,0.326-0.326,0.326c0.007,0.176,0.149,0.316,0.326,0.316C38.036,43.315,38.182,43.169,38.182,42.989z"/>
		</g>
	</g>
	<g>
		<g>
			<path fill="#53BAD4" d="M36.225,44.621h1.632c0,0,0,0.49-0.815,0.49C36.225,45.111,36.225,44.621,36.225,44.621z"/>
		</g>
	</g>
	<g>
		<path fill="#84462D" d="M38.025,39.561c-0.325,0.327-0.488,0.49-0.979-0.326c-0.487,0.816-0.65,0.653-0.979,0.326
			c-1.469,1.143-1.309,1.318-1.309,3.428l0.327,0.001c0-1.244,0.163-1.469,0.733-1.959c0.187,0.248,0.604,0.476,1.226,0.49
			c0.618-0.015,1.039-0.243,1.227-0.49c0.568,0.49,0.731,0.715,0.731,1.959l0.327-0.001C39.332,40.879,39.495,40.703,38.025,39.561z
			"/>
	</g>
	<g>
		<g>
			<path fill="#9C6144" d="M37.046,39.234c-0.487,0.816-0.65,0.653-0.979,0.326c-1.469,1.143-1.309,1.318-1.309,3.428l0.327,0.001
				c0-1.244,0.163-1.469,0.733-1.959c0.187,0.248,0.604,0.476,1.226,0.49L37.046,39.234L37.046,39.234z"/>
		</g>
	</g>
</g>
<g>
	<g>
		<path fill="#3E3E3F" d="M112.676,39.965c-0.379-0.504-0.781-1.411-0.809-2.994c-0.084,0.082-0.188,0.142-0.316,0.169
			c-0.192,0.734-0.521,1.243-0.896,1.601v0.743L112.676,39.965z"/>
	</g>
	<g>
		<path fill="#BF8662" d="M113.986,40.846c-0.146-0.377-0.457-0.666-0.844-0.782l-2.649-0.632l-1.145,0.164l-1.146-0.164
			l-2.646,0.632c-0.391,0.116-0.699,0.405-0.848,0.782l-0.586,1.524h5.228h5.224L113.986,40.846z"/>
	</g>
	<g>
		<g>
			<path fill="#CC9978" d="M109.349,39.595l-1.146-0.164l-2.648,0.632c-0.391,0.116-0.699,0.405-0.848,0.782l-0.586,1.524h5.228
				V39.595z"/>
		</g>
	</g>
	<g>
		<path fill="#FACB1B" d="M112.11,39.771l-0.652-0.163v0.86c0,0.448-0.252,0.857-0.649,1.058l-1.448,0.724l-1.445-0.724
			c-0.401-0.201-0.654-0.61-0.654-1.058v-0.86l-0.65,0.163l-0.814,2.612h1.47h1.935h0.163h2.104h1.472L112.11,39.771z"/>
	</g>
	<g>
		<path fill="#AF7653" d="M109.458,39.444c-0.58-0.193-1.271-0.573-1.74-1.417v1.906c0,0,0.326,0.653,1.636,0.653
			c1.308,0,1.632-0.653,1.632-0.653v-1.567C110.53,38.977,109.954,39.279,109.458,39.444z"/>
	</g>
	<g>
		<path fill="#BF8662" d="M112.015,35.581c-1.129,0-1.956-0.882-1.949-2.429c-0.116,1.308-0.875,2.436-3.247,2.436
			c0,0,0-0.001,0-0.002c-0.093,0.068-0.163,0.186-0.163,0.303c0,0.514,0.146,1.188,0.712,1.262c0.398,1.482,1.34,2.043,2.092,2.293
			c0.752-0.251,1.695-0.813,2.099-2.304c0.519-0.112,0.649-0.755,0.649-1.251C112.206,35.719,112.02,35.522,112.015,35.581z"/>
	</g>
	<g>
		<path fill="#3E3E3F" d="M110.083,32.751c-2.607-0.653-3.312,0.562-3.266,2.836c2.373,0,3.129-1.128,3.247-2.436
			c-0.007,1.547,0.817,2.429,1.949,2.429C112.151,33.853,111.974,32.425,110.083,32.751z"/>
	</g>
	<g>
		<g>
			<path fill="#3E3E3F" d="M110.572,35.853c0-0.181-0.146-0.327-0.325-0.327c0,0,0,0-0.002,0c0,0.004,0.002,0.007,0.002,0.011
				c0,0.18-0.146,0.326-0.326,0.326c0.006,0.176,0.147,0.316,0.326,0.316C110.426,36.179,110.572,36.033,110.572,35.853z"/>
		</g>
	</g>
	<g>
		<g>
			<path fill="#FFFFFF" d="M111.687,37.159l0.249,0.602c0.042,0.101,0.02,0.217-0.062,0.294c-0.104,0.106-0.271,0.106-0.381,0
				c-0.076-0.077-0.101-0.193-0.059-0.294L111.687,37.159z"/>
		</g>
	</g>
	<g>
		<path fill="#3E3E3F" d="M109.147,39.325c-0.686-0.298-1.438-0.89-1.781-2.174c-0.265-0.035-0.437-0.202-0.545-0.42h-0.003
			c0.082,3.213,0.985,2.802,1.185,4.091c0.104,0.663-0.363,1.341-1.021,0.906c0.228,0.905,2.552,0.625,2.552-1.335
			C109.532,39.979,109.375,39.631,109.147,39.325z"/>
	</g>
	<g>
		<g>
			<path fill="#FFFFFF" d="M106.952,37.159l0.25,0.602c0.043,0.101,0.021,0.217-0.06,0.294c-0.104,0.106-0.274,0.106-0.384,0
				c-0.075-0.077-0.102-0.193-0.059-0.294L106.952,37.159z"/>
		</g>
	</g>
	<g>
		<path fill="#CC9978" d="M106.818,35.587c0,0,0-0.001,0-0.002c-0.093,0.068-0.163,0.186-0.163,0.303
			c0,0.514,0.146,1.188,0.711,1.262c0.399,1.482,1.342,2.043,2.092,2.293V34.69C108.971,35.232,108.149,35.587,106.818,35.587z"/>
	</g>
	<g>
		<g>
			<path fill="#3E3E3F" d="M108.94,35.853c0-0.181-0.146-0.327-0.327-0.327l0,0c0,0.004,0,0.007,0,0.011
				c0,0.18-0.146,0.326-0.323,0.326c0.004,0.176,0.146,0.316,0.323,0.316C108.793,36.179,108.94,36.033,108.94,35.853z"/>
		</g>
	</g>
	<g>
		<g>
			<path fill="#84462D" d="M108.614,37.648h1.635c0,0,0,0.49-0.812,0.49C108.616,38.138,108.614,37.648,108.614,37.648z"/>
		</g>
	</g>
</g>
<g>
	<path fill="#FFFFFF" d="M46.299,89.196c-0.146-0.377-0.457-0.665-0.844-0.78l-2.648-0.633l-1.146,0.161l-1.144-0.161l-2.65,0.633
		c-0.388,0.117-0.699,0.403-0.845,0.78l-0.586,1.522h5.225h5.224L46.299,89.196z"/>
</g>
<g>
	<g>
		<path fill="#E2E4E5" d="M43.586,88.417l0.034-0.066v-0.078v-0.295l-0.326-0.078v0.373c0,0-0.327,0.652-1.633,0.652
			c-1.307,0-1.633-0.652-1.633-0.652v-0.373l-0.326,0.078v0.295v0.078l0.034,0.066c0.042,0.086,0.458,0.834,1.925,0.834
			C43.127,89.251,43.543,88.503,43.586,88.417z"/>
	</g>
</g>
<g>
	<path fill="#F7B4B4" d="M41.662,87.783c-0.536-0.181-1.168-0.519-1.633-1.234v1.726c0,0,0.326,0.651,1.633,0.651
		c1.306,0,1.633-0.651,1.633-0.651v-1.726C42.831,87.267,42.198,87.604,41.662,87.783z"/>
</g>
<g>
	<path fill="#FBC8C8" d="M40.03,86.546v1.727c0,0,0.326,0.652,1.633,0.652v-1.143C41.125,87.604,40.493,87.267,40.03,86.546z"/>
</g>
<g>
	<g>
		<path fill="#FA5655" d="M39.05,85.067c0.082,3.216,0.986,2.806,1.187,4.093c0.103,0.664-0.366,1.342-1.021,0.905
			c0.229,0.903,2.553,0.625,2.553-1.334c0-1.469-2.062-1.933-2.062-3.013c0-0.552,0-0.651,0-0.651H39.05z"/>
	</g>
</g>
<g>
	<path fill="#7D261E" d="M44.179,85.218c-0.104,0.137-0.239,0.234-0.427,0.268c-0.177,0.66-0.46,1.14-0.787,1.482v0.854l2.021,0.479
		C44.602,87.791,44.19,86.856,44.179,85.218z"/>
</g>
<g>
	<path fill="#FBC8C8" d="M44.24,83.901c0,0.013-0.002,0.021-0.003,0.029c-1.13,0-1.956-0.885-1.949-2.432
		c-0.118,1.311-0.875,2.438-3.247,2.438c0-0.004,0-0.006,0-0.01c-0.089,0.066-0.152,0.184-0.152,0.299
		c0,0.504,0.141,1.164,0.682,1.256c0.396,1.485,1.342,2.05,2.094,2.3c0.751-0.25,1.694-0.812,2.093-2.3
		c0.541-0.094,0.685-0.752,0.685-1.256C44.437,84.097,44.35,83.964,44.24,83.901z"/>
</g>
<g>
	<path fill="#E1F5FA" d="M39.042,83.938c0-0.004,0-0.006,0-0.01c-0.089,0.066-0.152,0.184-0.152,0.299
		c0,0.504,0.141,1.164,0.682,1.256c0.396,1.485,1.342,2.05,2.094,2.3V83.06C41.173,83.591,40.355,83.938,39.042,83.938z"/>
</g>
<g>
	<path fill="#7D261E" d="M42.307,81.104c-2.612-0.65-3.312,0.562-3.268,2.836c2.372,0,3.128-1.129,3.247-2.438
		c-0.007,1.547,0.819,2.431,1.949,2.431C44.374,82.205,44.197,80.774,42.307,81.104z"/>
</g>
<g>
	<g>
		<path fill="#3E3E3F" d="M41.172,84.19c0-0.183-0.146-0.325-0.324-0.325h-0.004c0,0.004,0.004,0.006,0.004,0.01
			c0,0.183-0.146,0.326-0.326,0.328c0.005,0.174,0.146,0.313,0.326,0.313C41.026,84.521,41.172,84.373,41.172,84.19z"/>
	</g>
</g>
<g>
	<g>
		<path fill="#3E3E3F" d="M42.804,84.19c0-0.183-0.146-0.325-0.327-0.325l0,0c0,0.004,0,0.006,0,0.01
			c0,0.183-0.146,0.326-0.326,0.328c0.006,0.174,0.146,0.313,0.326,0.313C42.657,84.521,42.804,84.373,42.804,84.19z"/>
	</g>
</g>
<g>
	<g>
		<path fill="#53BAD4" d="M40.846,85.985h1.632c0,0,0,0.49-0.815,0.49C40.846,86.478,40.846,85.985,40.846,85.985z"/>
	</g>
</g>
<g>
	<g>
		<g>
			<polygon fill="#F3B607" points="85.763,73.636 85.11,73.31 85.11,74.126 85.284,74.291 			"/>
		</g>
	</g>
	<g>
		<path fill="#AF7653" d="M85.11,73.476l-0.833,0.65c-0.093,0.104-0.229,0.164-0.364,0.164h-0.436h-0.436
			c-0.143,0-0.271-0.062-0.363-0.164l-0.833-0.65v0.65l-0.216,0.105l1.848,2.504l1.848-2.504l-0.215-0.105V73.476L85.11,73.476z
			 M83.478,75.435L83.478,75.435C83.477,75.433,83.478,75.433,83.478,75.435C83.478,75.433,83.479,75.433,83.478,75.435
			L83.478,75.435z"/>
	</g>
	<g>
		<g>
			<path fill="#3E3E3F" d="M79.403,75.106c-0.219,0.099-0.396,0.271-0.497,0.487l-0.651,1.796h5.228l-1.959-3.104L79.403,75.106z"/>
		</g>
		<g>
			<path fill="#3E3E3F" d="M88.047,75.597c-0.101-0.221-0.273-0.395-0.496-0.488l-2.112-0.813l-1.959,3.104h5.226L88.047,75.597z"/>
		</g>
	</g>
	<g>
		<g>
			<polygon fill="#F3B607" points="81.192,73.636 81.845,73.31 81.845,74.126 81.679,74.304 			"/>
		</g>
	</g>
	<g>
		<path fill="#BF8662" d="M82.679,74.125l-0.833-0.649v0.651l-0.217,0.104l1.849,2.506v-1.305l-0.001-0.002c0.001,0,0.001,0,0.001,0
			v-1.146h-0.437C82.905,74.289,82.771,74.229,82.679,74.125z"/>
	</g>
	<g>
		<g>
			<polygon fill="#FACB1B" points="80.293,77.392 81.682,75.597 81.192,75.104 79.854,77.392 			"/>
		</g>
	</g>
	<g>
		<g>
			<polygon fill="#FBE158" points="83.478,76.737 81.192,73.636 80.54,74.453 83.478,77.392 			"/>
		</g>
	</g>
	<g>
		<g>
			<path fill="#FFFFFF" d="M82.663,77.392h-0.164l-0.164-1.227c0-0.137,0.109-0.244,0.246-0.244c0.135,0,0.244,0.107,0.244,0.244
				L82.663,77.392z"/>
		</g>
	</g>
	<g>
		<g>
			<polygon fill="#FACB1B" points="86.661,77.392 85.273,75.597 85.763,75.104 87.102,77.392 			"/>
		</g>
	</g>
	<g>
		<g>
			<polygon fill="#FBE158" points="83.478,76.737 85.763,73.636 86.417,74.453 83.478,77.392 			"/>
		</g>
	</g>
	<g>
		<g>
			<path fill="#FFFFFF" d="M84.293,77.392h0.164l0.162-1.227c0-0.137-0.105-0.244-0.244-0.244s-0.246,0.107-0.246,0.244
				L84.293,77.392z"/>
		</g>
	</g>
	<g>
		<path fill="#BF8662" d="M85.926,70.541c-0.057,0-0.11,0-0.16,0v-0.006l-0.49,0.164c0-1.388-0.072-1.863-0.304-1.982
			c-0.021-0.006-0.046-0.012-0.062-0.021c-0.27-0.062-0.715,0.209-1.433,0.209c-0.722,0-1.163-0.271-1.435-0.209
			c-0.021,0.012-0.039,0.018-0.062,0.021c-0.229,0.119-0.304,0.599-0.304,1.982l-0.49-0.154v1.297l0.65,1.634l0.834,0.651
			c0.095,0.104,0.228,0.164,0.365,0.164h0.436h0.436c0.139,0,0.271-0.062,0.364-0.164l0.833-0.651l0.521-1.306
			c0.467-0.028,0.621-0.733,0.621-1.269C86.252,70.724,86.09,70.541,85.926,70.541z"/>
	</g>
	<g>
		<path fill="#CC9978" d="M82.047,68.694c-0.021,0.009-0.041,0.017-0.062,0.021c-0.23,0.117-0.304,0.599-0.304,1.982l-0.503-0.158
			c-0.051,0-0.102,0-0.149,0c-0.163,0-0.325,0.183-0.325,0.358c0,0.533,0.155,1.236,0.621,1.271l0.521,1.306l0.833,0.649
			c0.093,0.104,0.226,0.164,0.362,0.164h0.437v-5.388C82.76,68.901,82.315,68.63,82.047,68.694z"/>
	</g>
	<g>
		<path fill="#3E3E3F" d="M85.763,68.901c-0.062,0-0.114,0.015-0.167,0.031c-0.043-0.113-0.102-0.223-0.161-0.317
			c0.101-0.091,0.165-0.22,0.165-0.363c0-0.271-0.223-0.489-0.49-0.489c-0.173,0-0.322,0.09-0.41,0.229
			c-0.207-0.097-0.453-0.157-0.734-0.192c0-0.01,0.002-0.021,0.002-0.029c0-0.271-0.219-0.49-0.485-0.49
			c-0.271,0-0.487,0.222-0.487,0.49c0,0.008,0.002,0.019,0.002,0.023c-0.285,0.027-0.537,0.09-0.748,0.18
			c-0.092-0.125-0.231-0.203-0.396-0.203c-0.271,0-0.49,0.219-0.49,0.486c0,0.127,0.051,0.242,0.129,0.328
			c-0.068,0.104-0.13,0.221-0.177,0.34c-0.037-0.008-0.075-0.015-0.114-0.015c-0.271,0-0.49,0.22-0.49,0.487
			c0,0.25,0.189,0.455,0.438,0.481c-0.006,0.209,0.003,0.431,0.022,0.658l0.521,0.164c0-1.388,0.07-1.863,0.306-1.982
			c0.021-0.006,0.041-0.012,0.062-0.02c0.269-0.064,0.712,0.207,1.431,0.207s1.163-0.271,1.432-0.207
			c0.021,0.008,0.041,0.014,0.062,0.02c0.229,0.119,0.305,0.599,0.305,1.982l0.489-0.164c0.021-0.229,0.002-0.445-0.004-0.652
			c0.002,0,0.003,0,0.004,0c0.271,0,0.487-0.219,0.487-0.487C86.252,69.123,86.034,68.901,85.763,68.901z"/>
	</g>
	<g>
		<g>
			<path fill="#3E3E3F" d="M82.987,70.867c0-0.183-0.146-0.326-0.324-0.326h-0.002c0,0.002,0,0.006,0,0.01
				c0,0.181-0.146,0.326-0.326,0.326c0.006,0.177,0.148,0.313,0.326,0.313C82.84,71.192,82.987,71.046,82.987,70.867z"/>
		</g>
	</g>
	<g>
		<g>
			<path fill="#3E3E3F" d="M84.618,70.867c0-0.183-0.146-0.326-0.326-0.326l0,0c0,0.002,0,0.006,0,0.01
				c0,0.181-0.146,0.326-0.326,0.326c0.01,0.177,0.147,0.313,0.326,0.313C84.472,71.192,84.618,71.046,84.618,70.867z"/>
		</g>
	</g>
	<g>
		<g>
			<path fill="#84462D" d="M82.661,72.5h1.633c0,0,0,0.49-0.812,0.49C82.661,72.99,82.661,72.5,82.661,72.5z"/>
		</g>
	</g>
</g>
<g>
	<path fill="#FA5655" d="M41.662,80.974c-2.084-0.303-2.664,0.896-2.62,2.965c1.312,0,2.131-0.348,2.62-0.877V80.974z"/>
</g>
<path d="M99.907,27.708c-0.43-0.82-1.113-1.125-1.629-1.593c-1.154-1.051-2.549-1.65-4.068-1.972
	c-0.371-0.079-0.75-0.151-1.104-0.28c-1.424-0.513-2.88-0.614-4.371-0.422c-0.311,0.039-0.622,0.021-0.984-0.17
	c0.187-0.097,0.357-0.265,0.547-0.281c1.092-0.087,2.188-0.263,3.271,0.014c1.43,0.363,2.863,0.71,4.284,1.106
	c0.929,0.259,1.737,0.757,2.478,1.386c0.279,0.24,0.612,0.419,1.075,0.73c-0.067-1.029-0.673-1.754-0.706-2.662
	c1.096,0.759,2.043,1.942,2.422,3.097c0.23,0.705,0.67,1.396,0.301,2.287c-1.321-0.211-2.674-0.348-3.863-1.086
	c-0.114-0.071-0.199-0.195-0.287-0.303c-0.021-0.025,0-0.083,0.005-0.209C98.116,27.158,98.89,27.654,99.907,27.708z"/>
<path d="M119.192,61.906c0.555-0.869,0.469-1.699,0.637-2.457c0.375-1.697,0.18-3.378-0.354-5.024
	c-0.13-0.402-0.271-0.808-0.348-1.223c-0.293-1.66-1.006-3.123-2.019-4.456c-0.208-0.275-0.364-0.589-0.383-1.047
	c0.192,0.122,0.456,0.199,0.573,0.373c0.688,1.004,1.467,1.963,1.804,3.167c0.438,1.582,0.899,3.159,1.31,4.75
	c0.27,1.041,0.233,2.104,0.035,3.16c-0.076,0.406-0.062,0.826-0.104,1.442c0.951-0.637,1.316-1.62,2.179-2.155
	c-0.125,1.479-0.741,3.049-1.646,4.059c-0.553,0.611-0.979,1.42-2.043,1.559c-0.527-1.396-1.146-2.771-1.098-4.336
	c0.008-0.148,0.078-0.301,0.135-0.443c0.014-0.031,0.082-0.045,0.207-0.108C118.729,59.871,118.68,60.894,119.192,61.906z"/>
<path d="M95.527,95.972c1.185,0.254,2.062-0.18,2.964-0.305c2.021-0.277,3.79-1.178,5.387-2.438
	c0.395-0.312,0.778-0.627,1.207-0.877c1.707-1,3.026-2.379,4.082-4.037c0.22-0.342,0.5-0.646,0.998-0.851
	c-0.057,0.269-0.035,0.583-0.179,0.785c-0.823,1.166-1.562,2.414-2.751,3.271c-1.562,1.133-3.109,2.281-4.695,3.375
	c-1.037,0.72-2.218,1.115-3.463,1.328c-0.479,0.082-0.938,0.269-1.636,0.476c1.093,0.791,2.325,0.791,3.267,1.521
	c-1.68,0.465-3.66,0.426-5.139-0.16c-0.9-0.355-1.961-0.496-2.548-1.611c1.317-1.154,2.587-2.395,4.327-2.977
	c0.167-0.06,0.359-0.037,0.545-0.035c0.042,0,0.083,0.065,0.206,0.182C97.579,94.63,96.434,94.994,95.527,95.972z"/>
<path d="M53.046,91.603c0.745,0.953,1.698,1.185,2.471,1.664c1.732,1.077,3.667,1.521,5.698,1.573c0.497,0.013,1,0.019,1.488,0.099
	c1.952,0.324,3.85,0.106,5.721-0.489c0.385-0.125,0.795-0.177,1.311-0.017c-0.215,0.168-0.398,0.426-0.641,0.489
	c-1.381,0.366-2.746,0.854-4.209,0.756c-1.924-0.129-3.851-0.233-5.771-0.407c-1.255-0.112-2.417-0.562-3.515-1.194
	c-0.418-0.242-0.889-0.396-1.558-0.687c0.332,1.31,1.28,2.096,1.537,3.256c-1.587-0.718-3.085-2.015-3.846-3.408
	c-0.466-0.854-1.19-1.637-0.93-2.87c1.752-0.041,3.521-0.185,5.229,0.481c0.165,0.062,0.304,0.202,0.44,0.319
	c0.031,0.024,0.021,0.104,0.043,0.271C55.48,91.885,54.367,91.431,53.046,91.603z"/>
<path d="M33.885,58.953c-0.575,1.062-0.408,2.026-0.545,2.928c-0.302,2.021,0.062,3.97,0.818,5.854
	c0.185,0.461,0.382,0.928,0.501,1.404c0.479,1.92,1.429,3.573,2.722,5.057c0.27,0.307,0.479,0.66,0.533,1.195
	c-0.238-0.127-0.549-0.197-0.703-0.394c-0.887-1.121-1.875-2.183-2.363-3.562c-0.646-1.814-1.312-3.627-1.916-5.457
	c-0.396-1.195-0.444-2.439-0.3-3.699c0.059-0.479,0.012-0.973,0.012-1.697c-1.066,0.82-1.415,2.008-2.377,2.703
	c0.024-1.74,0.623-3.633,1.603-4.887c0.597-0.767,1.027-1.738,2.268-1.986c0.733,1.592,1.565,3.154,1.635,4.986
	c0.007,0.18-0.066,0.356-0.12,0.533c-0.013,0.041-0.09,0.062-0.23,0.146C34.591,61.296,34.567,60.097,33.885,58.953z"/>
<path d="M55.436,27.069c-0.896-0.287-1.604-0.021-2.312,0.007c-1.582,0.062-3.015,0.62-4.341,1.469
	c-0.325,0.208-0.646,0.424-0.997,0.584c-1.395,0.641-2.518,1.604-3.458,2.803c-0.191,0.247-0.435,0.458-0.833,0.578
	c0.062-0.2,0.069-0.446,0.195-0.592c0.726-0.837,1.391-1.742,2.372-2.316c1.291-0.754,2.573-1.523,3.88-2.247
	c0.854-0.473,1.796-0.69,2.771-0.76c0.374-0.026,0.742-0.134,1.299-0.238c-0.781-0.694-1.732-0.788-2.402-1.42
	c1.33-0.23,2.854-0.05,3.95,0.515c0.668,0.344,1.477,0.532,1.842,1.438c-1.105,0.789-2.178,1.648-3.563,1.964
	c-0.133,0.03-0.28,0-0.423-0.014c-0.029-0.003-0.06-0.061-0.146-0.155C53.751,27.946,54.663,27.754,55.436,27.069z"/>
<g>
	<path fill="#3E3E3F" d="M84.252,45.179c-0.357-0.279-0.85-0.444-1.479-0.444c-0.638,0-1.122,0.165-1.481,0.444l-0.996-0.775
		l0.166,2.81c0,1.37,1.035,2.479,2.312,2.479c1.273,0,2.312-1.109,2.312-2.479l0.166-2.81L84.252,45.179z"/>
	<path fill="#5B5C5F" d="M81.288,45.179l-0.996-0.775l0.166,2.81c0,1.37,1.035,2.479,2.312,2.479v-4.958
		C82.136,44.734,81.649,44.899,81.288,45.179z"/>
	<path fill="#3E3E3F" d="M82.771,48.701c-0.661,0-4.627,0.331-4.627,5.62c0,0,1.649,0.662,4.627,0.662
		c2.976,0,4.628-0.662,4.628-0.662C87.398,49.032,83.432,48.701,82.771,48.701z"/>
	<path fill="#CFD3D4" d="M82.771,54.98c1.132,0,2.069-0.099,2.804-0.213c-0.148-4.292-2.804-5.078-2.804-5.078
		s-2.651,0.782-2.802,5.078C80.7,54.886,81.639,54.98,82.771,54.98z"/>
	<path fill="#3E3E3F" d="M84.092,51.841l-0.657,0.496v-0.661l-0.661,0.496l-0.661-0.496v0.661l-0.659-0.496
		c-0.498,0.423-0.844,0.934-0.826,1.652c0.992-0.11,1.65,0,2.146,0.827c0.496-0.827,1.157-0.937,2.146-0.827
		C84.936,52.775,84.59,52.264,84.092,51.841z"/>
	<path fill="#FBC8C8" d="M82.771,49.692c0.608,0,1.165-0.255,1.578-0.669c0.753-2.238-0.974-0.983-1.578-0.983
		c-0.606,0-2.332-1.254-1.578,0.983C81.606,49.437,82.161,49.692,82.771,49.692z"/>
	<path fill="#CFD3D4" d="M84.014,47.163c-0.412,0.222-0.946,0.029-0.946,0.029s0.134-0.552,0.545-0.774s0.945-0.029,0.945-0.029
		S84.426,46.941,84.014,47.163z"/>
	<path fill="#CFD3D4" d="M81.527,47.163c0.412,0.222,0.946,0.029,0.946,0.029s-0.137-0.552-0.545-0.774
		c-0.411-0.222-0.945-0.029-0.945-0.029S81.116,46.941,81.527,47.163z"/>
	<path fill="#FBD7D7" d="M81.193,49.023c0.414,0.414,0.968,0.669,1.578,0.669V48.04C82.163,48.04,80.439,46.786,81.193,49.023z"/>
	<path fill="#F79392" d="M81.944,48.536h1.653c0,0,0,0.496-0.827,0.496C81.944,49.032,81.944,48.536,81.944,48.536z"/>
	<path fill="#5B5C5F" d="M82.11,51.676v0.661l-0.66-0.496c-0.498,0.423-0.843,0.934-0.826,1.652c0.992-0.11,1.651,0,2.147,0.827
		v-2.148L82.11,51.676z"/>
</g>
<g>
	<circle fill="#32BEA6" cx="71.461" cy="23.964" r="9.75"/>
</g>
<g>
	<circle fill="#32BEA6" cx="113.067" cy="76.108" r="9.224"/>
</g>
<g>
	<g>
		<g>
			<path fill="#3E3E3F" d="M118.434,81.49l-0.671-1.847c-0.104-0.227-0.284-0.399-0.513-0.5l-2.174-0.84l-2.014,3.187H118.434
				L118.434,81.49z"/>
		</g>
	</g>
	<g>
		<path fill="#AF7653" d="M114.745,77.632L114.745,77.632L113.89,78.3c-0.099,0.107-0.231,0.168-0.376,0.168h-0.445h-0.443
			c-0.145,0-0.277-0.061-0.375-0.168l-0.854-0.67v0.504l-0.335,0.17l2.013,3.188l1.65-2.615
			C114.745,78.306,114.745,77.847,114.745,77.632z M113.067,79.479L113.067,79.479L113.067,79.479
			C113.067,79.478,113.068,79.478,113.067,79.479L113.067,79.479z"/>
	</g>
	<g>
		<g>
			<path fill="#FFFFFF" d="M114.745,77.632c0,0.502,0,2.348-0.334,3.854c2.18,0,2.348,0,2.348,0l-0.504-3.188L114.745,77.632z"/>
		</g>
	</g>
	<g>
		<g>
			<polygon fill="#E2E4E5" points="115.206,81.49 115.542,78.472 115.708,81.49 			"/>
		</g>
	</g>
	<g>
		<g>
			<path fill="#3E3E3F" d="M107.702,81.49l0.67-1.847c0.104-0.227,0.283-0.399,0.51-0.5l2.178-0.84l2.012,3.187H107.702
				L107.702,81.49z"/>
		</g>
	</g>
	<g>
		<path fill="#BF8662" d="M113.067,78.472h-0.443c-0.145,0-0.281-0.062-0.375-0.17l-0.854-0.67l0,0c0,0.217,0,0.674,0.021,1.244
			l1.65,2.613v-2.014h-0.001h0.001V78.472L113.067,78.472z"/>
	</g>
	<g>
		<g>
			<path fill="#FFFFFF" d="M111.39,77.632c0,0.502,0,2.348,0.336,3.854c-2.183,0-2.351,0-2.351,0l0.502-3.188L111.39,77.632z"/>
		</g>
	</g>
	<g>
		<g>
			<polygon fill="#E2E4E5" points="110.929,81.49 110.594,78.472 110.426,81.49 			"/>
		</g>
	</g>
	<g>
		<path fill="#BF8662" d="M115.583,74.615c-0.021,0-0.045,0.004-0.062,0.012l-0.271,0.812h-0.168v-1.342
			c-0.422,0-0.791-0.264-0.938-0.633c-0.393,0.207-0.824,0.594-1.077,0.279c-0.252,0.312-0.688-0.074-1.075-0.279
			c-0.146,0.369-0.507,0.633-0.927,0.633l-0.01,1.342h-0.168l-0.167-0.504v1.021l0.67,1.678l0.854,0.672
			c0.094,0.105,0.23,0.168,0.375,0.168h0.443h0.443c0.146,0,0.279-0.062,0.375-0.168l0.854-0.672l0.536-1.344
			c0.479-0.035,0.639-0.756,0.639-1.303C115.918,74.8,115.75,74.615,115.583,74.615z"/>
	</g>
	<g>
		<path fill="#CC9978" d="M111.991,73.466c-0.146,0.369-0.516,0.631-0.937,0.631v1.342h-0.168l-0.271-0.812
			c-0.021-0.008-0.039-0.012-0.066-0.012c-0.166,0-0.334,0.186-0.334,0.368c0,0.55,0.16,1.271,0.64,1.304l0.537,1.344l0.854,0.67
			c0.094,0.107,0.229,0.168,0.375,0.168h0.442v-4.723C112.815,74.06,112.379,73.673,111.991,73.466z"/>
	</g>
	<g>
		<g>
			<path fill="#84462D" d="M112.229,76.625h1.676c0,0,0,0.504-0.838,0.504S112.229,76.625,112.229,76.625z"/>
		</g>
	</g>
	<g>
		<g>
			<path fill="#3E3E3F" d="M112.563,74.955c0-0.187-0.148-0.334-0.335-0.334c0,0,0,0-0.001,0c0,0.002,0.001,0.006,0.001,0.01
				c0,0.187-0.147,0.334-0.334,0.334c0.005,0.183,0.149,0.326,0.334,0.326S112.563,75.142,112.563,74.955z"/>
		</g>
	</g>
	<g>
		<g>
			<path fill="#3E3E3F" d="M114.239,74.955c0-0.187-0.15-0.334-0.335-0.334h-0.001c0,0.002,0.001,0.006,0.001,0.01
				c0,0.187-0.149,0.334-0.334,0.334c0.007,0.183,0.152,0.326,0.334,0.326C114.088,75.291,114.239,75.142,114.239,74.955z"/>
		</g>
	</g>
	<g>
		<g>
			<path fill="#3E3E3F" d="M115.938,73.589c0.344-0.605-0.029-1.373-0.725-1.475c-0.104-0.695-0.875-1.066-1.479-0.719
				c-0.151-0.201-0.396-0.334-0.668-0.334s-0.515,0.133-0.667,0.334c-0.604-0.353-1.378,0.021-1.479,0.719
				c-0.689,0.102-1.062,0.867-0.721,1.475c-0.094,0.105-0.148,0.258-0.148,0.424c0,0.334,0.24,0.639,0.56,0.576l0.282,0.85h0.168
				v-1.342c0.421,0,0.789-0.262,0.938-0.631c0.39,0.207,0.822,0.592,1.076,0.279c0.254,0.312,0.688-0.074,1.076-0.279
				c0.146,0.369,0.516,0.631,0.936,0.631v1.342h0.168l0.283-0.85c0.312,0.061,0.558-0.238,0.558-0.576
				C116.086,73.847,116.028,73.694,115.938,73.589z"/>
		</g>
	</g>
	<g>
		<g>
			<rect x="110.049" y="73.425" fill="#FA5655" width="6.037" height="1.008"/>
		</g>
	</g>
	<g>
		<g>
			<rect x="113.067" y="73.425" fill="#7D261E" width="3.02" height="1.008"/>
		</g>
	</g>
</g>
<g>
	<g>
		<g>
			<path fill="#FBE158" d="M76.426,27.687c-0.106-0.236-0.301-0.424-0.537-0.529l-2.12-0.712h-2.308h-2.308l-2.118,0.712
				c-0.238,0.104-0.432,0.292-0.539,0.529l-0.709,1.95h5.672h5.674L76.426,27.687z"/>
		</g>
	</g>
	<g>
		<g>
			<path fill="#FFFFFF" d="M71.461,28.225c0.688,0,2.309-0.177,2.309-1.241c0-0.12,0-0.317,0-0.544h-0.532v0.544
				c0,0-0.354,0.709-1.772,0.709s-1.771-0.709-1.771-0.709V26.44h-0.53c0,0.228,0,0.425,0,0.544
				C69.159,28.048,70.779,28.225,71.461,28.225z"/>
		</g>
	</g>
	<g>
		<g>
			<path fill="#F3B607" d="M67.543,26.989l-0.506,0.169c-0.238,0.104-0.432,0.292-0.539,0.529l-0.709,1.95h2.109L67.543,26.989z"/>
		</g>
	</g>
	<g>
		<g>
			<path fill="#F3B607" d="M75.381,26.989l0.509,0.169c0.235,0.104,0.43,0.292,0.536,0.529l0.713,1.95h-2.112L75.381,26.989z"/>
		</g>
	</g>
	<g>
		<path fill="#F4D0A1" d="M71.933,26.269h-0.474h-0.469c-0.152,0-0.299-0.065-0.398-0.178l-0.901-0.708v1.602
			c0,0,0.354,0.709,1.771,0.709c1.418,0,1.772-0.709,1.772-0.709v-1.602l-0.903,0.708C72.229,26.204,72.084,26.269,71.933,26.269z"
			/>
	</g>
	<g>
		<path fill="#F8E1C2" d="M70.595,26.091l-0.905-0.708v1.602c0,0,0.354,0.709,1.771,0.709V26.27h-0.471
			C70.84,26.269,70.695,26.204,70.595,26.091z"/>
	</g>
	<g>
		<path fill="#F8E1C2" d="M74.284,22.253c-0.033,0.312-0.146,0.832-0.518,0.832c0-0.532,0-1.418,0-1.418s-0.18,0.709-0.889,0.709
			c0-0.709,0-1.95,0-1.95s-0.354,1.95-1.771,1.95c0-0.354,0-1.241,0-1.241s-0.531,1.241-1.24,1.241c0-0.531,0-1.063,0-1.063
			L69.159,22.2v0.886c0,0-0.08-0.054-0.179-0.16v0.685l0.709,1.773l0.903,0.708c0.103,0.113,0.244,0.178,0.396,0.178h0.472h0.475
			c0.148,0,0.296-0.065,0.396-0.178l0.903-0.708l0.562-1.416c0.509-0.033,0.68-0.797,0.68-1.375
			C74.476,22.458,74.393,22.325,74.284,22.253z"/>
	</g>
	<g>
		<path fill="#FCF1E2" d="M71.108,22.375c0-0.354,0-1.241,0-1.241s-0.531,1.241-1.24,1.241c0-0.531,0-1.063,0-1.063l-0.709,0.887
			v0.886c0,0-0.42-0.281-0.514-0.841c-0.109,0.071-0.195,0.206-0.195,0.342c0,0.577,0.17,1.339,0.672,1.375l0.567,1.422l0.905,0.708
			c0.101,0.113,0.242,0.178,0.396,0.178h0.471v-3.938C71.353,22.359,71.234,22.375,71.108,22.375z"/>
	</g>
	<g>
		<g>
			<path fill="#53BAD4" d="M70.577,24.325h1.771c0,0,0,0.532-0.891,0.532C70.577,24.857,70.577,24.325,70.577,24.325z"/>
		</g>
	</g>
	<g>
		<g>
			<path fill="#3E3E3F" d="M74.299,22.021c0-1.762-1.071-3.191-2.836-3.191c-1.762,0-2.836,1.429-2.836,3.191
				c0,0.709,0.531,1.064,0.531,1.064v-0.886l0.709-0.887c0,0,0,0.532,0,1.063c0.709,0,1.239-1.241,1.239-1.241s0,0.886,0,1.241
				c1.418,0,1.771-1.95,1.771-1.95s0,1.241,0,1.95c0.709,0,0.89-0.709,0.89-0.709s0,0.887,0,1.418
				C74.299,23.084,74.299,22.021,74.299,22.021z"/>
		</g>
	</g>
	<g>
		<g>
			<path fill="#3E3E3F" d="M72.527,22.781c0.211,0,0.396,0.047,0.528,0.12c0.013-0.101-0.03-0.205-0.135-0.282
				c-0.186-0.138-0.479-0.138-0.659,0c-0.082,0.062-0.125,0.142-0.136,0.224C72.243,22.804,72.379,22.781,72.527,22.781z"/>
		</g>
	</g>
	<g>
		<g>
			<path fill="#3E3E3F" d="M70.399,22.781c-0.211,0-0.396,0.047-0.527,0.12c-0.014-0.101,0.029-0.205,0.133-0.282
				c0.187-0.138,0.479-0.138,0.662,0c0.082,0.062,0.125,0.142,0.133,0.224C70.685,22.804,70.547,22.781,70.399,22.781z"/>
		</g>
	</g>
</g>
<g>
	<circle fill="#FABC3D" cx="80.547" cy="96.851" r="9.25"/>
</g>
<g>
	<g>
		<path fill="#84462D" d="M83.406,97.354c0-1.349,0-2.688,0-2.688c0-1.578-1.278-2.854-2.858-2.854
			c-1.577,0-2.854,1.276-2.854,2.854c0,0,0,1.347,0,2.688c0,1.686-1.519,1.35-1.519,1.35s0.168,1.346,2.354,1.346
			c1.712,0,1.979,0,2.017,0h0.002c0.027,0,0.269,0,2.021,0c2.188,0,2.354-1.346,2.354-1.346S83.406,99.035,83.406,97.354z"/>
	</g>
	<g>
		<path fill="#9C6144" d="M77.688,94.664c0,0,0,1.344,0,2.688c0,1.683-1.518,1.347-1.518,1.347s0.168,1.346,2.354,1.346
			c1.711,0,1.979,0,2.018,0h0.002v-8.239C78.967,91.806,77.688,93.083,77.688,94.664z"/>
	</g>
	<g>
		<path fill="#40C9E7" d="M85.325,100.662c-0.148-0.392-0.472-0.688-0.869-0.808l-2.228-0.481h-1.685H78.86l-2.229,0.481
			c-0.396,0.119-0.721,0.416-0.867,0.808l-0.604,1.567h5.381h5.385L85.325,100.662z"/>
	</g>
	<g>
		<g>
			<g>
				<path fill="#FFFFFF" d="M78.361,99.96c0,0.314,0.251,0.572,0.562,0.586c-0.032,0.076-0.061,0.162-0.061,0.254
					c0,0.316,0.252,0.572,0.562,0.586c-0.036,0.076-0.062,0.162-0.062,0.256c0,0.322,0.266,0.588,0.59,0.588
					c0.082,0,0.158-0.018,0.229-0.047l-1.319-2.805C78.583,99.419,78.361,99.664,78.361,99.96z"/>
			</g>
		</g>
	</g>
	<g>
		<g>
			<g>
				<path fill="#FFFFFF" d="M82.733,99.96c0,0.314-0.251,0.572-0.562,0.586c0.037,0.076,0.062,0.162,0.062,0.254
					c0,0.316-0.251,0.572-0.562,0.586c0.039,0.076,0.062,0.162,0.062,0.256c0,0.322-0.269,0.588-0.589,0.588
					c-0.082,0-0.159-0.018-0.229-0.047l1.318-2.805C82.512,99.419,82.733,99.664,82.733,99.96z"/>
			</g>
		</g>
	</g>
	<g>
		<path fill="#F7B4B4" d="M80.547,99.205v3.024h0.336l1.348-2.856v-1.438C81.75,98.669,81.1,99.021,80.547,99.205z"/>
	</g>
	<g>
		<path fill="#FBC8C8" d="M78.866,97.933v1.438l1.346,2.856h0.336v-3.024C79.995,99.021,79.342,98.669,78.866,97.933z"/>
	</g>
	<g>
		<path fill="#FBC8C8" d="M83.07,95.167c-0.046,0-0.104,0-0.168,0c0-0.002,0-0.002,0-0.004c0-0.32-0.009-0.631-0.042-0.924
			c-0.105,0.342-0.422,0.592-0.799,0.592c-0.334,0-0.622-0.197-0.757-0.479c-0.138,0.28-0.425,0.479-0.761,0.479
			c-0.334,0-0.621-0.197-0.756-0.479c-0.138,0.28-0.422,0.479-0.759,0.479c-0.378,0-0.69-0.25-0.8-0.592
			c-0.032,0.293-0.041,0.604-0.042,0.924c0,0,0,0.002,0,0.004c-0.062,0-0.122,0-0.168,0c-0.168,0-0.336,0.188-0.336,0.373
			c0,0.521,0.146,1.199,0.703,1.295c0.405,1.531,1.382,2.107,2.151,2.367c0.773-0.26,1.746-0.836,2.156-2.367
			c0.559-0.096,0.702-0.773,0.702-1.295C83.406,95.354,83.238,95.167,83.07,95.167z"/>
	</g>
	<g>
		<g>
			<circle fill="#9CE5F4" cx="77.352" cy="100.548" r="0.336"/>
		</g>
	</g>
	<g>
		<g>
			<circle fill="#9CE5F4" cx="78.193" cy="101.56" r="0.336"/>
		</g>
	</g>
	<g>
		<g>
			<circle fill="#9CE5F4" cx="76.174" cy="101.56" r="0.336"/>
		</g>
	</g>
	<g>
		<g>
			<circle fill="#9CE5F4" cx="83.743" cy="100.548" r="0.336"/>
		</g>
	</g>
	<g>
		<g>
			<circle fill="#9CE5F4" cx="82.902" cy="101.56" r="0.336"/>
		</g>
	</g>
	<g>
		<g>
			<circle fill="#9CE5F4" cx="84.92" cy="101.56" r="0.336"/>
		</g>
	</g>
	<g>
		<path fill="#E1F5FA" d="M79.792,94.353c-0.137,0.281-0.422,0.479-0.758,0.479c-0.377,0-0.691-0.25-0.8-0.595
			c-0.032,0.296-0.041,0.604-0.042,0.927c0,0,0,0.002,0,0.004c-0.062,0-0.122,0-0.168,0c-0.168,0-0.336,0.188-0.336,0.373
			c0,0.521,0.146,1.196,0.703,1.295c0.406,1.531,1.382,2.106,2.152,2.367V94.83C80.213,94.832,79.926,94.634,79.792,94.353z"/>
	</g>
	<g>
		<g>
			<path fill="#53BAD4" d="M79.706,97.354h1.688c0,0,0,0.506-0.846,0.506C79.708,97.858,79.706,97.354,79.706,97.354z"/>
		</g>
	</g>
	<g>
		<g>
			<path fill="#3E3E3F" d="M81.725,94.832c-0.439,0-0.887,0.293-0.887,0.293h-0.293H80.25c0,0-0.438-0.293-0.883-0.293
				c-0.736,0-1.179,0.293-1.179,0.293v0.146h0.146c0,0.883,0.293,1.326,1.062,1.326c0.768,0,0.928-0.736,0.928-0.938
				c0-0.205,0.221-0.238,0.221-0.238s0.225,0.033,0.225,0.238c0,0.201,0.16,0.938,0.926,0.938c0.768,0,1.062-0.443,1.062-1.326
				h0.146v-0.146C82.902,95.125,82.459,94.832,81.725,94.832z"/>
		</g>
		<g>
			<g>
				<path fill="#9E9FA0" d="M79.37,95.125c-0.406,0-0.736,0.185-0.736,0.59c0,0.188,0.074,0.361,0.193,0.492l0.983-0.983
					C79.688,95.158,79.538,95.125,79.37,95.125z"/>
			</g>
		</g>
		<g>
			<g>
				<path fill="#9E9FA0" d="M81.725,95.125c-0.406,0-0.736,0.185-0.736,0.59c0,0.188,0.074,0.361,0.192,0.492l0.981-0.983
					C82.042,95.158,81.891,95.125,81.725,95.125z"/>
			</g>
		</g>
	</g>
</g>
<path d="M103.782,25.266c1.178-1.177,2.328-1.993,3.381-2.92c1.03-0.909,2.074-1.802,3.135-2.68
	c1.082-0.894,2.188-1.759,3.492-2.804c-0.457,0.012-0.684-0.048-0.826,0.033c-0.354,0.204-0.692,0.452-1.012,0.717
	c-2.619,2.196-5.228,4.408-7.852,6.599c-0.568,0.475-1.193,0.883-1.859,1.372c0.127,0.104,0.225,0.24,0.354,0.276
	c0.194,0.058,0.411,0.068,0.616,0.061c1.688-0.055,3.312,0.338,4.963,0.568c0.062,0.008,0.117,0.092,0.24,0.195
	c-0.414,0.434-0.994,0.565-1.474,0.853c-0.537,0.321-1.08,0.632-1.612,0.961c-0.496,0.306-0.992,0.618-1.471,0.95
	c-0.479,0.332-0.943,0.688-1.404,1.043c-0.463,0.355-0.925,0.715-1.375,1.086c-0.479,0.398-0.959,0.802-1.426,1.22
	c-0.438,0.39-0.854,0.797-1.275,1.203c-0.416,0.402-0.83,0.811-1.229,1.202c0.014,0.298,0.171,0.391,0.409,0.375
	c1.037-0.074,2.069-0.183,3.108-0.218c0.858-0.029,1.734-0.085,2.567,0.206c-0.015,0.481-0.382,0.479-0.619,0.581
	c-2.817,1.214-5.382,2.837-7.727,4.809c-1.373,1.154-2.733,2.32-4.103,3.486c-0.156,0.133-0.289,0.294-0.39,0.396
	c-0.354-0.17-0.237-0.333-0.17-0.457c0.224-0.401,0.462-0.792,0.692-1.188c0.178-0.296,0.305-0.598,0.078-1.011
	c-0.129,0.077-0.307,0.121-0.371,0.231c-0.359,0.608-0.691,1.235-1.045,1.849c-0.521,0.904-1.055,1.798-1.562,2.708
	c-0.107,0.197-0.129,0.443-0.232,0.829c0.332-0.156,0.536-0.202,0.68-0.326c0.604-0.531,1.287-0.91,2.01-1.254
	c1.016-0.485,2.011-1.013,3.014-1.527c0.105-0.057,0.211-0.135,0.289-0.227c0.043-0.051,0.057-0.164,0.03-0.227
	c-0.024-0.063-0.122-0.143-0.183-0.138c-0.158,0.016-0.326,0.048-0.473,0.118c-0.521,0.257-1.035,0.539-1.561,0.799
	c-0.209,0.104-0.438,0.175-0.646,0.258c-0.155-0.274,0.021-0.377,0.13-0.47c2.172-1.822,4.256-3.753,6.574-5.392
	c1.951-1.378,4.039-2.5,6.335-3.21c0.321-0.099,0.861-0.073,0.802-0.597c-0.047-0.396-0.514-0.36-0.818-0.438
	c-1.514-0.384-3.055-0.379-4.6-0.305c-0.242,0.012-0.484,0.004-0.699,0.006c-0.195-0.295,0-0.443,0.129-0.574
	c2.168-2.218,4.578-4.125,7.256-5.698c1.119-0.658,2.271-1.223,3.501-1.642c0.271-0.094,0.54-0.201,0.589-0.607
	c-0.479-0.346-1.043-0.256-1.553-0.361c-0.487-0.102-0.986-0.161-1.481-0.232c-0.536-0.079-1.073-0.148-1.61-0.226
	C105.025,25.453,104.536,25.378,103.782,25.266z"/>
<rect x="86.978" y="7.965" fill="none" width="44.908" height="18.764"/>
<text transform="matrix(1 0 0 1 84.2671 13.7412)" font-family="'DKCrayonCrumble'" font-size="12">your hero</text>
<path d="M34.861,86.015c-1.369,0.943-2.648,1.541-3.849,2.267c-1.182,0.711-2.366,1.399-3.566,2.073
	c-1.224,0.688-2.468,1.338-3.938,2.131c0.453,0.07,0.663,0.171,0.818,0.115c0.389-0.137,0.767-0.315,1.125-0.521
	c2.971-1.688,5.933-3.397,8.907-5.084c0.646-0.365,1.333-0.654,2.077-1.019c-0.106-0.125-0.182-0.272-0.298-0.334
	c-0.185-0.094-0.396-0.143-0.6-0.172c-1.665-0.248-3.199-0.928-4.779-1.449c-0.062-0.021-0.101-0.108-0.2-0.231
	c0.483-0.354,1.079-0.377,1.603-0.574c0.585-0.219,1.176-0.428,1.759-0.653c0.543-0.211,1.086-0.433,1.617-0.67
	c0.531-0.24,1.052-0.511,1.57-0.771c0.521-0.268,1.036-0.539,1.546-0.822c0.547-0.306,1.089-0.615,1.621-0.943
	c0.499-0.307,0.981-0.631,1.472-0.953c0.481-0.317,0.961-0.646,1.424-0.961c0.042-0.297-0.099-0.416-0.335-0.438
	c-1.034-0.114-2.07-0.19-3.102-0.348c-0.854-0.125-1.727-0.229-2.49-0.661c0.101-0.473,0.461-0.401,0.713-0.461
	c2.989-0.688,5.803-1.823,8.464-3.346c1.56-0.891,3.105-1.793,4.657-2.693c0.177-0.104,0.336-0.235,0.452-0.317
	c0.32,0.229,0.176,0.369,0.086,0.479c-0.291,0.354-0.598,0.693-0.897,1.043c-0.225,0.262-0.401,0.535-0.259,0.979
	c0.145-0.053,0.323-0.062,0.408-0.16c0.465-0.529,0.903-1.092,1.359-1.633c0.671-0.795,1.355-1.58,2.021-2.383
	c0.146-0.179,0.207-0.414,0.379-0.771c-0.354,0.095-0.562,0.104-0.725,0.196c-0.688,0.414-1.43,0.664-2.2,0.873
	c-1.086,0.295-2.159,0.638-3.237,0.961c-0.113,0.037-0.229,0.099-0.323,0.175c-0.054,0.039-0.085,0.147-0.071,0.217
	c0.016,0.063,0.096,0.162,0.153,0.168c0.157,0.015,0.328,0.013,0.48-0.03c0.562-0.159,1.115-0.345,1.677-0.506
	c0.227-0.065,0.459-0.097,0.681-0.14c0.104,0.299-0.083,0.364-0.211,0.438c-2.466,1.401-4.858,2.929-7.438,4.125
	c-2.167,1.005-4.421,1.733-6.809,2.021c-0.334,0.041-0.86-0.082-0.896,0.442c-0.023,0.396,0.438,0.442,0.729,0.578
	c1.419,0.646,2.936,0.922,4.468,1.125c0.242,0.028,0.479,0.084,0.688,0.117c0.143,0.325-0.078,0.438-0.229,0.545
	c-2.531,1.793-5.245,3.233-8.16,4.305c-1.22,0.445-2.457,0.795-3.739,0.986c-0.284,0.043-0.564,0.103-0.688,0.487
	c0.409,0.427,0.979,0.438,1.462,0.638c0.463,0.188,0.942,0.334,1.418,0.491c0.513,0.178,1.029,0.338,1.544,0.515
	C33.672,85.604,34.14,85.769,34.861,86.015z"/>
<path d="M113.534,83.326c1.371,0.942,2.385,1.926,3.486,2.791c1.082,0.85,2.148,1.713,3.207,2.596
	c1.076,0.897,2.128,1.83,3.395,2.922c-0.096-0.446-0.076-0.678-0.184-0.805c-0.268-0.313-0.57-0.604-0.893-0.865
	c-2.635-2.176-5.283-4.336-7.918-6.521c-0.566-0.473-1.084-1.012-1.688-1.579c-0.08,0.146-0.192,0.266-0.207,0.397
	c-0.021,0.199,0.011,0.416,0.056,0.615c0.357,1.646,0.271,3.316,0.344,4.98c0.008,0.062-0.064,0.135-0.146,0.271
	c-0.502-0.33-0.734-0.875-1.104-1.293c-0.414-0.469-0.815-0.945-1.236-1.408c-0.395-0.436-0.788-0.863-1.202-1.271
	c-0.414-0.412-0.851-0.807-1.28-1.193c-0.435-0.391-0.873-0.773-1.317-1.148c-0.479-0.401-0.964-0.799-1.459-1.183
	c-0.464-0.354-0.938-0.692-1.414-1.032c-0.474-0.338-0.946-0.668-1.403-0.99c-0.292,0.063-0.354,0.24-0.294,0.472
	c0.263,1.006,0.56,2.006,0.776,3.021c0.189,0.84,0.4,1.688,0.271,2.562c-0.479,0.072-0.54-0.289-0.688-0.504
	c-1.707-2.553-3.771-4.771-6.135-6.723c-1.386-1.144-2.778-2.269-4.176-3.396c-0.158-0.129-0.342-0.229-0.46-0.312
	c0.104-0.381,0.283-0.295,0.417-0.25c0.438,0.146,0.863,0.312,1.295,0.47c0.322,0.114,0.643,0.188,1.008-0.104
	c-0.101-0.115-0.176-0.279-0.295-0.324c-0.664-0.246-1.342-0.459-2.01-0.689c-0.982-0.346-1.959-0.707-2.945-1.041
	c-0.213-0.072-0.459-0.045-0.854-0.078c0.214,0.297,0.296,0.49,0.441,0.604c0.631,0.496,1.127,1.104,1.602,1.746
	c0.661,0.91,1.359,1.793,2.05,2.688c0.075,0.095,0.171,0.187,0.274,0.244c0.06,0.028,0.173,0.022,0.229-0.015
	c0.059-0.039,0.118-0.146,0.104-0.203c-0.044-0.151-0.104-0.312-0.199-0.438c-0.351-0.469-0.722-0.922-1.069-1.387
	c-0.142-0.188-0.25-0.396-0.369-0.586c0.239-0.203,0.373-0.055,0.484,0.041c2.188,1.803,4.467,3.5,6.499,5.48
	c1.71,1.668,3.19,3.52,4.312,5.646c0.156,0.299,0.229,0.836,0.732,0.678c0.381-0.112,0.26-0.565,0.28-0.887
	c0.104-1.56-0.185-3.07-0.538-4.576c-0.059-0.233-0.096-0.479-0.135-0.688c0.257-0.248,0.438-0.082,0.59,0.021
	c2.574,1.729,4.893,3.75,6.926,6.1c0.852,0.979,1.616,2.012,2.252,3.146c0.143,0.252,0.296,0.491,0.704,0.469
	c0.253-0.532,0.062-1.071,0.069-1.592c0.015-0.5-0.021-1-0.041-1.5c-0.021-0.543-0.051-1.084-0.069-1.625
	C113.577,84.582,113.561,84.085,113.534,83.326z"/>
<rect x="111.854" y="93.173" fill="none" width="20.033" height="10.85"/>
<text transform="matrix(1 0 0 1 114.8765 101.2744)" font-family="'DKCrayonCrumble'" font-size="12">you!</text>
<path d="M62.512,18.592c-0.394-0.18-0.697-0.115-0.986-0.158c-0.194-0.028-0.511-0.096-0.545-0.211
	c-0.167-0.584-0.711-0.575-1.108-0.791c-0.355-0.194-0.727-0.369-1.079-0.573c-0.043-0.024-0.026-0.183-0.006-0.27
	c0.01-0.04,0.122-0.092,0.165-0.077c0.191,0.067,0.378,0.153,0.563,0.24c1.276,0.593,2.61,0.985,4.001,1.245
	c0.504,0.094,1.002,0.145,1.506,0.194c0.172,0.017,0.337,0.087,0.324,0.316c-0.043,0.046-0.091,0.133-0.128,0.131
	c-0.53-0.03-1,0.135-1.466,0.38c-0.877,0.463-1.794,0.854-2.532,1.54c-0.114,0.105-0.267,0.11-0.354-0.017
	c-0.043-0.064-0.035-0.219,0.019-0.284c0.204-0.268,0.438-0.518,0.65-0.765c-0.072-0.315-0.315-0.248-0.495-0.235
	c-1.749,0.122-3.486,0.014-5.22-0.223c-0.64-0.086-1.283-0.241-1.885-0.468c-2.409-0.91-4.704-2.066-6.858-3.465
	c-0.908-0.589-1.685-1.391-2.48-2.136c-0.347-0.32-0.572-0.75-0.5-1.323c0.303,0.04,0.562,0.074,0.859,0.113
	c0.32,0.756,0.79,1.42,1.326,2.047c0.339,0.397,0.729,0.726,1.172,0.985c2.343,1.378,4.831,2.407,7.469,3.091
	c1.161,0.301,2.316,0.616,3.517,0.696c1.229,0.083,2.459,0.1,3.688,0.14C62.215,18.716,62.305,18.66,62.512,18.592z"/>
<path d="M36.892,34.052c-0.229-0.365-0.202-0.677-0.281-0.958c-0.053-0.189-0.159-0.495-0.278-0.514
	c-0.601-0.091-0.66-0.633-0.924-1c-0.238-0.331-0.458-0.674-0.705-0.998c-0.03-0.04-0.186-0.006-0.27,0.027
	c-0.038,0.016-0.076,0.132-0.059,0.173c0.091,0.182,0.2,0.356,0.312,0.529c0.75,1.194,1.308,2.468,1.737,3.812
	c0.157,0.488,0.271,0.976,0.386,1.47c0.038,0.169,0.129,0.323,0.354,0.282c0.04-0.048,0.121-0.104,0.113-0.144
	c-0.097-0.522,0.009-1.008,0.19-1.499c0.351-0.929,0.62-1.888,1.208-2.709c0.092-0.126,0.075-0.275-0.062-0.346
	c-0.069-0.035-0.223-0.007-0.279,0.051c-0.237,0.239-0.458,0.5-0.676,0.744c-0.322-0.031-0.286-0.284-0.296-0.461
	c-0.101-1.75-0.428-3.463-0.882-5.15c-0.166-0.623-0.4-1.242-0.702-1.81c-1.207-2.274-2.646-4.405-4.305-6.367
	c-0.699-0.827-1.594-1.495-2.435-2.194c-0.358-0.3-0.813-0.472-1.375-0.329c0.078,0.295,0.146,0.549,0.224,0.84
	c0.791,0.223,1.509,0.604,2.195,1.057c0.438,0.287,0.812,0.633,1.125,1.039c1.664,2.15,2.998,4.488,4.013,7.018
	c0.442,1.114,0.901,2.22,1.134,3.398c0.235,1.208,0.41,2.427,0.604,3.642C36.978,33.742,36.933,33.838,36.892,34.052z"/>
<rect x="20.868" y="2.484" fill="none" width="59.265" height="11.891"/>
<text transform="matrix(1 0 0 1 16.6816 8.957)" font-family="'DKCrayonCrumble'" font-size="12">your friends</text>
<rect x="9.302" y="97.708" fill="none" width="44.741" height="12.188"/>
<text transform="matrix(1 0 0 1 15.1162 105.1113)" font-family="'DKCrayonCrumble'" font-size="12">your code</text>
</svg>
