<?xml version="1.0" encoding="utf-8"?>
<!-- Generator: Adobe Illustrator 16.0.0, SVG Export Plug-In . SVG Version: 6.00 Build 0)  -->
<!DOCTYPE svg PUBLIC "-//W3C//DTD SVG 1.1//EN" "http://www.w3.org/Graphics/SVG/1.1/DTD/svg11.dtd">
<svg version="1.1" id="Layer_1" xmlns="http://www.w3.org/2000/svg" xmlns:xlink="http://www.w3.org/1999/xlink" x="0px" y="0px"
	 width="260px" height="260px" viewBox="0 0 260 260" enable-background="new 0 0 260 260" xml:space="preserve">
<g>
	<path fill="#35BAA4" d="M62.459,150.854c-7.417-24.77-1.651-52.705,17.713-72.492c28.27-28.892,74.613-29.394,103.504-1.122
		c28.896,28.271,29.397,74.615,1.123,103.506c-19.431,19.857-47.395,26.289-72.368,19.195c-4.331-0.978-10.832,0.908-13.217,7.014
		c-2.01,5.139,1.152,11.402,6.839,13.102c32.412,9.658,68.526,1.291,93.82-24.553c36.423-37.227,35.775-96.92-1.443-133.34
		C161.21,25.742,101.515,26.39,65.092,63.61C40.027,89.223,32.9,125.369,42.429,157.467c1.405,4.734,7.082,9.268,13.326,7.35
		C62.599,162.715,63.481,154.277,62.459,150.854z"/>
	<path fill="#F9BB3C" d="M143.831,179.877c-17.363,3.809-36.204-1.586-48.766-15.877c-18.337-20.859-16.295-52.642,4.572-70.984
		c20.862-18.341,52.64-16.293,70.987,4.567c12.601,14.344,15.567,33.838,9.417,50.579c-0.891,2.922,0.062,7.473,4.125,9.42
		c3.423,1.646,7.872-0.199,9.329-4.01c8.29-21.707,4.425-46.888-11.989-65.554c-23.627-26.88-64.566-29.514-91.444-5.887
		c-26.873,23.625-29.511,64.562-5.884,91.441c16.256,18.498,40.66,25.246,63.151,20.373c3.31-0.719,6.713-4.377,5.721-8.756
		C151.961,180.398,146.225,179.355,143.831,179.877z"/>
	<path fill="#DF4E5E" d="M222.548,179.369c-17.511,31.904-51.403,53.539-90.368,53.539c-56.9,0-103.022-46.121-103.022-103.022
		c0-56.896,46.123-103.024,103.022-103.024c39.112,0,73.106,21.806,90.555,53.906c1.916,3.343,6.863,9.553,17.139,4.968
		c6.514-2.908,9.414-9.351,6.248-15.222C223.545,28.608,183.096,6.551,132.18,6.551C67.731,6.551,8.843,56.593,8.843,129.886
		c0,73.298,56.458,124.903,123.337,124.903c50.441,0,89.18-22.141,112.051-63.344c3.836-6.91,0.647-12.57-4.422-15.627
		C233.977,172.305,226.275,172.564,222.548,179.369z"/>
</g>
</svg>
