<?xml version="1.0" encoding="utf-8"?>
<!-- Generator: Adobe Illustrator 16.0.0, SVG Export Plug-In . SVG Version: 6.00 Build 0)  -->
<!DOCTYPE svg PUBLIC "-//W3C//DTD SVG 1.1//EN" "http://www.w3.org/Graphics/SVG/1.1/DTD/svg11.dtd">
<svg version="1.1" id="Layer_1" xmlns="http://www.w3.org/2000/svg" xmlns:xlink="http://www.w3.org/1999/xlink" x="0px" y="0px"
	 width="35.851px" height="37.303px" viewBox="19.353 19.071 35.851 37.303" enable-background="new 19.353 19.071 35.851 37.303"
	 xml:space="preserve">
<g>
	<path fill="#FFEB3B" d="M27.408,40.756c-1.115-3.722-0.247-7.921,2.663-10.893c4.248-4.343,11.211-4.417,15.554-0.169
		c4.342,4.249,4.418,11.213,0.17,15.555c-2.92,2.983-7.123,3.95-10.876,2.883c-0.651-0.146-1.629,0.137-1.987,1.055
		c-0.301,0.771,0.174,1.712,1.028,1.967c4.872,1.453,10.299,0.195,14.099-3.688c5.476-5.595,5.379-14.565-0.215-20.04
		c-5.594-5.473-14.565-5.374-20.038,0.218c-3.767,3.85-4.839,9.282-3.406,14.106c0.211,0.709,1.064,1.391,2.003,1.104
		C27.43,42.539,27.563,41.271,27.408,40.756z"/>
	<path fill="#FFC107" d="M39.636,45.118c-2.607,0.573-5.439-0.237-7.328-2.385c-2.756-3.135-2.448-7.911,0.689-10.669
		c3.134-2.755,7.908-2.446,10.667,0.687c1.896,2.157,2.339,5.085,1.415,7.602c-0.133,0.439,0.011,1.124,0.621,1.416
		c0.515,0.248,1.183-0.031,1.402-0.602c1.244-3.262,0.663-7.048-1.803-9.854c-3.549-4.039-9.702-4.435-13.741-0.883
		c-4.039,3.549-4.435,9.702-0.886,13.741c2.444,2.78,6.113,3.794,9.492,3.062c0.497-0.107,1.008-0.658,0.859-1.314
		C40.858,45.196,39.997,45.039,39.636,45.118z"/>
	<path fill="#9DBB72" d="M51.466,45.042c-2.63,4.795-7.725,8.044-13.579,8.044c-8.553,0-15.482-6.93-15.482-15.481
		c0-8.549,6.929-15.481,15.482-15.481c5.876,0,10.986,3.277,13.607,8.1c0.288,0.503,1.032,1.436,2.576,0.746
		c0.979-0.436,1.417-1.403,0.939-2.287c-3.392-6.297-9.472-9.611-17.121-9.611c-9.687,0-18.536,7.52-18.536,18.534
		c0,11.015,8.483,18.77,18.536,18.77c7.579,0,13.4-3.326,16.837-9.518c0.577-1.04,0.097-1.891-0.664-2.349
		C53.183,43.979,52.026,44.018,51.466,45.042z"/>
</g>
</svg>
