<?xml version="1.0" encoding="utf-8"?>
<!-- Generator: Adobe Illustrator 16.0.0, SVG Export Plug-In . SVG Version: 6.00 Build 0)  -->
<!DOCTYPE svg PUBLIC "-//W3C//DTD SVG 1.1//EN" "http://www.w3.org/Graphics/SVG/1.1/DTD/svg11.dtd">
<svg version="1.1" id="Layer_1" xmlns="http://www.w3.org/2000/svg" xmlns:xlink="http://www.w3.org/1999/xlink" x="0px" y="0px"
	 width="635.527px" height="205.307px" viewBox="0 0 635.527 205.307" enable-background="new 0 0 635.527 205.307"
	 xml:space="preserve">
<g>
	<path fill="#58595B" d="M251.637,103.788v-0.253c0-18.908,14.621-34.792,34.664-34.792c10.463,0,17.649,3.403,23.323,8.32
		c1.006,0.882,2.397,2.771,2.397,5.294c0,3.907-3.152,6.933-7.064,6.933c-1.889,0-3.527-0.757-4.537-1.513
		c-3.907-3.278-8.194-5.673-14.243-5.673c-11.094,0-19.288,9.581-19.288,21.179v0.251c0,11.85,8.194,21.304,19.92,21.304
		c6.048,0,10.715-2.395,14.873-5.924c0.883-0.756,2.397-1.639,4.159-1.639c3.655,0,6.556,3.025,6.556,6.681
		c0,2.018-0.756,3.655-2.142,4.79c-5.925,5.673-13.111,9.456-24.205,9.456C266.258,138.203,251.637,122.698,251.637,103.788z"/>
	<path fill="#58595B" d="M325.77,52.229c0-4.537,3.778-7.438,8.696-7.438c4.917,0,8.697,2.899,8.697,7.438v0.757
		c0,4.538-3.78,7.562-8.697,7.562c-4.918,0-8.696-3.024-8.696-7.562V52.229z M326.902,77.064c0-4.287,3.275-7.69,7.562-7.69
		c4.286,0,7.689,3.403,7.689,7.69v52.691c0,4.286-3.403,7.564-7.689,7.564c-4.158,0-7.562-3.278-7.562-7.564V77.064z"/>
	<path fill="#58595B" d="M360.816,77.064c0-4.287,3.276-7.69,7.562-7.69c4.287,0,7.689,3.403,7.689,7.69v4.16
		c4.92-6.934,11.851-12.48,22.692-12.48c15.632,0,30.886,12.354,30.886,34.541v0.251c0,22.062-15.13,34.541-30.886,34.541
		c-11.095,0-18.024-5.546-22.692-11.723v23.572c0,4.285-3.402,7.563-7.689,7.563c-4.158,0-7.562-3.278-7.562-7.563V77.064z
		 M414.143,103.535v-0.251c0-12.858-8.701-21.305-19.035-21.305c-10.34,0-19.418,8.572-19.418,21.305v0.251
		c0,12.733,9.078,21.304,19.418,21.304C405.569,124.839,414.143,116.646,414.143,103.535z"/>
	<path fill="#58595B" d="M444.149,51.599c0-4.16,3.278-7.563,7.565-7.563s7.69,3.404,7.69,7.563v28.74
		c4.282-6.176,10.463-11.597,20.799-11.597c15.001,0,23.697,10.085,23.697,25.464v35.549c0,4.286-3.275,7.564-7.562,7.564
		c-4.286,0-7.689-3.278-7.689-7.564V98.871c0-10.337-5.171-16.261-14.241-16.261c-8.826,0-15.002,6.177-15.002,16.515v30.632
		c0,4.286-3.403,7.564-7.69,7.564c-4.163,0-7.565-3.278-7.565-7.564L444.149,51.599L444.149,51.599z"/>
	<path fill="#58595B" d="M551.564,138.203c-19.288,0-34.161-13.994-34.161-34.541v-0.253c0-19.035,13.485-34.666,32.521-34.666
		c21.178,0,31.642,17.396,31.642,32.775c0,4.285-3.276,7.312-7.185,7.312h-41.727c1.637,10.84,9.327,16.893,19.159,16.893
		c6.432,0,11.474-2.271,15.761-5.8c1.135-0.883,2.142-1.388,3.907-1.388c3.402,0,6.047,2.648,6.047,6.178
		c0,1.892-0.877,3.53-2.014,4.664C569.466,134.799,561.903,138.203,551.564,138.203z M566.692,98.746
		c-1.012-9.833-6.808-17.521-16.896-17.521c-9.329,0-15.885,7.185-17.271,17.521H566.692z"/>
	<path fill="#58595B" d="M595.944,77.064c0-4.287,3.275-7.69,7.562-7.69c4.286,0,7.69,3.403,7.69,7.69v6.806
		c3.53-8.319,10.083-14.623,16.768-14.623c4.789,0,7.562,3.151,7.562,7.563c0,4.033-2.648,6.682-6.054,7.312
		c-10.838,1.892-18.275,10.21-18.275,25.969v19.665c0,4.16-3.404,7.564-7.69,7.564c-4.159,0-7.562-3.278-7.562-7.564L595.944,77.064
		L595.944,77.064z"/>
</g>
<g>
	<path fill="#FFEB3B" d="M48.691,119.347c-6.135-20.485-1.365-43.589,14.649-59.955c23.381-23.895,61.709-24.31,85.604-0.927
		c23.898,23.381,24.313,61.711,0.931,85.605c-16.069,16.422-39.197,21.74-59.852,15.875c-3.582-0.81-8.959,0.75-10.932,5.799
		c-1.662,4.25,0.953,9.432,5.656,10.836c26.807,7.988,56.675,1.067,77.595-20.308c30.123-30.787,29.591-80.157-1.192-110.279
		C130.365,15.871,80.995,16.407,50.871,47.19c-20.73,21.184-26.625,51.078-18.744,77.626c1.162,3.914,5.857,7.664,11.021,6.079
		C48.807,129.158,49.536,122.179,48.691,119.347z"/>
	<path fill="#FFC107" d="M115.99,143.352c-14.36,3.148-29.942-1.311-40.332-13.131c-15.166-17.252-13.477-43.539,3.781-58.708
		c17.254-15.168,43.536-13.475,58.709,3.777c10.422,11.864,12.877,27.987,7.789,41.833c-0.735,2.416,0.054,6.181,3.412,7.791
		c2.83,1.36,6.51-0.166,7.715-3.315c6.855-17.954,3.66-38.78-9.916-54.218C127.609,45.149,93.75,42.97,71.52,62.511
		c-22.226,19.539-24.407,53.398-4.866,75.627c13.444,15.299,33.628,20.88,52.229,16.851c2.737-0.595,5.553-3.621,4.731-7.242
		C122.714,143.784,117.971,142.922,115.99,143.352z"/>
	<path fill="#9DBB72" d="M181.093,142.931c-14.481,26.388-42.514,44.28-74.739,44.28c-47.06,0-85.205-38.146-85.205-85.206
		c0-47.056,38.146-85.206,85.205-85.206c32.35,0,60.463,18.035,74.895,44.583c1.585,2.765,5.677,7.901,14.175,4.109
		c5.388-2.405,7.786-7.733,5.167-12.59c-18.671-34.658-52.125-52.9-94.232-52.9C53.055,0.001,4.351,41.389,4.351,102.006
		c0,60.622,46.693,103.301,102.006,103.301c41.718,0,73.754-18.312,92.67-52.387c3.174-5.716,0.537-10.397-3.655-12.928
		C190.544,137.09,184.176,137.304,181.093,142.931z"/>
</g>
</svg>
