<?xml version="1.0" encoding="utf-8"?>
<!-- Generator: Adobe Illustrator 16.0.0, SVG Export Plug-In . SVG Version: 6.00 Build 0)  -->
<!DOCTYPE svg PUBLIC "-//W3C//DTD SVG 1.1//EN" "http://www.w3.org/Graphics/SVG/1.1/DTD/svg11.dtd">
<svg version="1.1" id="Layer_1" xmlns="http://www.w3.org/2000/svg" xmlns:xlink="http://www.w3.org/1999/xlink" x="0px" y="0px"
	 width="110px" height="110px" viewBox="0 0 110 110" enable-background="new 0 0 110 110" xml:space="preserve">
<g>
	<path fill="#31BDA5" d="M93.89,16.109c21.48,21.48,21.48,56.302,0.002,77.781c-21.48,21.48-56.305,21.48-77.783,0.002"/>
	<path fill="#31BDA5" d="M16.108,16.109c21.479-21.479,56.303-21.479,77.782,0"/>
	<path fill="#31BDA5" d="M16.108,93.892c-21.479-21.48-21.48-56.304,0-77.783"/>
</g>
<g>
	<path fill="#3E3E3F" d="M87.577,74.999c0,1.605-1.303,2.908-2.909,2.908H26.486c-1.607,0-2.909-1.303-2.909-2.908V34.271
		c0-1.606,1.302-2.909,2.909-2.909h58.182c1.606,0,2.909,1.303,2.909,2.909V74.999z"/>
	<rect x="46.849" y="77.907" fill="#E2E4E5" width="17.455" height="7.454"/>
	<path fill="#F0F1F1" d="M70.122,86.816c0,0.804-0.65,1.454-1.454,1.454H42.486c-0.803,0-1.455-0.65-1.455-1.454
		s0.651-1.455,1.455-1.455h26.182C69.472,85.361,70.122,86.013,70.122,86.816z"/>
	<path fill="#FFFFFF" d="M87.577,74.999v-8.729h-64v8.729c0,1.605,1.303,2.908,2.909,2.908h58.182
		C86.274,77.907,87.577,76.604,87.577,74.999z"/>
	<path fill="#CFD3D4" d="M55.577,76.18c-2.155,0-3.909-1.753-3.909-3.909c0-2.154,1.754-3.908,3.909-3.908
		c2.154,0,3.909,1.754,3.909,3.908C59.486,74.427,57.731,76.18,55.577,76.18z M55.577,70.362c-1.053,0-1.909,0.855-1.909,1.908
		s0.856,1.909,1.909,1.909c1.053,0,1.909-0.856,1.909-1.909S56.63,70.362,55.577,70.362z"/>
	<path fill="#5B5C5F" d="M23.577,34.271v32h19.724L78.21,31.361H26.486C24.88,31.361,23.577,32.665,23.577,34.271z"/>
	<g>
		<path fill="#F0F1F1" d="M31.975,40.772c0-1.544,0.528-2.411,1.544-2.411s1.544,0.867,1.544,2.411c0,1.551-0.529,2.417-1.544,2.417
			S31.975,42.324,31.975,40.772z M34.42,40.772c0-1.361-0.332-1.917-0.901-1.917c-0.562,0-0.9,0.556-0.9,1.917
			c0,1.367,0.338,1.924,0.9,1.924C34.088,42.696,34.42,42.14,34.42,40.772z M33.519,40.333c0.257,0,0.447,0.196,0.447,0.44
			c0,0.25-0.189,0.447-0.447,0.447c-0.25,0-0.44-0.197-0.44-0.447C33.079,40.528,33.268,40.333,33.519,40.333z"/>
		<path fill="#F0F1F1" d="M37.561,39.125l-1.117,0.678l-0.299-0.433l1.49-0.928h0.548v4.165h0.955v0.501h-2.721v-0.501h1.144V39.125
			z"/>
		<path fill="#F0F1F1" d="M40.1,40.772c0-1.544,0.528-2.411,1.544-2.411s1.544,0.867,1.544,2.411c0,1.551-0.528,2.417-1.544,2.417
			S40.1,42.324,40.1,40.772z M42.545,40.772c0-1.361-0.332-1.917-0.901-1.917c-0.562,0-0.9,0.556-0.9,1.917
			c0,1.367,0.338,1.924,0.9,1.924C42.213,42.696,42.545,42.14,42.545,40.772z M41.644,40.333c0.257,0,0.447,0.196,0.447,0.44
			c0,0.25-0.19,0.447-0.447,0.447c-0.25,0-0.44-0.197-0.44-0.447C41.204,40.528,41.393,40.333,41.644,40.333z"/>
		<path fill="#F0F1F1" d="M45.686,39.125l-1.118,0.678l-0.297-0.433l1.49-0.928h0.549v4.165h0.955v0.501h-2.722v-0.501h1.145v-3.482
			H45.686z"/>
		<path fill="#F0F1F1" d="M49.749,39.125l-1.117,0.678l-0.299-0.433l1.49-0.928h0.548v4.165h0.955v0.501h-2.723v-0.501h1.145
			L49.749,39.125L49.749,39.125z"/>
		<path fill="#F0F1F1" d="M52.288,40.772c0-1.544,0.528-2.411,1.543-2.411c1.016,0,1.544,0.867,1.544,2.411
			c0,1.551-0.528,2.417-1.544,2.417C52.816,43.189,52.288,42.324,52.288,40.772z M54.732,40.772c0-1.361-0.332-1.917-0.901-1.917
			c-0.562,0-0.9,0.556-0.9,1.917c0,1.367,0.338,1.924,0.9,1.924C54.401,42.696,54.732,42.14,54.732,40.772z M53.831,40.333
			c0.257,0,0.447,0.196,0.447,0.44c0,0.25-0.19,0.447-0.447,0.447c-0.25,0-0.44-0.197-0.44-0.447
			C53.391,40.528,53.581,40.333,53.831,40.333z"/>
		<path fill="#F0F1F1" d="M57.874,39.125l-1.117,0.678l-0.298-0.433l1.489-0.928h0.549v4.165h0.955v0.501h-2.723v-0.501h1.145
			V39.125z"/>
		<path fill="#F0F1F1" d="M60.413,40.772c0-1.544,0.527-2.411,1.544-2.411s1.544,0.867,1.544,2.411c0,1.551-0.527,2.417-1.544,2.417
			S60.413,42.324,60.413,40.772z M62.858,40.772c0-1.361-0.332-1.917-0.901-1.917c-0.562,0-0.901,0.556-0.901,1.917
			c0,1.367,0.34,1.924,0.901,1.924C62.526,42.696,62.858,42.14,62.858,40.772z M61.957,40.333c0.257,0,0.446,0.196,0.446,0.44
			c0,0.25-0.189,0.447-0.446,0.447c-0.251,0-0.44-0.197-0.44-0.447C61.517,40.528,61.706,40.333,61.957,40.333z"/>
		<path fill="#F0F1F1" d="M65.999,39.125l-1.117,0.678l-0.298-0.433l1.489-0.928h0.549v4.165h0.955v0.501h-2.723v-0.501h1.145
			V39.125z"/>
		<path fill="#F0F1F1" d="M31.975,48.897c0-1.544,0.528-2.41,1.544-2.41s1.544,0.866,1.544,2.41c0,1.551-0.529,2.418-1.544,2.418
			S31.975,50.449,31.975,48.897z M34.42,48.897c0-1.361-0.332-1.916-0.901-1.916c-0.562,0-0.9,0.555-0.9,1.916
			c0,1.368,0.338,1.924,0.9,1.924C34.088,50.821,34.42,50.266,34.42,48.897z M33.519,48.458c0.257,0,0.447,0.197,0.447,0.44
			c0,0.251-0.189,0.447-0.447,0.447c-0.25,0-0.44-0.196-0.44-0.447C33.079,48.654,33.268,48.458,33.519,48.458z"/>
		<path fill="#F0F1F1" d="M37.561,47.251l-1.117,0.677l-0.298-0.434l1.49-0.927h0.548v4.165h0.955v0.501h-2.722v-0.501h1.144V47.251
			z"/>
		<path fill="#F0F1F1" d="M40.1,48.897c0-1.544,0.528-2.41,1.544-2.41s1.544,0.866,1.544,2.41c0,1.551-0.528,2.418-1.544,2.418
			S40.1,50.449,40.1,48.897z M42.545,48.897c0-1.361-0.332-1.916-0.901-1.916c-0.562,0-0.9,0.555-0.9,1.916
			c0,1.368,0.338,1.924,0.9,1.924C42.213,50.821,42.545,50.266,42.545,48.897z M41.644,48.458c0.257,0,0.447,0.197,0.447,0.44
			c0,0.251-0.19,0.447-0.447,0.447c-0.25,0-0.44-0.196-0.44-0.447C41.204,48.654,41.393,48.458,41.644,48.458z"/>
		<path fill="#F0F1F1" d="M45.686,47.251l-1.118,0.677l-0.298-0.434l1.49-0.927h0.549v4.165h0.955v0.501h-2.722v-0.501h1.145
			L45.686,47.251L45.686,47.251z"/>
		<path fill="#F0F1F1" d="M48.225,48.897c0-1.544,0.528-2.41,1.543-2.41c1.016,0,1.544,0.866,1.544,2.41
			c0,1.551-0.528,2.418-1.544,2.418C48.753,51.315,48.225,50.449,48.225,48.897z M50.67,48.897c0-1.361-0.332-1.916-0.901-1.916
			c-0.562,0-0.9,0.555-0.9,1.916c0,1.368,0.338,1.924,0.9,1.924C50.338,50.821,50.67,50.266,50.67,48.897z M49.769,48.458
			c0.258,0,0.447,0.197,0.447,0.44c0,0.251-0.189,0.447-0.447,0.447c-0.25,0-0.44-0.196-0.44-0.447
			C49.329,48.654,49.519,48.458,49.769,48.458z"/>
		<path fill="#F0F1F1" d="M52.288,48.897c0-1.544,0.528-2.41,1.543-2.41c1.016,0,1.544,0.866,1.544,2.41
			c0,1.551-0.528,2.418-1.544,2.418C52.816,51.315,52.288,50.449,52.288,48.897z M54.732,48.897c0-1.361-0.332-1.916-0.901-1.916
			c-0.562,0-0.9,0.555-0.9,1.916c0,1.368,0.338,1.924,0.9,1.924C54.401,50.821,54.732,50.266,54.732,48.897z M53.831,48.458
			c0.257,0,0.447,0.197,0.447,0.44c0,0.251-0.19,0.447-0.447,0.447c-0.25,0-0.44-0.196-0.44-0.447
			C53.391,48.654,53.581,48.458,53.831,48.458z"/>
		<path fill="#F0F1F1" d="M57.874,47.251l-1.117,0.677l-0.298-0.434l1.489-0.927h0.549v4.165h0.955v0.501h-2.723v-0.501h1.145
			V47.251z"/>
		<path fill="#F0F1F1" d="M60.413,48.897c0-1.544,0.527-2.41,1.544-2.41s1.544,0.866,1.544,2.41c0,1.551-0.527,2.418-1.544,2.418
			S60.413,50.449,60.413,48.897z M62.858,48.897c0-1.361-0.332-1.916-0.901-1.916c-0.562,0-0.901,0.555-0.901,1.916
			c0,1.368,0.34,1.924,0.901,1.924C62.526,50.821,62.858,50.266,62.858,48.897z M61.957,48.458c0.257,0,0.446,0.197,0.446,0.44
			c0,0.251-0.189,0.447-0.446,0.447c-0.251,0-0.44-0.196-0.44-0.447C61.517,48.654,61.706,48.458,61.957,48.458z"/>
		<path fill="#F0F1F1" d="M33.498,55.377l-1.117,0.677l-0.298-0.434l1.49-0.929h0.548v4.165h0.956v0.501h-2.722v-0.501h1.144
			L33.498,55.377L33.498,55.377z"/>
		<path fill="#F0F1F1" d="M36.037,57.022c0-1.543,0.528-2.41,1.544-2.41s1.544,0.867,1.544,2.41c0,1.551-0.528,2.418-1.544,2.418
			S36.037,58.573,36.037,57.022z M38.482,57.022c0-1.36-0.332-1.916-0.901-1.916c-0.562,0-0.901,0.556-0.901,1.916
			c0,1.368,0.339,1.924,0.901,1.924C38.15,58.946,38.482,58.391,38.482,57.022z M37.581,56.583c0.257,0,0.447,0.195,0.447,0.438
			c0,0.251-0.19,0.447-0.447,0.447c-0.25,0-0.44-0.196-0.44-0.447C37.141,56.779,37.331,56.583,37.581,56.583z"/>
		<path fill="#F0F1F1" d="M41.624,55.377l-1.118,0.677l-0.298-0.434l1.49-0.929h0.549v4.165h0.955v0.501H40.48v-0.501h1.145
			L41.624,55.377L41.624,55.377z"/>
		<path fill="#F0F1F1" d="M44.162,57.022c0-1.543,0.528-2.41,1.544-2.41s1.544,0.867,1.544,2.41c0,1.551-0.528,2.418-1.544,2.418
			C44.691,59.44,44.162,58.573,44.162,57.022z M46.607,57.022c0-1.36-0.332-1.916-0.901-1.916c-0.562,0-0.9,0.556-0.9,1.916
			c0,1.368,0.338,1.924,0.9,1.924C46.275,58.946,46.607,58.391,46.607,57.022z M45.706,56.583c0.257,0,0.447,0.195,0.447,0.438
			c0,0.251-0.19,0.447-0.447,0.447c-0.25,0-0.44-0.196-0.44-0.447C45.266,56.779,45.456,56.583,45.706,56.583z"/>
		<path fill="#F0F1F1" d="M48.225,57.022c0-1.543,0.528-2.41,1.543-2.41c1.016,0,1.544,0.867,1.544,2.41
			c0,1.551-0.528,2.418-1.544,2.418C48.753,59.44,48.225,58.573,48.225,57.022z M50.67,57.022c0-1.36-0.332-1.916-0.901-1.916
			c-0.562,0-0.9,0.556-0.9,1.916c0,1.368,0.338,1.924,0.9,1.924C50.338,58.946,50.67,58.391,50.67,57.022z M49.769,56.583
			c0.258,0,0.447,0.195,0.447,0.438c0,0.251-0.189,0.447-0.447,0.447c-0.25,0-0.44-0.196-0.44-0.447
			C49.329,56.779,49.519,56.583,49.769,56.583z"/>
		<path fill="#F0F1F1" d="M53.811,55.377l-1.118,0.677l-0.298-0.434l1.49-0.929h0.548v4.165h0.955v0.501h-2.721v-0.501h1.145
			L53.811,55.377L53.811,55.377z"/>
	</g>
</g>
</svg>
