<?xml version="1.0" encoding="utf-8"?>
<!-- Generator: Adobe Illustrator 16.0.0, SVG Export Plug-In . SVG Version: 6.00 Build 0)  -->
<!DOCTYPE svg PUBLIC "-//W3C//DTD SVG 1.1//EN" "http://www.w3.org/Graphics/SVG/1.1/DTD/svg11.dtd">
<svg version="1.1" id="Layer_1" xmlns="http://www.w3.org/2000/svg" xmlns:xlink="http://www.w3.org/1999/xlink" x="0px" y="0px"
	 width="110px" height="110px" viewBox="0 0 110 110" enable-background="new 0 0 110 110" xml:space="preserve">
<path fill="#32BEA6" d="M0,55C0,24.624,24.625,0,55,0s55,24.624,55,55"/>
<path fill="#32BEA6" d="M55,110C24.625,110,0,85.376,0,55"/>
<path fill="#32BEA6" d="M110,55c0,30.376-24.625,55-55,55"/>
<g>
	<path fill="#0C333D" d="M36.747,64.479l-5.638-12.453c-0.542-1.197-1.952-1.729-3.15-1.187c-1.198,0.542-1.729,1.952-1.187,3.149
		l5.641,12.46L36.747,64.479z"/>
	<g>
		<polygon fill="#0081A1" points="41,67 40,63 29,68 33,71 		"/>
	</g>
	<g>
		<path fill="#0C333D" d="M83,71.993C80.799,70.591,73,68,67,65c1.389-6.624,5-18,3-31c-0.912-5.93-11-11-15-11s-14.088,5.07-15,11
			c-2,13,1.611,24.376,3,31c-6,3-13.799,5.591-16,6.993C23.959,73.932,23,87,23,87h64C87,87,86.041,73.932,83,71.993z"/>
	</g>
	<path fill="#0F6175" d="M55,73.25V23c-4,0-14.088,5.07-15,11c-2,13,1.611,24.376,3,31L55,73.25z"/>
	<g>
		<path fill="#FFFFFF" d="M55,41c-7,0-12,1-12,1v5c0,0,7,6,12,6s12-6,12-6v-5C67,42,62,41,55,41z"/>
	</g>
	<g>
		<path fill="#E1F5FA" d="M67,47v-5c0,0-5-1-12-1v12C60,53,67,47,67,47z"/>
	</g>
	<g>
		<path fill="#0C333D" d="M51.994,46c0-1.104-0.896-2-2-2c-0.002,0-0.004,0-0.006,0c0.001,0.021,0.006,0.042,0.006,0.062
			c0,1.103-0.892,1.996-1.994,1.999C48.033,47.137,48.91,48,49.994,48C51.098,48,51.994,47.104,51.994,46z"/>
	</g>
	<g>
		<path fill="#0C333D" d="M61.986,46c0-1.104-0.896-2-2-2c-0.002,0-0.004,0-0.006,0c0.002,0.021,0.006,0.042,0.006,0.062
			c0,1.103-0.891,1.996-1.992,1.999C58.027,47.137,58.904,48,59.986,48C61.092,48,61.986,47.104,61.986,46z"/>
	</g>
	<path fill="#E1F5FA" d="M57.932,75.266L43,65c-1.429,0.715-2.961,1.404-4.495,2.062l15.416,11.154L57.932,75.266z"/>
	<g>
		<path fill="#FFFFFF" d="M53.391,87l21.117-18.68c-1.482-0.605-3.023-1.25-4.535-1.926L42,87H53.391z"/>
	</g>
</g>
</svg>
