<?xml version="1.0" encoding="utf-8"?>
<!-- Generator: Adobe Illustrator 16.0.0, SVG Export Plug-In . SVG Version: 6.00 Build 0)  -->
<!DOCTYPE svg PUBLIC "-//W3C//DTD SVG 1.1//EN" "http://www.w3.org/Graphics/SVG/1.1/DTD/svg11.dtd">
<svg version="1.1" id="Layer_1" xmlns="http://www.w3.org/2000/svg" xmlns:xlink="http://www.w3.org/1999/xlink" x="0px" y="0px"
	 width="110px" height="110px" viewBox="0 0 110 110" enable-background="new 0 0 110 110" xml:space="preserve">
<g>
	<path fill="#F9BB3C" d="M16.334,13.921C38.47-6.881,73.276-5.8,94.078,16.334"/>
	<path fill="#F9BB3C" d="M91.666,94.078c-22.135,20.803-56.942,19.723-77.744-2.413C-6.88,69.531-5.801,34.724,16.334,13.921"/>
	<path fill="#F9BB3C" d="M94.078,16.334c20.803,22.135,19.723,56.941-2.412,77.744"/>
</g>
<g>
	<path fill="#28B5A7" d="M71.334,45.606c-0.482,0.274-1.04,0.404-1.648,0.289L68,50.95h-1l-0.059-8c-2.51,0-4.65-1.557-5.521-3.756
		c-2.314,1.23-4.911,0.549-6.42-1.316c-1.508,1.865-4.104,2.547-6.42,1.316c-0.872,2.199-3.012,3.756-5.521,3.756l-0.059,8h-1l-1-3
		v4.998l4,10l5.105,3.995c0.569,0.64,1.384,1.005,2.24,1.005H55h2.654c0.855,0,1.672-0.365,2.24-1.005L65,62.947l3.207-8.017
		C71.041,54.726,72,50.425,72,47.172C72,46.598,71.73,46.027,71.334,45.606z"/>
	<path fill="#55C9BE" d="M54.087,38.744c-0.828,0.634-1.813,1.021-2.855,1.066c-0.876,0.038-1.783-0.155-2.652-0.616
		c-0.872,2.199-3.012,3.756-5.521,3.756l-0.059,8h-1l-1.685-5.054c-0.518,0.098-1.144-0.001-1.65-0.288h-0.001
		C38.269,46.027,38,46.598,38,47.172c0,3.253,0.958,7.553,3.793,7.758L45,62.947l5.105,3.994c0.569,0.641,1.384,1.006,2.24,1.006H55
		V37.878C54.73,38.21,54.417,38.491,54.087,38.744z"/>
	<g>
		<path fill="#14635B" d="M83,75.998c-0.615-1.334-1.697-2.396-3.043-2.982L65,68.998H55H45l-14.958,4.018
			c-1.345,0.588-2.427,1.648-3.042,2.982L23,87h32h32L83,75.998z"/>
	</g>
	<path fill="#3E948B" d="M59.895,66.941c-0.567,0.641-1.383,1.006-2.24,1.006H55h-2.655c-0.856,0-1.671-0.365-2.24-1.006L45,62.947
		l0,0v5.547c0,0,0,7.5,10,7.5s10-7.5,10-7.5v-5.547L59.895,66.941z"/>
	<path fill="#28B5A7" d="M52.345,67.947c-0.856,0-1.671-0.365-2.24-1.006L45,62.947l0,0v5.547c0,0,0,7.5,10,7.5v-8.047H52.345z"/>
	<g>
		<polygon fill="#00B8A5" points="57.031,78.998 58.049,75.973 55.032,73.949 52.015,75.973 53.032,78.998 50.032,86.998 
			55.032,86.998 60.031,86.998 		"/>
	</g>
	<path fill="#FFFFFF" d="M65.031,65.949c-0.383,5.75-6,7-10,7s-9.616-1.25-10-7c-4,0-1,15-1,15l8-5l3-2l3,2l8,5
		C66.031,80.949,69.031,65.949,65.031,65.949z"/>
	<g>
		<polygon fill="#00D6C1" points="55,86.998 55,73.971 52.015,75.973 53.032,78.998 50.032,86.998 		"/>
	</g>
	<g>
		<path fill="#0A3631" d="M52,46.947c0-1.104-0.896-2-2-2c-0.002,0-0.004,0-0.006,0C49.995,44.969,50,44.989,50,45.009
			c0,1.103-0.892,1.997-1.994,2c0.033,1.075,0.91,1.938,1.994,1.938C51.104,48.947,52,48.051,52,46.947z"/>
	</g>
	<g>
		<path fill="#0A3631" d="M61.994,46.947c0-1.104-0.896-2-2-2c-0.002,0-0.004,0-0.008,0c0.002,0.021,0.008,0.042,0.008,0.062
			c0,1.103-0.893,1.997-1.994,2c0.033,1.075,0.91,1.938,1.994,1.938C61.098,48.947,61.994,48.051,61.994,46.947z"/>
	</g>
	<g>
		<path fill="#14635B" d="M50,56.947h10c0,0,0,3-5,3S50,56.947,50,56.947z"/>
	</g>
	<g>
		<path fill="#0A3631" d="M72.111,39.929c2.048-3.615-0.172-8.184-4.299-8.792c-0.611-4.148-5.217-6.36-8.832-4.275
			c-0.912-1.209-2.349-2.004-3.98-2.004s-3.068,0.794-3.98,2.004c-3.618-2.085-8.221,0.129-8.832,4.275
			c-4.134,0.609-6.342,5.185-4.3,8.792C37.343,40.566,37,41.458,37,42.45c0,1.987,1.43,3.803,3.315,3.446L42,50.95h1l0.059-8
			c2.509,0,4.649-1.557,5.521-3.756c2.316,1.231,4.913,0.549,6.42-1.316c1.509,1.866,4.104,2.546,6.42,1.316
			c0.871,2.199,3.014,3.756,5.521,3.756l0.059,8h1l1.686-5.054C71.551,46.249,73,44.461,73,42.45
			C73,41.458,72.657,40.566,72.111,39.929z"/>
	</g>
</g>
</svg>
