<?xml version="1.0" encoding="utf-8"?>
<!-- Generator: Adobe Illustrator 16.0.0, SVG Export Plug-In . SVG Version: 6.00 Build 0)  -->
<!DOCTYPE svg PUBLIC "-//W3C//DTD SVG 1.1//EN" "http://www.w3.org/Graphics/SVG/1.1/DTD/svg11.dtd">
<svg version="1.1" id="Layer_1" xmlns="http://www.w3.org/2000/svg" xmlns:xlink="http://www.w3.org/1999/xlink" x="0px" y="0px"
	 width="110px" height="110px" viewBox="0 0 110 110" enable-background="new 0 0 110 110" xml:space="preserve">
<g>
	<g>
		<path fill="#DF4E5E" d="M0,55c0,30.376,24.625,55,55,55s55-24.624,55-55"/>
		<path fill="#DF4E5E" d="M55,0C24.625,0,0,24.624,0,55"/>
	</g>
	<path fill="#DF4E5E" d="M110,55c0-30.376-24.625-55-55-55"/>
</g>
<g>
	<g>
		<g>
			<path fill="#0484AB" d="M29.043,75.018c-1.346,0.59-2.428,1.65-3.043,2.983l-4,11h32l-12-19L29.043,75.018z"/>
		</g>
		<g>
			<path fill="#0484AB" d="M82,78.001c-0.615-1.333-1.697-2.396-3.043-2.983L66,70.001l-12,19h32L82,78.001z"/>
		</g>
	</g>
	<g>
		<g>
			<polygon fill="#F3B607" points="40,66.001 44,64.001 44,69.004 42.979,70.083 			"/>
		</g>
	</g>
	<g>
		<g>
			<polygon fill="#F3B607" points="68,66.001 64,64.001 64,69.004 65.062,70 			"/>
		</g>
	</g>
	<g>
		<path fill="#F7B4B4" d="M64,65l-5.105,3.995C58.326,69.635,57.512,70,56.654,70H54h-2.654c-0.856,0-1.672-0.365-2.24-1.005L44,65
			v4.004l-1.307,0.653L54,85.001l11.307-15.344L64,69.004V65z M54,77.007l-0.008-0.006c0.003,0,0.006,0,0.008,0s0.005,0,0.008,0
			L54,77.007z"/>
	</g>
	<g>
		<path fill="#FBC8C8" d="M49.105,68.995L44,65v4.003l-1.307,0.653L54,85v-7.994L53.992,77c0.003,0,0.006,0,0.008,0v-7h-2.654
			C50.489,70,49.674,69.635,49.105,68.995z"/>
	</g>
	<g>
		<g>
			<path fill="#FBC8C8" d="M54,30.036C41.024,30.036,40.018,38,40,47v8l4,10l5.105,3.995c0.568,0.64,1.384,1.005,2.24,1.005H54
				h2.654c0.855,0,1.672-0.365,2.24-1.005L64,65l4-10v-8C67.982,38,66.977,30.036,54,30.036z"/>
		</g>
	</g>
	<g>
		<g>
			<path fill="#FBD7D7" d="M40,47v8l4,10l5.105,3.996C49.674,69.635,50.489,70,51.346,70H54V30.037C41.024,30.037,40.018,38,40,47z"
				/>
		</g>
	</g>
	<g>
		<g>
			<path fill="#3E3E3F" d="M50.994,49.034c0-1.104-0.896-2-2-2c-0.002,0-0.004,0-0.007,0c0.001,0.021,0.007,0.041,0.007,0.062
				c0,1.103-0.893,1.996-1.994,1.999c0.033,1.076,0.91,1.938,1.994,1.938C50.098,51.034,50.994,50.139,50.994,49.034z"/>
		</g>
	</g>
	<g>
		<g>
			<path fill="#3E3E3F" d="M60.986,49.034c0-1.104-0.896-2-2-2c-0.002,0-0.004,0-0.006,0c0.002,0.021,0.006,0.041,0.006,0.062
				c0,1.103-0.891,1.996-1.992,1.999c0.033,1.076,0.91,1.938,1.992,1.938C60.092,51.034,60.986,50.139,60.986,49.034z"/>
		</g>
	</g>
	<g>
		<g>
			<path fill="#F79392" d="M48.994,59.034h10c0,0,0,3-5,3S48.994,59.034,48.994,59.034z"/>
		</g>
	</g>
	<g>
		<g>
			<polygon fill="#FACB1B" points="34.5,89.001 43,78.001 40,75.001 31.8,89.001 			"/>
		</g>
	</g>
	<g>
		<g>
			<polygon fill="#FBE158" points="54,85.001 40,66.001 36,71.001 54,89.001 			"/>
		</g>
	</g>
	<g>
		<g>
			<path fill="#FFFFFF" d="M49,89.001h-1l-1-7.5c0-0.828,0.672-1.5,1.5-1.5s1.5,0.672,1.5,1.5L49,89.001z"/>
		</g>
	</g>
	<g>
		<g>
			<polygon fill="#FACB1B" points="73.5,89.001 65,78.001 68,75.001 76.2,89.001 			"/>
		</g>
	</g>
	<g>
		<g>
			<polygon fill="#FBE158" points="54,85.001 68,66.001 72,71.001 54,89.001 			"/>
		</g>
	</g>
	<g>
		<g>
			<path fill="#FFFFFF" d="M59,89.001h1l1-7.5c0-0.828-0.672-1.5-1.5-1.5s-1.5,0.672-1.5,1.5L59,89.001z"/>
		</g>
	</g>
	<g>
		<g>
			<path fill="#0484AB" d="M54.012,26.001c-17,0-16,16-16,16l16-1l16,1C70.012,42.001,71.012,26.001,54.012,26.001z"/>
		</g>
	</g>
	<g>
		<g>
			<path fill="#059BBF" d="M54.039,39.357L54.039,39.357c-0.01-0.001-0.019,0-0.027,0v5c5.699,0.006,8.585,1.965,10,2.644
				c3.428,1.645,6-3,6-6C70.203,41.066,63.346,39.432,54.039,39.357z"/>
		</g>
	</g>
	<g>
		<g>
			<path fill="#059BBF" d="M38.012,42.001l16-1v-15C37.012,26.001,38.012,42.001,38.012,42.001z"/>
		</g>
	</g>
	<g>
		<g>
			<path fill="#21B2D1" d="M53.984,39.357L53.984,39.357c0.008-0.001,0.018,0,0.027,0v5c-5.701,0.006-8.586,1.965-10,2.644
				c-3.43,1.645-6-3-6-6C37.818,41.066,44.676,39.432,53.984,39.357z"/>
		</g>
	</g>
	<g>
		<path fill="#3E3E3F" d="M66.902,29.746c-2.728-2.855-6.707-4.455-11.833-4.754v-0.057c-0.346-0.003-0.669,0.02-1.004,0.028
			c-0.336-0.009-0.66-0.031-1.005-0.028v0.057c-5.126,0.299-9.104,1.898-11.831,4.754c-4.688,4.91-4.321,12.115-4.184,14.828
			l0.02,0.404l1.998-0.087l-0.02-0.419c-0.127-2.478-0.461-9.059,3.632-13.346c2.514-2.633,6.344-4.017,11.39-4.163
			c5.045,0.146,8.875,1.53,11.389,4.163c4.092,4.287,3.758,10.868,3.632,13.346l-0.021,0.419l1.998,0.087l0.02-0.404
			C71.223,41.861,71.588,34.656,66.902,29.746z"/>
	</g>
	<g>
		<g>
			<g>
				<path fill="#FFFFFF" d="M63,89.001h-1c0-6.881,2.506-9.925,5.159-13.147C70.365,71.959,74,67.546,74,55.001h1
					c0,12.903-3.756,17.464-7.068,21.487C65.285,79.703,63,82.479,63,89.001z"/>
			</g>
		</g>
	</g>
	<g>
		<g>
			<path fill="#3E3E3F" d="M41,56.001c0,1.101-0.9,2-2,2h-2c-1.1,0-2-0.899-2-2v-10c0-1.101,0.9-2,2-2h2c1.1,0,2,0.899,2,2V56.001z"
				/>
		</g>
	</g>
	<g>
		<g>
			<path fill="#E2E4E5" d="M35,46.001c-2.308,0.618-4,2.62-4,5s1.692,4.382,4,5V46.001z"/>
		</g>
	</g>
	<g>
		<g>
			<path fill="#5B5C5F" d="M39,44.001h-2c-1.1,0-2,0.899-2,2v5h6v-5C41,44.9,40.1,44.001,39,44.001z"/>
		</g>
	</g>
	<g>
		<g>
			<path fill="#FFFFFF" d="M35,46.001c-2.308,0.618-4,2.62-4,5h4V46.001z"/>
		</g>
	</g>
	<g>
		<g>
			<path fill="#3E3E3F" d="M67,56.001c0,1.101,0.9,2,2,2h2c1.1,0,2-0.899,2-2v-10c0-1.101-0.9-2-2-2h-2c-1.1,0-2,0.899-2,2V56.001z"
				/>
		</g>
	</g>
	<g>
		<g>
			<path fill="#5B5C5F" d="M69,44.001h2c1.1,0,2,0.899,2,2v5h-6v-5C67,44.9,67.9,44.001,69,44.001z"/>
		</g>
	</g>
	<g>
		<g>
			<path fill="#E2E4E5" d="M73,46.001c2.309,0.618,4,2.62,4,5s-1.691,4.382-4,5V46.001z"/>
		</g>
	</g>
	<g>
		<g>
			<path fill="#FFFFFF" d="M73,46.001c2.309,0.618,4,2.62,4,5h-4V46.001z"/>
		</g>
	</g>
</g>
</svg>
