<?xml version="1.0" encoding="utf-8"?>
<!-- Generator: Adobe Illustrator 16.0.0, SVG Export Plug-In . SVG Version: 6.00 Build 0)  -->
<!DOCTYPE svg PUBLIC "-//W3C//DTD SVG 1.1//EN" "http://www.w3.org/Graphics/SVG/1.1/DTD/svg11.dtd">
<svg version="1.1" id="Layer_1" xmlns="http://www.w3.org/2000/svg" xmlns:xlink="http://www.w3.org/1999/xlink" x="0px" y="0px"
	 width="110px" height="110px" viewBox="0 0 110 110" enable-background="new 0 0 110 110" xml:space="preserve">
<path fill="#F9BB3C" d="M55,0c30.375,0,55,24.625,55,55"/>
<path fill="#F9BB3C" d="M0,55C0,24.625,24.625,0,55,0"/>
<path fill="#F9BB3C" d="M55,110C24.625,110,0,85.376,0,55"/>
<path fill="#F9BB3C" d="M110,55c0,30.376-24.625,55-55,55"/>
<g>
	<g>
		<path fill="#84462D" d="M72,54c0-8,0-16,0-16c0-9.389-7.611-17-17-17s-17,7.611-17,17c0,0,0,8,0,16c0,10-9,8-9,8s1,8,14,8
			c10.177,0,11.769,0,11.982,0c0.006,0,0.014,0,0.018,0c0.153,0,1.57,0,12,0c13,0,14-8,14-8S72,64,72,54z"/>
	</g>
	<g>
		<path fill="#9C6144" d="M38,38c0,0,0,8,0,16c0,10-9,8-9,8s1,8,14,8c10.177,0,11.769,0,11.982,0c0.006,0,0.014,0,0.018,0V21
			C45.611,21,38,28.611,38,38z"/>
	</g>
	<g>
		<path fill="#40C9E7" d="M83.408,73.664c-0.889-2.312-2.797-4.08-5.168-4.792L65,66H55H45l-13.24,2.872
			c-2.371,0.712-4.279,2.48-5.168,4.792L23,83h32h32L83.408,73.664z"/>
	</g>
	<g>
		<g>
			<g>
				<path fill="#FFFFFF" d="M42,69.5c0,1.885,1.492,3.409,3.357,3.486C45.135,73.445,45,73.955,45,74.5
					c0,1.885,1.492,3.409,3.357,3.486C48.135,78.445,48,78.955,48,79.5c0,1.934,1.566,3.5,3.5,3.5c0.486,0,0.948-0.1,1.369-0.278
					l-7.847-16.673C43.317,66.283,42,67.73,42,69.5z"/>
			</g>
		</g>
	</g>
	<g>
		<g>
			<g>
				<path fill="#FFFFFF" d="M68,69.5c0,1.885-1.492,3.409-3.357,3.486C64.865,73.445,65,73.955,65,74.5
					c0,1.885-1.492,3.409-3.357,3.486C61.865,78.445,62,78.955,62,79.5c0,1.934-1.566,3.5-3.5,3.5c-0.486,0-0.948-0.1-1.369-0.278
					l7.847-16.673C66.683,66.283,68,67.73,68,69.5z"/>
			</g>
		</g>
	</g>
	<g>
		<path fill="#F7B4B4" d="M55,65v18h2l8-17v-8.566C62.158,61.829,58.283,63.905,55,65z"/>
	</g>
	<g>
		<path fill="#FBC8C8" d="M45,57.434V66l8,17h2V65C51.717,63.905,47.842,61.829,45,57.434z"/>
	</g>
	<g>
		<path fill="#FBC8C8" d="M70,41c-0.277,0-0.633,0-1,0c0-0.007,0-0.014,0-0.021c-0.004-1.9-0.053-3.753-0.248-5.498
			C68.117,37.515,66.242,39,64,39c-1.99,0-3.695-1.172-4.5-2.856C58.695,37.828,56.99,39,55,39s-3.695-1.172-4.5-2.856
			C49.695,37.828,47.99,39,46,39c-2.242,0-4.117-1.485-4.752-3.519c-0.195,1.744-0.244,3.597-0.248,5.498c0,0.008,0,0.015,0,0.021
			c-0.367,0-0.723,0-1,0c-1,0-2,1.111-2,2.223c0,3.09,0.864,7.13,4.178,7.703C44.619,60.027,50.396,63.465,55,65
			c4.604-1.535,10.381-4.973,12.822-14.075C71.136,50.353,72,46.312,72,43.223C72,42.111,71,41,70,41z"/>
	</g>
	<g>
		<g>
			<circle fill="#9CE5F4" cx="36" cy="73" r="2"/>
		</g>
	</g>
	<g>
		<g>
			<circle fill="#9CE5F4" cx="41" cy="79" r="2"/>
		</g>
	</g>
	<g>
		<g>
			<circle fill="#9CE5F4" cx="29" cy="79" r="2"/>
		</g>
	</g>
	<g>
		<g>
			<circle fill="#9CE5F4" cx="74" cy="73" r="2"/>
		</g>
	</g>
	<g>
		<g>
			<circle fill="#9CE5F4" cx="69" cy="79" r="2"/>
		</g>
	</g>
	<g>
		<g>
			<circle fill="#9CE5F4" cx="81" cy="79" r="2"/>
		</g>
	</g>
	<g>
		<path fill="#FBD7D7" d="M50.5,36.144C49.695,37.828,47.99,39,46,39c-2.242,0-4.117-1.485-4.752-3.519
			c-0.195,1.744-0.244,3.597-0.248,5.498c0,0.008,0,0.015,0,0.021c-0.367,0-0.723,0-1,0c-1,0-2,1.111-2,2.223
			c0,3.09,0.864,7.13,4.178,7.703C44.619,60.027,50.396,63.465,55,65V39C53.01,39,51.305,37.828,50.5,36.144z"/>
	</g>
	<g>
		<g>
			<path fill="#F79392" d="M50,54h10c0,0,0,3-5,3S50,54,50,54z"/>
		</g>
	</g>
	<g>
		<g>
			<path fill="#3E3E3F" d="M62,39c-2.625,0-5.25,1.75-5.25,1.75H55h-1.75c0,0-2.625-1.75-5.25-1.75c-4.375,0-7,1.75-7,1.75v0.875
				h0.875c0,5.25,1.75,7.875,6.308,7.875c4.557,0,5.505-4.375,5.505-5.589S55,42.5,55,42.5s1.312,0.198,1.312,1.411
				s0.948,5.589,5.505,5.589c4.558,0,6.308-2.625,6.308-7.875H69V40.75C69,40.75,66.375,39,62,39z"/>
		</g>
		<g>
			<g>
				<path fill="#9E9FA0" d="M48,40.75c-2.416,0-4.375,1.084-4.375,3.5c0,1.13,0.439,2.148,1.143,2.925l5.854-5.854
					C49.889,40.942,48.988,40.75,48,40.75z"/>
			</g>
		</g>
		<g>
			<g>
				<path fill="#9E9FA0" d="M62,40.75c-2.416,0-4.375,1.084-4.375,3.5c0,1.13,0.439,2.148,1.143,2.925l5.854-5.854
					C63.889,40.942,62.988,40.75,62,40.75z"/>
			</g>
		</g>
	</g>
</g>
</svg>
