<?xml version="1.0" encoding="utf-8"?>
<!-- Generator: Adobe Illustrator 16.0.0, SVG Export Plug-In . SVG Version: 6.00 Build 0)  -->
<!DOCTYPE svg PUBLIC "-//W3C//DTD SVG 1.1//EN" "http://www.w3.org/Graphics/SVG/1.1/DTD/svg11.dtd">
<svg version="1.1" id="Layer_1" xmlns="http://www.w3.org/2000/svg" xmlns:xlink="http://www.w3.org/1999/xlink" x="0px" y="0px"
	 width="110px" height="110px" viewBox="0 0 110 110" enable-background="new 0 0 110 110" xml:space="preserve">
<path fill="#DF4E5E" d="M55,0c30.375,0,55,24.625,55,55"/>
<path fill="#DF4E5E" d="M0,55C0,24.625,24.625,0,55,0"/>
<path fill="#DF4E5E" d="M55,110C24.625,110,0,85.376,0,55"/>
<path fill="#DF4E5E" d="M110,55c0,30.376-24.625,55-55,55"/>
<g>
	<path fill="#4A1410" d="M71.633,71.297c-1.998-6.128-2.01-13.816-1.828-17.955c-0.535,0.477-1.188,0.817-1.98,0.955
		c-1.225,4.559-3.283,7.697-5.613,9.887c0.137,1.674,0.42,3.406,0.928,5.088L71.633,71.297z"/>
	<path fill="#DF4E5E" d="M83.408,77.664c-0.889-2.312-2.797-4.08-5.168-4.792L62,69l-7,1l-7-1l-16.241,3.872
		c-2.371,0.712-4.279,2.479-5.168,4.792L23,87h32h32L83.408,77.664z"/>
	<path fill="#FFD7D4" d="M65,67v-6.195c-2.842,4.396-6.717,6.473-10,7.566c-3.281-1.094-7.158-3.156-10-7.544V67
		c0,1,4.465,15.85,10,20C60.535,82.85,65,68,65,67z"/>
	<path fill="#FFEFED" d="M70,44.372c-0.277,0-0.633,0-1,0c0-0.007,0-0.014,0-0.021c-0.018-9.008-1.023-16.979-14-16.979l0,0
		c-12.976,0-13.982,7.97-14,16.979c0,16.797,8,22.021,14,24.021l0,0c4.604-1.535,10.381-4.974,12.822-14.075
		C71.137,53.724,72,49.684,72,46.593C72,45.482,71,44.372,70,44.372z"/>
	<g>
		<path fill="#FFFFFF" d="M55,27.372c-12.976,0-13.982,7.97-14,16.979c0,16.797,8,22.021,14,24.021V27.372z"/>
	</g>
	<g>
		<path fill="#4A1410" d="M61,27.372c1,14,4,16.979,9,17C70.04,38.352,73.669,26.693,61,27.372z"/>
	</g>
	<g>
		<g>
			<path fill="#4A1410" d="M48.964,45.867c1.431,0,2.627,0.277,2.959,1.133c0.004-1-1.003-2.446-2.959-2.446
				c-1.953,0-3.052,1.446-2.958,2.446C46.337,46.144,47.534,45.867,48.964,45.867z"/>
		</g>
	</g>
	<g>
		<g>
			<path fill="#4A1410" d="M60.887,45.867c1.432,0,2.627,0.277,2.959,1.133c0.004-1-1.004-2.446-2.959-2.446
				c-1.953,0-3.053,1.446-2.959,2.446C58.26,46.144,59.457,45.867,60.887,45.867z"/>
		</g>
	</g>
	<g>
		<path fill="#E8A099" d="M50,57.371h10c0,0,0,3-5,3S50,57.371,50,57.371z"/>
	</g>
	<g>
		<path fill="#FFFFFF" d="M45,67c0,0-7,2-8,7c5,0,15,13,15,13h3C49.465,82.85,45,68,45,67z"/>
		<path fill="#FFFFFF" d="M65,67c0,1-4.465,15.85-10,20h3c0,0,10-13,15-13C72,69,65,67,65,67z"/>
	</g>
	<path fill="#FFEFED" d="M47.768,64.15c-0.292,2.602-0.849,4.949-1.577,7.055C47.876,76.191,51.184,84.139,55,87V68.371
		C52.066,67.395,49.69,65.963,47.768,64.15z"/>
	<g>
		<path fill="#4A1410" d="M35,41c0,2,0,45,0,45s13-7.629,13-25.922V44.372c0-15.988,14-8,13-17C56,18.372,35,23,35,41z"/>
	</g>
</g>
</svg>
