<?xml version="1.0" encoding="utf-8"?>
<!-- Generator: Adobe Illustrator 16.0.0, SVG Export Plug-In . SVG Version: 6.00 Build 0)  -->
<!DOCTYPE svg PUBLIC "-//W3C//DTD SVG 1.1//EN" "http://www.w3.org/Graphics/SVG/1.1/DTD/svg11.dtd">
<svg version="1.1" id="Layer_1" xmlns="http://www.w3.org/2000/svg" xmlns:xlink="http://www.w3.org/1999/xlink" x="0px" y="0px"
	 width="110px" height="110px" viewBox="0 0 110 110" enable-background="new 0 0 110 110" xml:space="preserve">
<path fill="#F9BB3C" d="M55,0c30.375,0,55,24.625,55,55"/>
<path fill="#F9BB3C" d="M0,55C0,24.625,24.625,0,55,0"/>
<path fill="#F9BB3C" d="M55,110C24.625,110,0,85.376,0,55"/>
<path fill="#F9BB3C" d="M110,55c0,30.376-24.625,55-55,55"/>
<g>
	<path fill="#DF2C2C" d="M61.373,34.902l-8.671-9.881c-1.093-1.246-2.988-1.369-4.233-0.276c-1.246,1.093-1.369,2.988-0.276,4.233
		l3.258,3.713l-8.923-5.273c-1.427-0.843-3.267-0.37-4.109,1.057c-0.844,1.426-0.37,3.266,1.057,4.108l5.896,3.485
		C34.65,40.795,27,52.92,27,65c0,15.464,12.535,23,28,23c15.464,0,28-7.536,28-23C83,51.729,73.765,38.415,61.373,34.902z"/>
	<path fill="#FA5655" d="M52.702,25.021c-1.093-1.245-2.988-1.369-4.233-0.276c-1.246,1.093-1.369,2.988-0.276,4.233l3.258,3.714
		l-8.923-5.274c-1.427-0.843-3.267-0.37-4.109,1.057c-0.844,1.426-0.37,3.266,1.057,4.108l5.896,3.485C34.65,40.795,27,52.92,27,65
		c0,15.464,12.536,23,28,23V27.641L52.702,25.021z"/>
	<path fill="#F8E1C2" d="M32.285,79.637C37.37,85.238,45.646,88,55,88s17.63-2.762,22.715-8.363C72.63,72.591,64.354,68,55,68
		S37.37,72.591,32.285,79.637z"/>
	<path fill="#FCF1E2" d="M32.285,79.637C37.37,85.238,45.646,88,55,88V68C45.646,68,37.37,72.591,32.285,79.637z"/>
	<path fill="#FFFFFF" d="M61,52c-2.703,0-5.02,1.651-6,4c-0.98-2.349-3.297-4-6-4c-3.59,0-6.5,2.91-6.5,6.5S45.41,65,49,65
		c2.703,0,5.02-1.651,6-4c0.98,2.349,3.297,4,6,4c3.59,0,6.5-2.91,6.5-6.5S64.59,52,61,52z"/>
	<circle fill="#3E3E3F" cx="49" cy="58" r="2"/>
	<circle fill="#3E3E3F" cx="61" cy="58" r="2"/>
	<polygon fill="#3E3E3F" points="69,50.801 65.84,45.7 55,54.596 44.16,45.7 41,50.801 54.805,57 55,56.685 55.195,57 	"/>
	<path fill="#3E3E3F" d="M55,74c-1.922,0-5.889-2.049-8.497-3.524C47.354,73.574,49.555,78.639,55,80
		c5.445-1.361,7.646-6.426,8.496-9.524C60.889,71.951,56.922,74,55,74z"/>
	<path fill="#FACB1B" d="M44,69c0,0,7-9,11-9s11,9,11,9s-8,5-11,5S44,69,44,69z"/>
	<path fill="#FBE158" d="M44,69c0,0,8,5,11,5V60C51,60,44,69,44,69z"/>
</g>
</svg>
