<?xml version="1.0" encoding="utf-8"?>
<!-- Generator: Adobe Illustrator 16.0.0, SVG Export Plug-In . SVG Version: 6.00 Build 0)  -->
<!DOCTYPE svg PUBLIC "-//W3C//DTD SVG 1.1//EN" "http://www.w3.org/Graphics/SVG/1.1/DTD/svg11.dtd">
<svg version="1.1" id="Layer_1" xmlns="http://www.w3.org/2000/svg" xmlns:xlink="http://www.w3.org/1999/xlink" x="0px" y="0px"
	 width="110px" height="110px" viewBox="0 0 110 110" enable-background="new 0 0 110 110" xml:space="preserve">
<g>
	<path fill="#31BDA5" d="M16.109,93.89C-5.369,72.411-5.37,37.587,16.107,16.108c21.479-21.479,56.304-21.478,77.784,0"/>
	<path fill="#31BDA5" d="M93.893,93.892c-21.481,21.478-56.305,21.479-77.783-0.002"/>
	<path fill="#31BDA5" d="M93.892,16.108c21.479,21.479,21.478,56.303,0.001,77.784"/>
</g>
<g>
	<g>
		<g>
			<path fill="#FFFFFF" d="M49.915,87.063c-1.566-0.042-28.006,0-28.006,0s1-19,4-21c3.661-2.441,18-4,18-4h20
				c0,0,14.339,1.559,18,4c3,2,4,21,4,21s-26.439-0.042-28.006,0H49.915z"/>
		</g>
	</g>
	<g>
		<g>
			<path fill="#E2E4E5" d="M63.909,62.063h-10h-10c0,0-8.854,0.963-14.424,2.561c3.251,2.111,8.424,6.011,8.424,9.439
				c0,3.335,0,13,0,13h32c0,0,0-9.665,0-13c0-3.429,5.173-7.328,8.424-9.439C72.764,63.026,63.909,62.063,63.909,62.063z"/>
		</g>
	</g>
	<g>
		<g>
			<path fill="#FFFFFF" d="M73.909,63.063c0,0-2,4-20,4s-20-4-20-4v-20c0-11.045,8.954-20,20-20s20,8.955,20,20V63.063z"/>
		</g>
	</g>
	<g>
		<g>
			<path fill="#F1F2F2" d="M73.909,63.063v-20c0-11.046-8.954-20-20-20v44C71.909,67.063,73.909,63.063,73.909,63.063z"/>
		</g>
	</g>
	<g>
		<g>
			<path fill="#5B5C5F" d="M37.909,39.063c0,3,0,8,0,8s0,5,0,8s10,4,16,4v-12v-12C47.909,35.063,37.909,36.063,37.909,39.063z"/>
		</g>
	</g>
	<g>
		<g>
			<path fill="#3E3E3F" d="M53.909,35.063v12v12c6,0,16-1,16-4s0-8,0-8s0-5,0-8S59.909,35.063,53.909,35.063z"/>
		</g>
	</g>
	<g>
		<g>
			<rect x="48.909" y="29.063" fill="#FA5655" width="2" height="2"/>
		</g>
	</g>
	<g>
		<g>
			<rect x="52.909" y="29.063" fill="#CFD3D4" width="8" height="2"/>
		</g>
	</g>
	<g>
		<g>
			<polygon fill="#FFFFFF" points="61.909,77.063 45.909,77.063 40.909,87.063 67.909,87.063 			"/>
		</g>
	</g>
	<g>
		<g>
			<circle fill="#47C4B7" cx="50.909" cy="83.063" r="3"/>
		</g>
	</g>
	<g>
		<g>
			<rect x="55.909" y="80.063" fill="#CFD3D4" width="1" height="6"/>
		</g>
	</g>
	<g>
		<g>
			<rect x="58.909" y="80.063" fill="#CFD3D4" width="1" height="6"/>
		</g>
	</g>
	<g>
		<g>
			<path fill="#E2E4E5" d="M33.909,55.063h-2c-1.104,0-2-0.895-2-2v-8c0-1.104,0.896-2,2-2h2V55.063z"/>
		</g>
	</g>
	<g>
		<g>
			<path fill="#E2E4E5" d="M73.909,55.063h2c1.104,0,2-0.895,2-2v-8c0-1.104-0.896-2-2-2h-2V55.063z"/>
		</g>
	</g>
	<g>
		<g>
			<path fill="#FA5655" d="M53.909,65.063c-18,0-20-4-20-4v4c0,0,2,4,20,4s20-4,20-4v-4C73.909,61.063,71.909,65.063,53.909,65.063z
				"/>
		</g>
	</g>
	<g>
		<g>
			<rect x="73.909" y="71.063" fill="#0484AB" width="5" height="5"/>
		</g>
	</g>
	<g>
		<g>
			<path fill="#FA5655" d="M84.005,71.063h-4.096v2H84.4C84.277,72.37,84.146,71.698,84.005,71.063z"/>
		</g>
	</g>
	<g>
		<g>
			<path fill="#FA5655" d="M84.571,74.063h-4.662v2h4.96C84.776,75.391,84.677,74.722,84.571,74.063z"/>
		</g>
	</g>
	<g>
		<g>
			<path fill="#FA5655" d="M85.002,77.063H73.909v2h11.33C85.167,78.407,85.088,77.737,85.002,77.063z"/>
		</g>
	</g>
	<g>
		<g>
			<path fill="#DF2C2C" d="M73.909,65.063v-4c0,0-2,4-20,4v4C71.909,69.063,73.909,65.063,73.909,65.063z"/>
		</g>
	</g>
	<g>
		<g>
			<path fill="#FFFFFF" d="M75.909,43.063h-2v6h4v-4C77.909,43.959,77.014,43.063,75.909,43.063z"/>
		</g>
	</g>
	<g>
		<g>
			<path fill="#FFFFFF" d="M29.909,45.063v4h4v-6h-2C30.805,43.063,29.909,43.959,29.909,45.063z"/>
		</g>
	</g>
</g>
</svg>
