<?xml version="1.0" encoding="utf-8"?>
<!-- Generator: Adobe Illustrator 16.0.0, SVG Export Plug-In . SVG Version: 6.00 Build 0)  -->
<!DOCTYPE svg PUBLIC "-//W3C//DTD SVG 1.1//EN" "http://www.w3.org/Graphics/SVG/1.1/DTD/svg11.dtd">
<svg version="1.1" id="Layer_1" xmlns="http://www.w3.org/2000/svg" xmlns:xlink="http://www.w3.org/1999/xlink" x="0px" y="0px"
	 width="260px" height="260px" viewBox="0 0 260 260" enable-background="new 0 0 260 260" xml:space="preserve">
<g>
	<path fill="#35BAA4" d="M74.691,146.326c-6.135-20.485-1.365-43.589,14.649-59.955c23.381-23.895,61.709-24.31,85.604-0.927
		c23.898,23.381,24.313,61.71,0.93,85.605c-16.07,16.422-39.197,21.742-59.852,15.875c-3.582-0.808-8.959,0.751-10.932,5.801
		c-1.662,4.25,0.953,9.432,5.656,10.836c26.807,7.986,56.675,1.067,77.595-20.308c30.123-30.787,29.59-80.157-1.193-110.279
		c-30.783-30.123-80.153-29.587-110.277,1.196c-20.73,21.184-26.625,51.078-18.744,77.626c1.162,3.914,5.857,7.664,11.021,6.078
		C74.807,156.137,75.536,149.158,74.691,146.326z"/>
	<path fill="#DF4E5E" d="M141.99,170.33c-14.36,3.15-29.942-1.311-40.332-13.131c-15.166-17.252-13.477-43.538,3.781-58.708
		c17.254-15.168,43.536-13.475,58.709,3.777c10.422,11.864,12.877,27.986,7.789,41.833c-0.735,2.416,0.054,6.18,3.412,7.789
		c2.83,1.361,6.51-0.164,7.715-3.314c6.856-17.954,3.66-38.78-9.916-54.218c-19.539-22.231-53.398-24.41-75.628-4.869
		c-22.226,19.539-24.407,53.396-4.866,75.627c13.444,15.3,33.628,20.88,52.229,16.85c2.737-0.594,5.553-3.62,4.731-7.241
		C148.714,170.762,143.971,169.898,141.99,170.33z"/>
	<path fill="#F9BB3C" d="M207.093,169.91c-14.481,26.387-42.514,44.279-74.739,44.279c-47.06,0-85.205-38.146-85.205-85.206
		c0-47.056,38.146-85.206,85.205-85.206c32.349,0,60.463,18.035,74.894,44.583c1.585,2.765,5.677,7.901,14.175,4.109
		c5.387-2.405,7.786-7.733,5.167-12.59c-18.671-34.658-52.125-52.9-94.233-52.9c-53.302,0-102.006,41.388-102.006,102.004
		c0,60.622,46.693,103.301,102.006,103.301c41.718,0,73.754-18.311,92.67-52.389c3.174-5.715,0.537-10.396-3.655-12.926
		C216.544,164.066,210.176,164.282,207.093,169.91z"/>
</g>
</svg>
