<?xml version="1.0" encoding="utf-8"?>
<!-- Generator: Adobe Illustrator 16.0.0, SVG Export Plug-In . SVG Version: 6.00 Build 0)  -->
<!DOCTYPE svg PUBLIC "-//W3C//DTD SVG 1.1//EN" "http://www.w3.org/Graphics/SVG/1.1/DTD/svg11.dtd">
<svg version="1.1" id="Layer_1" xmlns="http://www.w3.org/2000/svg" xmlns:xlink="http://www.w3.org/1999/xlink" x="0px" y="0px"
	 width="394.819px" height="321.575px" viewBox="0 0 394.819 321.575" enable-background="new 0 0 394.819 321.575"
	 xml:space="preserve">
<path fill="#FFFFFF" d="M170.061,95.972c-6.047,2.088-12.258,3.103-18.296,3.535c-1.667-2.799,1.537-2.79,1.394-4.457
	c-0.159-1.828-0.045-3.678-0.116-5.516c-0.063-1.605-0.219-3.207-0.365-5.262c1.573-0.355,3.048-0.918,4.547-0.993
	c10.349-0.516,20.683-0.603,31.063-0.293c9.582,0.284,19.262,0.251,29.093-1.041c-0.057-2.701-0.105-5.156-0.162-7.996
	c4.528,0.145,8.599-0.358,12.55,2.053c5.303,3.231,10.914,5.957,16.367,8.938c0.563,0.306,0.988,0.871,1.862,1.666
	c-1,0.991-1.753,2.119-2.806,2.713c-3.214,1.807-6.615,3.281-9.802,5.128c-3.373,1.955-6.964,3.633-9.637,6.655
	c-0.573,0.649-1.466,1.109-2.297,1.423c-1.821,0.689-3.97-0.417-4.298-2.287c-0.427-2.453-0.635-4.946-0.964-7.622
	c-5.099-0.1-9.884,0.295-14.682,0.797c-9.853,1.034-19.715,1.97-29.582,2.872c-1.349,0.125-2.737-0.17-4.087-0.275
	c6.809-3.336,8.361-4.625,10.807-9.119c-4.972,1.079-8.029,4.428-11.027,7.827C169.482,94.879,169.903,95.541,170.061,95.972z
	 M183.386,90.995c1.793,0.327,2.071-1.064,2.54-2.239c0.15-0.096,0.302-0.191,0.452-0.284c-0.04,0.275-0.079,0.551-0.119,0.826
	c-0.121-0.125-0.241-0.247-0.358-0.297c-0.819,0.73-1.64,1.461-2.447,2.234c-0.35,0.218-0.771,0.375-1.024,0.677
	c-0.167,0.201-0.082,0.607-0.109,0.921c0.261-0.211,0.617-0.375,0.762-0.648C183.272,91.834,183.292,91.395,183.386,90.995z
	 M194.522,87.564c1.284,0.703,2.091-0.008,2.78-0.972c0.1-0.141,0.103-0.547,0.031-0.578c-0.331-0.152-0.899-0.416-1.031-0.285
	c-0.626,0.612-1.133,1.341-1.676,2.049c-0.363,0.123-0.742,0.211-1.074,0.388c-0.106,0.055-0.092,0.343-0.132,0.526
	c0.321,0,0.836,0.119,0.921-0.022C194.522,88.374,194.476,87.941,194.522,87.564z M220.628,82.53c0.05,0.381,0.043,0.785,0.18,1.13
	c0.06,0.145,0.435,0.161,0.662,0.233c-0.065-0.172-0.094-0.381-0.212-0.508c-0.263-0.292-0.568-0.544-0.856-0.812
	c0.87-0.946,1.747-1.891,2.986-3.235c-1.356-0.302-2.091-0.466-3.244-0.723C220.345,80.301,220.478,81.415,220.628,82.53z
	 M203.967,88.856c-0.21,0.256-0.42,0.513-0.63,0.769c0.256-0.203,0.511-0.408,0.769-0.61c0.952-1.094,1.906-2.187,2.86-3.279
	c-1.522,0.039-2.634,0.676-3.591,1.494C203.223,87.36,203.764,88.301,203.967,88.856z M157.66,94.963
	c4.244-2.246,6.997-4.374,8.04-9.083C161.178,87.472,159.066,90.172,157.66,94.963z M221.448,89.191
	c4.417-0.658,4.417-0.658,7.028-3.805C225.621,86.102,223.162,86.915,221.448,89.191z M157.688,87.776
	c-0.338-0.631-0.596-1.112-0.853-1.593c-0.332,0.187-0.92,0.348-0.942,0.568c-0.066,0.612,0.104,1.25,0.181,1.877
	C156.532,88.386,156.987,88.145,157.688,87.776z M222.071,97.312c0.573-0.228,1.128-0.44,1.664-0.693
	c0.027-0.012-0.148-0.563-0.167-0.56c-0.584,0.114-1.159,0.267-1.736,0.415C221.89,96.679,221.953,96.888,222.071,97.312z
	 M216.195,85.65c0.37-0.104,0.79-0.171,1.158-0.347c0.106-0.051,0.065-0.413,0.096-0.63c-0.406,0.148-0.829,0.266-1.203,0.47
	C216.147,85.196,216.203,85.527,216.195,85.65z M169.828,85.255c-0.031,0.17-0.06,0.341-0.09,0.512
	c0.19,0.031,0.423,0.139,0.553,0.064c0.109-0.061,0.095-0.335,0.134-0.518C170.226,85.294,170.027,85.274,169.828,85.255z
	 M227.853,94.516c0.162-0.082,0.324-0.162,0.486-0.244c-0.153-0.098-0.304-0.196-0.455-0.293
	C227.875,94.158,227.864,94.336,227.853,94.516z M167.605,90.904c-0.289,0.242-0.602,0.464-0.844,0.747
	c-0.053,0.062,0.152,0.345,0.237,0.527c0.275-0.239,0.583-0.454,0.807-0.736C167.867,91.365,167.68,91.089,167.605,90.904z"/>
<circle fill="#25B7D3" cx="299.25" cy="84.5" r="49.25"/>
<circle fill="#FABC3D" cx="91.605" cy="87.848" r="48.907"/>
<g>
	<path fill="#FBC8C8" d="M104.943,78.988l-2.667,1.778c-0.013-0.241,0-6.225-3.557-8.003c-4.1,3.533-14.228,2.667-16.338-0.55
		c-1.392,2.192-1.446,4.106-1.446,8.553l-1.778-1.186v6.489l3.557,8.892l4.54,3.553c0.506,0.569,1.231,0.894,1.992,0.894h2.36h2.361
		c0.762,0,1.486-0.325,1.991-0.894l4.54-3.553l2.839-7.098c2.53-0.169,3.385-4.001,3.385-6.899
		C106.722,79.977,105.833,78.988,104.943,78.988z"/>
</g>
<g>
	<path fill="#FBD7D7" d="M82.38,72.214c-1.392,2.192-1.446,4.106-1.446,8.553l-2.667-1.778c-0.89,0-1.779,0.988-1.779,1.977
		c0,2.897,0.854,6.729,3.386,6.899l2.839,7.098l4.54,3.553c0.506,0.569,1.231,0.894,1.992,0.894h2.36V75.022
		C87.663,75.182,83.626,74.112,82.38,72.214z"/>
</g>
<g>
	<g>
		<path fill="#3E3E3F" d="M116.503,106.522c-0.547-1.186-1.509-2.129-2.706-2.652l-13.3-3.572h-8.893h-8.892l-13.3,3.572
			c-1.196,0.523-2.159,1.467-2.706,2.652l-3.557,9.781h28.455h28.455L116.503,106.522z"/>
	</g>
</g>
<g>
	<path fill="#F7B4B4" d="M93.966,99.408h-2.361h-2.36c-0.761,0-1.486-0.325-1.992-0.894l-4.54-3.553v8.035
		c0,0,1.778,3.557,8.892,3.557s8.893-3.557,8.893-3.557v-8.035l-4.54,3.553C95.452,99.083,94.728,99.408,93.966,99.408z"/>
</g>
<g>
	<path fill="#FBC8C8" d="M87.253,98.515l-4.54-3.553v8.035c0,0,1.778,3.557,8.892,3.557v-7.146h-2.36
		C88.484,99.408,87.759,99.083,87.253,98.515z"/>
</g>
<g>
	<g>
		<path fill="#692E19" d="M86.27,59.425l-1.779,4.446h-4.446c0,0.958,0.222,2.223,1.714,2.564
			c-4.118,4.064-3.492,9.615-3.492,12.553l2.667,1.778c0-4.446,0.054-6.361,1.446-8.553c2.111,3.217,12.238,4.083,16.338,0.55
			c3.557,1.778,3.544,7.762,3.557,8.003l2.667-1.778C105.833,59.425,94.372,67.526,86.27,59.425z"/>
	</g>
</g>
<g>
	<g>
		<path fill="#84462D" d="M91.605,62.763c-1.829-0.678-3.654-1.657-5.335-3.337l-1.779,4.446h-4.446
			c0,0.958,0.222,2.223,1.714,2.564c-4.118,4.064-3.492,9.615-3.492,12.553l2.667,1.778c0-4.446,0.054-6.361,1.446-8.553
			c1.246,1.898,5.282,2.968,9.225,2.809V62.763z"/>
	</g>
</g>
<g>
	<g>
		<g>
			<path fill="#3E3E3F" d="M105.815,77.891c-1.974-1.421-14.17-0.454-14.17-0.454S79.37,76.47,77.397,77.891c0,0-0.08,1.855,0,2.842
				c1.894,0.947,0.63,2.525,1.894,2.841c1.579,0.395,8.25,0.948,9.473,0c1.291-0.999,1.895-3.789,2.841-3.789
				c0.948,0,1.553,2.791,2.842,3.789c1.224,0.948,7.895,0.395,9.473,0c1.264-0.316,0-1.894,1.895-2.841
				C105.894,79.746,105.815,77.891,105.815,77.891z"/>
		</g>
	</g>
	<g>
		<g>
			<path fill="#9CE5F4" d="M80.162,82.377c-0.91-1.82-0.611-4.08,0.228-4.194s6.712-0.762,9,0.343
				c0.912,0.441-0.267,4.279-1.602,4.423C84.965,83.254,80.657,83.369,80.162,82.377z"/>
		</g>
	</g>
	<g>
		<g>
			<path fill="#9CE5F4" d="M103.387,82.456c0.91-1.82,0.61-4.08-0.229-4.194c-0.839-0.114-6.711-0.762-8.998,0.344
				c-0.912,0.44,0.266,4.279,1.601,4.423C98.583,83.333,102.892,83.447,103.387,82.456z"/>
		</g>
	</g>
	<g>
		<g>
			<path fill="#C9F2F8" d="M80.389,78.181c-0.839,0.115-1.138,2.374-0.228,4.194c0.062,0.126,0.188,0.233,0.363,0.326l4.208-4.81
				C82.725,77.908,80.837,78.119,80.389,78.181z"/>
		</g>
	</g>
	<g>
		<g>
			<path fill="#C9F2F8" d="M94.16,78.6c-0.848,0.41,0.109,3.744,1.32,4.334l4.326-4.944C97.802,77.914,95.43,77.987,94.16,78.6z"/>
		</g>
	</g>
</g>
<g>
	<g>
		<path fill="#F79392" d="M87.159,91.141h8.892c0,0,0,2.668-4.446,2.668C87.159,93.809,87.159,91.141,87.159,91.141z"/>
	</g>
</g>
<g>
	<path fill="#FBC8C8" d="M312.873,76.024l-2.668,1.778c-0.014-0.241,0-6.225-3.557-8.003c-4.102,3.534-14.229,2.668-16.34-0.55
		c-1.391,2.192-1.445,4.107-1.445,8.553l-1.777-1.185v6.488l3.557,8.892l4.539,3.553c0.506,0.569,1.232,0.894,1.992,0.894h2.361
		h2.359c0.762,0,1.486-0.325,1.992-0.894l4.539-3.553l2.84-7.098c2.531-0.169,3.385-4.002,3.385-6.899
		C314.65,77.012,313.761,76.024,312.873,76.024z"/>
</g>
<g>
	<path fill="#FBD7D7" d="M290.308,69.25c-1.391,2.192-1.445,4.107-1.445,8.553l-2.668-1.778c-0.889,0-1.777,0.988-1.777,1.977
		c0,2.897,0.854,6.73,3.385,6.899l2.84,7.098l4.539,3.553c0.506,0.569,1.232,0.894,1.992,0.894h2.361V72.058
		C295.591,72.218,291.554,71.148,290.308,69.25z"/>
</g>
<g>
	<g>
		<path fill="#3E3E3F" d="M324.431,103.558c-0.547-1.185-1.508-2.129-2.705-2.652l-13.301-3.573h-8.891h-8.893l-13.301,3.573
			c-1.197,0.522-2.158,1.467-2.705,2.652l-3.557,9.781h28.455h28.455L324.431,103.558z"/>
	</g>
</g>
<g>
	<path fill="#F7B4B4" d="M301.894,96.444h-2.359h-2.361c-0.76,0-1.486-0.325-1.992-0.894l-4.539-3.553v8.035
		c0,0,1.777,3.557,8.893,3.557c7.113,0,8.891-3.557,8.891-3.557v-8.035l-4.539,3.553C303.38,96.119,302.656,96.444,301.894,96.444z"
		/>
</g>
<g>
	<g>
		<path fill="#FFFFFF" d="M299.535,113.339h2.822l-0.141-0.821c-0.016-0.088,0.016-0.177,0.078-0.24l2.328-2.27
			c0.072-0.071,0.102-0.18,0.068-0.277c-0.031-0.098-0.117-0.169-0.219-0.185l-3.217-0.467c-0.09-0.013-0.166-0.068-0.205-0.148
			l-1.438-2.915c-0.047-0.092-0.141-0.151-0.244-0.151c-0.102,0-0.197,0.059-0.242,0.151l-1.439,2.915
			c-0.039,0.08-0.115,0.136-0.205,0.148l-3.215,0.467c-0.104,0.016-0.188,0.087-0.219,0.185c-0.033,0.097-0.006,0.206,0.066,0.277
			l2.33,2.27c0.062,0.062,0.092,0.152,0.078,0.24l-0.143,0.821H299.535z"/>
	</g>
</g>
<g>
	<path fill="#FBC8C8" d="M295.181,95.55l-4.539-3.553v8.035c0,0,1.777,3.557,8.893,3.557v-7.146h-2.361
		C296.414,96.444,295.687,96.119,295.181,95.55z"/>
</g>
<g>
	<g>
		<path fill="#9C6144" d="M295.976,91.141"/>
		<path fill="#9C6144" d="M299.535,90.251"/>
	</g>
</g>
<circle fill="#32BEA6" cx="172.595" cy="255.428" r="49"/>
<g>
	<g>
		<path fill="#692E19" d="M294.199,56.461l-1.779,4.446h-4.445c0,0.958,0.223,2.223,1.715,2.564
			c-4.119,4.064-3.494,9.615-3.494,12.552l2.668,1.778c0-4.446,0.055-6.361,1.445-8.553c2.111,3.218,12.238,4.083,16.34,0.55
			c3.557,1.778,3.543,7.762,3.557,8.003l2.668-1.778C313.761,56.461,302.3,64.562,294.199,56.461z"/>
	</g>
</g>
<g>
	<g>
		<path fill="#84462D" d="M299.535,59.798c-1.83-0.678-3.654-1.657-5.336-3.337l-1.779,4.446h-4.445
			c0,0.958,0.223,2.223,1.715,2.564c-4.119,4.064-3.494,9.615-3.494,12.552l2.668,1.778c0-4.446,0.055-6.361,1.445-8.553
			c1.246,1.898,5.283,2.968,9.227,2.809V59.798z"/>
	</g>
</g>
<path fill="#FFFFFF" d="M150.027,148.608c-0.504,0.904-1.034,1.855-1.62,2.91c-0.705,0.1-1.438,0.311-2.158,0.283
	c-4.616-0.182-9.154,0.484-13.71,1.08c-2.328,0.305-4.708,0.289-7.061,0.289c-8.566,0-17.133,0.071-25.696-0.129
	c-6.448-0.15-12.889-0.559-19.273-1.661c-7.236-1.249-14.559-1.513-21.883-1.633c-9.306-0.148-18.611-0.213-27.909-0.654
	c-2.849-0.134-5.717-0.195-8.56-0.036c-5.979,0.334-11.906,0.082-17.809-0.929c-0.973-0.167-1.985-0.126-2.952-0.321
	c-0.371-0.076-0.664-0.544-1.396-1.189c1.218-0.151,1.912-0.353,2.582-0.293c1.109,0.1,2.193,0.419,3.301,0.542
	c0.597,0.066,1.435,0.144,1.79-0.186c1.395-1.298,3.192-1.103,4.846-1.522c-2.719-0.57-5.398,0.131-8.291,0.073
	c-0.109-0.607-0.391-1.208-0.284-1.729c0.969-4.772,1.149-9.59,1.049-14.437c-0.024-1.114,0.071-2.24,0.244-3.341
	c0.548-3.498,0.213-6.925-0.647-10.33c-0.885-3.507-1.364-7.052-1.158-10.683c0.107-1.857,0.065-3.725,0.049-5.586
	c-0.049-6.464,0.508-12.883,1.262-19.296c0.259-2.213,0.346-4.465,0.288-6.692c-0.133-4.96-0.457-9.916-0.604-14.875
	c-0.095-3.219-0.239-6.464,0.049-9.658c0.262-2.873-0.133-5.685-0.14-8.525c-0.013-7.699-0.082-15.396-0.122-23.094
	c-0.018-3.104,0.038-6.208-0.042-9.312C4.135,6.2,3.917,4.723,3.675,3.265C3.487,2.13,3.374,1.072,4.516,0
	c0.319,0.3,0.692,0.542,0.917,0.88C6.209,2.059,7.4,2.316,8.664,2.393c3.097,0.193,6.193,0.373,9.292,0.528
	c2.356,0.118,4.714,0.22,7.072,0.275c2.853,0.064,5.716,0.238,8.56,0.078C45.5,2.6,57.399,2.908,69.303,3.467
	c5.084,0.24,10.178,0.24,15.266,0.373c2.726,0.069,5.453,0.222,8.179,0.28c11.543,0.244,23.087,0.419,34.631,0.716
	c6.202,0.16,12.398,0.562,18.603,0.756c2.957,0.093,5.922-0.037,8.866-0.066c0.578-1.062,1.066-1.957,1.712-3.139
	c0.702,1.145,1.206,1.965,1.796,2.926c1.537,0.064,3.146,0.083,4.745,0.22c0.973,0.084,1.962,0.273,2.885,0.585
	c0.311,0.106,0.655,0.786,0.591,1.127c-0.058,0.284-0.719,0.681-1.063,0.637c-1.209-0.16-2.389-0.562-3.6-0.726
	c-1.189-0.16-2.176,0.331-2.961,1.456c0.932,4.729,0.142,9.518-0.328,14.327c-0.504,5.182-0.915,10.373-1.344,15.563
	c-0.459,5.565-0.875,11.133-1.344,16.698c-0.24,2.844-0.525,5.686-0.839,8.523c-0.989,8.997-2.038,17.987-2.985,26.989
	c-0.416,3.944-0.581,7.913-0.96,11.861c-0.497,5.184-1.092,10.357-1.644,15.534c-0.157,1.479-0.353,2.959-0.454,4.443
	c-0.242,3.589-0.491,7.181-0.638,10.776c-0.086,2.098-0.046,4.21,0.056,6.311c0.1,2.103,0.289,4.21,0.566,6.297
	C149.144,146.737,149.602,147.495,150.027,148.608z M13.957,4.771c0.078,0.06,0.148,0.137,0.237,0.173
	c0.06,0.024,0.146-0.011,0.22-0.02c-0.167-0.033-0.333-0.066-0.501-0.1c-2.214-1.205-4.532-0.73-6.73-0.619
	C6.12,5.947,5.92,7.538,6.364,9.346c0.322,1.299,0.244,2.712,0.257,4.075c0.056,6.206,0.125,12.411,0.1,18.615
	c-0.014,3.474-0.198,6.945-0.315,10.419c-0.062,1.848-0.237,3.695-0.197,5.541c0.044,2.227,0.401,4.452,0.381,6.674
	c-0.071,7.456,0.783,14.856,1.2,22.28c0.382,6.81,0.579,13.633,0.659,20.452c0.053,4.707-0.215,9.418-0.375,14.125
	c-0.066,1.983-0.035,3.995-0.377,5.938c-1.021,5.814-0.458,11.625-0.18,17.438c0.086,1.837,0.452,3.662,0.726,5.758
	c0.958-0.386,1.717-0.723,2.5-0.996c0.457-0.157,0.963-0.242,1.167,0.411c-0.326,0.601-0.65,1.198-1.143,2.107
	c1.367,0.182,2.436,0.393,3.514,0.455c1.486,0.084,2.997-0.086,4.463,0.106c4.607,0.608,9.157-0.133,13.729-0.413
	c3.959-0.244,7.93-0.67,11.885-0.557c4.836,0.135,9.665,0.162,14.5,0.173c7.063,0.018,14.125,0.169,21.191,0.171
	c4.953,0,9.914,0.47,14.858,0.885c5.929,0.499,11.843,1.169,17.765,1.746c6.54,0.639,13.077,1.295,19.623,1.87
	c3.944,0.346,7.872,1.121,11.86,0.679c0.816-0.091,1.608-0.406,2.513-0.646c0.156-2.276,0.131-4.341-0.254-6.311
	c-0.71-0.331-1.255-0.583-1.606-0.748c0.309-2.955,0.732-5.761,0.868-8.58c0.271-5.579,0.508-11.151,1.533-16.659
	c0.519-2.802,1.119-5.595,1.477-8.418c0.892-7.007,1.693-14.026,2.48-21.044c0.861-7.644,1.673-15.286,1.72-22.999
	c0.083-13.66,1.282-27.262,2.233-40.88c0.244-3.46,0.355-6.934,0.453-10.405c0.024-0.814-0.251-1.637-0.391-2.474
	c-0.684-0.128-1.159-0.268-1.64-0.301c-3.338-0.229-6.657-0.317-10.023-0.102c-5.193,0.335-10.42,0.221-15.63,0.206
	c-6.701-0.018-13.382,0.213-20.052,0.958c-3.936,0.439-7.915,0.818-11.866,0.736c-6.322-0.131-12.606-0.938-18.812-2.192
	C67.027,5.397,56.851,4.195,46.469,4.601c-7.083,0.277-14.081,1.349-21.14,1.715c-4.576,0.237-9.166,0.266-13.751,0.312
	c-0.798,0.007-1.439-0.47-0.836-1.641C11.754,4.917,12.854,4.847,13.957,4.771z M118.069,148.151
	c-0.017-0.22-0.037-0.439-0.055-0.659c-0.464,0-0.928,0.018-1.391-0.003c-3.584-0.152-7.263,0.134-10.736-0.572
	c-5.672-1.151-11.327-1.168-17.039-1.064c-1.974,0.036-4.006-0.004-5.916-0.43c-2.107-0.473-4.184-0.468-6.284-0.399
	c-6.449,0.211-12.896,0.477-19.345,0.686c-1.979,0.064-3.961,0.009-6.613,0.009c1.049,0.686,1.622,0.881,2.198,0.956
	c4.304,0.568,8.596,1.284,12.919,1.612c5.314,0.402,10.665,0.34,15.984,0.712c10.415,0.734,20.813,1.276,31.204-0.284
	c1.224-0.182,2.476-0.17,3.711-0.283C117.166,148.387,117.614,148.249,118.069,148.151z M78.352,5.765
	c9.13,2.695,22.3,3.192,34.937,0.79c-0.03-0.1-0.057-0.291-0.093-0.291C101.842,5.887,90.492,5.523,79.14,5.175
	c-0.222-0.007-0.459,0.16-0.666,0.284C78.399,5.503,78.389,5.661,78.352,5.765z M146.123,149.793
	c-6.146-0.885-31.084-0.576-41.099,1.611c6.843,0.058,12.869,0.022,18.892,0.187C131.37,151.793,138.664,150.143,146.123,149.793z
	 M48.084,147.741c-3.117-1.063-6.238-2.072-9.563-1.937c-3.824,0.155-7.646,0.406-11.468,0.661
	c-4.195,0.277-8.387,0.604-12.582,0.91c3.718,0.142,7.425,0.12,11.131,0.148c3.833,0.03,7.668,0.155,11.501,0.161
	C40.755,147.692,44.402,148.741,48.084,147.741z M6.293,80.992C5.57,86.371,5.06,90.881,5.126,95.45
	c0.035,2.471-0.244,4.949-0.233,7.422c0.011,2.591,0.144,5.184,0.344,7.769c0.056,0.725,0.53,1.419,1.034,2.684
	C6.927,102.389,6.644,92.127,6.293,80.992z M90.153,144.287c-2.023-1.041-4.08-0.726-6.662-0.77
	C85.947,145.078,88.09,144.646,90.153,144.287z M57.896,144.588c-2.185-1.061-4.352-0.768-7.298,0
	C53.552,144.588,55.724,144.588,57.896,144.588z M157.216,17.315c0.136-0.006,0.273-0.014,0.408-0.02
	c0-1.726,0.002-3.451-0.013-5.177c0-0.018-0.198-0.036-0.395-0.069C157.216,13.869,157.216,15.592,157.216,17.315z M16.812,5.117
	c1.682,0,2.729,0,3.773,0C19.562,4.641,18.562,4.077,16.812,5.117z M67.742,143.708c0,0.077,0,0.155,0.002,0.233
	c0.922,0,1.847,0,2.77,0c0-0.078-0.001-0.156-0.001-0.233C69.587,143.708,68.665,143.708,67.742,143.708z M156.64,24.673
	c0.029,0,0.056,0,0.084,0c0-0.595,0-1.189,0-1.781c-0.029,0-0.056,0-0.084,0C156.64,23.484,156.64,24.079,156.64,24.673z
	 M40.145,143.778c0-0.042,0-0.084,0-0.128c-0.333,0-0.665,0-0.998,0c0,0.044,0,0.086,0,0.128
	C39.48,143.778,39.812,143.778,40.145,143.778z M6.058,141.673c0.029,0.226,0.056,0.453,0.084,0.679
	c0.044-0.102,0.115-0.2,0.131-0.308c0.02-0.113-0.002-0.238-0.026-0.351C6.242,141.673,6.125,141.68,6.058,141.673z M75.736,5.215
	c-0.046-0.073-0.08-0.177-0.146-0.206c-0.083-0.036-0.191-0.006-0.288-0.004c0.06,0.115,0.122,0.233,0.184,0.351
	C75.57,5.309,75.652,5.262,75.736,5.215z M155.127,42.297l0.073,0.311l0.124-0.242L155.127,42.297z"/>
<path fill="#FFFFFF" d="M377.271,10.804c-0.277,2.087-0.465,4.195-0.566,6.298c-0.1,2.101-0.141,4.212-0.055,6.311
	c0.146,3.595,0.395,7.187,0.637,10.776c0.104,1.484,0.297,2.963,0.455,4.443c0.553,5.177,1.146,10.35,1.643,15.534
	c0.381,3.949,0.545,7.917,0.961,11.861c0.947,9.001,1.998,17.992,2.986,26.989c0.312,2.837,0.598,5.679,0.838,8.522
	c0.471,5.565,0.887,11.133,1.344,16.699c0.432,5.191,0.842,10.381,1.346,15.563c0.471,4.809,1.26,9.598,0.328,14.327
	c0.785,1.125,1.771,1.615,2.961,1.455c1.211-0.164,2.391-0.564,3.6-0.725c0.344-0.045,1.006,0.352,1.062,0.637
	c0.064,0.342-0.279,1.021-0.59,1.127c-0.922,0.312-1.912,0.501-2.885,0.585c-1.6,0.138-3.207,0.155-4.744,0.22
	c-0.592,0.961-1.096,1.781-1.799,2.926c-0.646-1.182-1.133-2.076-1.713-3.139c-2.943-0.029-5.908-0.16-8.865-0.066
	c-6.203,0.195-12.4,0.597-18.602,0.756c-11.543,0.298-23.088,0.473-34.631,0.717c-2.727,0.059-5.453,0.211-8.18,0.279
	c-5.088,0.133-10.18,0.133-15.266,0.373c-11.904,0.559-23.803,0.867-35.715,0.193c-2.844-0.16-5.707,0.014-8.561,0.077
	c-2.357,0.056-4.715,0.157-7.072,0.275c-3.098,0.155-6.195,0.335-9.291,0.528c-1.266,0.076-2.457,0.334-3.232,1.512
	c-0.225,0.34-0.596,0.582-0.916,0.881c-1.143-1.071-1.029-2.129-0.84-3.265c0.242-1.458,0.459-2.935,0.496-4.408
	c0.08-3.103,0.025-6.208,0.043-9.312c0.039-7.697,0.109-15.394,0.121-23.094c0.006-2.839,0.402-5.652,0.141-8.525
	c-0.289-3.194-0.145-6.439-0.049-9.658c0.146-4.96,0.469-9.916,0.604-14.875c0.057-2.227-0.029-4.479-0.289-6.692
	c-0.754-6.413-1.311-12.833-1.262-19.296c0.016-1.862,0.059-3.729-0.049-5.586c-0.207-3.631,0.271-7.176,1.158-10.683
	c0.859-3.405,1.193-6.832,0.646-10.33c-0.174-1.1-0.268-2.227-0.244-3.341c0.102-4.847-0.08-9.665-1.049-14.436
	c-0.105-0.521,0.176-1.122,0.285-1.729c2.891-0.059,5.57,0.643,8.291,0.072c-1.656-0.419-3.451-0.224-4.848-1.521
	c-0.354-0.33-1.193-0.253-1.789-0.187c-1.107,0.122-2.191,0.442-3.301,0.542c-0.67,0.06-1.363-0.143-2.582-0.293
	c0.732-0.646,1.023-1.113,1.395-1.189c0.969-0.195,1.979-0.154,2.953-0.322c5.902-1.011,11.83-1.262,17.807-0.929
	c2.846,0.16,5.713,0.098,8.561-0.036c9.299-0.441,18.605-0.505,27.91-0.654c7.324-0.119,14.646-0.383,21.883-1.632
	c6.385-1.103,12.826-1.511,19.273-1.662c8.564-0.199,17.129-0.128,25.697-0.128c2.354,0,4.732-0.016,7.059,0.288
	c4.559,0.597,9.096,1.263,13.713,1.08c0.721-0.026,1.451,0.185,2.156,0.284c0.588,1.054,1.117,2.005,1.621,2.91
	C377.835,9.245,377.376,10.001,377.271,10.804z M238.976,151.752c-0.602-1.171,0.039-1.648,0.836-1.641
	c4.584,0.046,9.176,0.074,13.752,0.312c7.059,0.365,14.057,1.438,21.139,1.714c10.381,0.406,20.559-0.796,30.688-2.841
	c6.205-1.254,12.49-2.061,18.812-2.192c3.951-0.083,7.93,0.297,11.865,0.737c6.67,0.744,13.352,0.976,20.053,0.957
	c5.211-0.015,10.436-0.128,15.629,0.207c3.367,0.215,6.688,0.127,10.025-0.102c0.48-0.033,0.955-0.174,1.639-0.303
	c0.139-0.836,0.416-1.659,0.391-2.473c-0.098-3.472-0.209-6.945-0.453-10.406c-0.951-13.618-2.152-27.22-2.232-40.879
	c-0.047-7.713-0.859-15.355-1.721-22.999c-0.785-7.018-1.588-14.037-2.479-21.044c-0.361-2.824-0.959-5.616-1.479-8.418
	c-1.025-5.508-1.262-11.08-1.531-16.659c-0.137-2.819-0.561-5.625-0.869-8.58c0.352-0.164,0.896-0.417,1.605-0.748
	c0.387-1.97,0.41-4.035,0.256-6.31c-0.904-0.24-1.697-0.555-2.514-0.646c-3.988-0.441-7.916,0.333-11.859,0.679
	c-6.547,0.575-13.084,1.231-19.623,1.87c-5.924,0.576-11.836,1.247-17.766,1.746c-4.945,0.415-9.904,0.885-14.857,0.885
	c-7.066,0.002-14.127,0.153-21.191,0.171c-4.834,0.011-9.664,0.038-14.5,0.173c-3.955,0.113-7.926-0.312-11.885-0.557
	c-4.572-0.279-9.121-1.02-13.729-0.412c-1.467,0.192-2.977,0.022-4.463,0.106c-1.08,0.062-2.148,0.272-3.514,0.454
	c0.492,0.91,0.816,1.506,1.143,2.108c-0.205,0.652-0.711,0.567-1.168,0.41c-0.783-0.273-1.541-0.61-2.498-0.996
	c-0.275,2.096-0.641,3.922-0.727,5.758c-0.277,5.812-0.84,11.624,0.18,17.438c0.342,1.943,0.311,3.956,0.375,5.938
	c0.16,4.707,0.43,9.418,0.377,14.125c-0.08,6.819-0.277,13.642-0.658,20.452c-0.418,7.424-1.271,14.824-1.201,22.28
	c0.02,2.223-0.336,4.447-0.383,6.674c-0.039,1.846,0.137,3.693,0.199,5.541c0.117,3.474,0.303,6.945,0.314,10.419
	c0.023,6.204-0.043,12.409-0.1,18.615c-0.014,1.362,0.064,2.775-0.258,4.075c-0.443,1.808-0.244,3.398,0.818,5.14
	c2.199,0.11,4.516,0.585,6.73-0.619c0.168-0.033,0.336-0.066,0.502-0.1c-0.072-0.01-0.16-0.045-0.221-0.021
	c-0.088,0.036-0.16,0.113-0.236,0.173C241.089,151.892,239.988,151.821,238.976,151.752z M344.941,8.309
	c-1.236-0.113-2.486-0.102-3.711-0.283c-10.391-1.561-20.789-1.02-31.205-0.285c-5.318,0.373-10.668,0.311-15.982,0.713
	c-4.324,0.328-8.617,1.045-12.92,1.612c-0.576,0.075-1.15,0.271-2.199,0.956c2.652,0,4.635-0.056,6.613,0.009
	c6.449,0.208,12.896,0.475,19.344,0.686c2.102,0.068,4.178,0.073,6.287-0.399c1.908-0.426,3.939-0.466,5.914-0.43
	c5.713,0.104,11.365,0.086,17.037-1.065c3.475-0.706,7.152-0.419,10.738-0.572c0.463-0.021,0.926-0.002,1.391-0.002
	c0.018-0.22,0.037-0.439,0.055-0.659C345.847,8.491,345.4,8.351,344.941,8.309z M306.707,151.28
	c0.207,0.125,0.445,0.291,0.666,0.284c11.352-0.349,22.703-0.712,34.057-1.089c0.035,0,0.062-0.191,0.092-0.291
	c-12.637-2.402-25.807-1.905-34.936,0.789C306.623,151.079,306.632,151.236,306.707,151.28z M352.15,5.148
	c-6.021,0.164-12.049,0.129-18.893,0.187c10.016,2.188,34.953,2.495,41.1,1.61C366.898,6.596,359.603,4.946,352.15,5.148z
	 M265.337,9.054c-3.834,0.007-7.668,0.132-11.502,0.162c-3.705,0.028-7.412,0.007-11.131,0.148
	c4.195,0.306,8.387,0.632,12.582,0.909c3.822,0.256,7.645,0.506,11.469,0.661c3.324,0.136,6.445-0.874,9.562-1.937
	C272.634,7.999,268.99,9.047,265.337,9.054z M234.503,43.415c-0.502,1.265-0.977,1.959-1.033,2.684
	c-0.199,2.584-0.332,5.177-0.344,7.768c-0.01,2.474,0.268,4.951,0.232,7.422c-0.064,4.569,0.443,9.079,1.168,14.458
	C234.878,64.612,235.162,54.35,234.503,43.415z M311.726,13.223c2.58-0.044,4.637,0.271,6.66-0.77
	C316.324,12.093,314.179,11.661,311.726,13.223z M278.832,12.151c2.945,0.768,5.113,1.06,7.299,0
	C283.957,12.151,281.787,12.151,278.832,12.151z M385.449,144.69c0.199-0.034,0.396-0.051,0.396-0.069
	c0.014-1.726,0.012-3.451,0.012-5.177c-0.135-0.006-0.271-0.013-0.408-0.02C385.449,141.147,385.449,142.871,385.449,144.69z
	 M248.818,151.622c-1.045,0-2.09,0-3.773,0C246.794,152.663,247.796,152.098,248.818,151.622z M298.748,13.031
	c0-0.077,0.002-0.155,0.002-0.232c-0.924,0-1.85,0-2.771,0c-0.002,0.077-0.002,0.155-0.002,0.232
	C296.9,13.031,297.822,13.031,298.748,13.031z M384.873,133.847c0.029,0,0.057,0,0.086,0c0-0.592,0-1.187,0-1.781
	c-0.029,0-0.057,0-0.086,0C384.873,132.66,384.873,133.254,384.873,133.847z M267.38,12.96c0,0.042,0,0.084,0,0.129
	c0.332,0,0.666,0,0.998,0c0-0.044,0-0.086,0-0.129C268.046,12.96,267.712,12.96,267.38,12.96z M234.48,15.045
	c0.023-0.113,0.047-0.237,0.025-0.35c-0.016-0.109-0.084-0.207-0.129-0.308c-0.029,0.226-0.057,0.452-0.086,0.678
	C234.359,15.059,234.474,15.065,234.48,15.045z M303.72,151.384c-0.062,0.118-0.125,0.235-0.186,0.351
	c0.098,0.002,0.207,0.031,0.289-0.004c0.066-0.029,0.1-0.134,0.146-0.207C303.886,151.477,303.804,151.43,303.72,151.384z
	 M383.558,114.374l-0.125-0.242l-0.072,0.311L383.558,114.374z"/>
<path fill="#FFFFFF" d="M291.07,156.035c2.393-4.921,5.539-9.293,8.928-13.209c2.703,0.687,0.76,2.619,1.855,3.541
	c1.201,1.009,2.252,2.197,3.408,3.267c1.008,0.934,2.072,1.808,3.404,2.963c-0.736,1.167-1.289,2.399-2.152,3.352
	c-5.949,6.574-12.146,12.879-18.617,18.973c-5.967,5.624-11.805,11.501-16.971,18.231c1.666,1.6,3.184,3.059,4.936,4.739
	c-2.828,2.652-4.986,5.419-8.836,6.354c-5.162,1.252-10.205,2.997-15.309,4.492c-0.527,0.156-1.125,0.071-2.135,0.12
	c0.004-1.205-0.223-2.343,0.057-3.34c0.848-3.037,2.018-5.988,2.826-9.032c0.859-3.226,2.018-6.412,1.803-9.856
	c-0.045-0.741,0.217-1.558,0.529-2.253c0.686-1.516,2.656-2.148,3.982-1.216c1.744,1.227,3.379,2.609,5.195,4.029
	c3.146-3.025,5.803-6.158,8.402-9.364c5.336-6.588,10.734-13.12,16.16-19.637c0.742-0.892,1.758-1.552,2.641-2.306
	c-2.102,6.139-2.262,7.856-1.023,12.056c2.357-3.66,2.18-7.538,1.938-11.407C292.082,156.346,291.425,156.201,291.07,156.035z
	 M286.019,167.109c-1.285,0.886-0.609,1.896-0.182,2.89c-0.033,0.149-0.068,0.297-0.104,0.446c-0.143-0.19-0.285-0.382-0.428-0.573
	c0.148,0.002,0.295,0.006,0.396-0.036c0.055-0.938,0.107-1.876,0.129-2.832c0.078-0.343,0.24-0.694,0.211-1.029
	c-0.021-0.222-0.318-0.417-0.494-0.624c-0.027,0.286-0.145,0.601-0.066,0.854C285.58,166.532,285.832,166.809,286.019,167.109z
	 M281.355,175.921c-1.201,0.351-1.258,1.27-1.094,2.27c0.027,0.146,0.27,0.393,0.33,0.37c0.293-0.109,0.797-0.292,0.797-0.453
	c0.01-0.749-0.125-1.497-0.225-2.253c0.145-0.293,0.32-0.578,0.416-0.886c0.031-0.097-0.154-0.262-0.24-0.396
	c-0.193,0.194-0.578,0.433-0.545,0.569C280.867,175.431,281.156,175.665,281.355,175.921z M268.607,194.763
	c-0.262-0.201-0.5-0.45-0.793-0.575c-0.123-0.052-0.359,0.164-0.543,0.259c0.146,0.064,0.287,0.174,0.438,0.18
	c0.336,0.017,0.672-0.015,1.01-0.028c0.045,1.102,0.088,2.202,0.15,3.764c1.002-0.638,1.547-0.983,2.4-1.524
	C270.128,195.939,269.375,195.345,268.607,194.763z M274.861,180.854c-0.027-0.282-0.057-0.564-0.086-0.847
	c-0.031,0.278-0.061,0.557-0.096,0.836c0.088,1.238,0.17,2.475,0.254,3.715c0.898-0.946,1.186-2.004,1.268-3.077
	C276.214,181.31,275.32,181.067,274.861,180.854z M299.183,149.142c-1.211,3.927-1.588,6.88,0.631,10.36
	C301.585,155.803,301.23,152.891,299.183,149.142z M264.082,191.227c-2.275,3.072-2.275,3.072-1.949,6.555
	C263.425,195.622,264.421,193.641,264.082,191.227z M303.513,153.507c0.588,0.178,1.033,0.312,1.48,0.448
	c0.088-0.314,0.346-0.767,0.225-0.914c-0.33-0.411-0.816-0.693-1.242-1.026C303.845,152.439,303.714,152.861,303.513,153.507z
	 M258.791,186.693c-0.209,0.484-0.418,0.948-0.588,1.424c-0.008,0.024,0.432,0.252,0.441,0.238c0.285-0.423,0.539-0.861,0.799-1.303
	C259.281,186.965,259.119,186.876,258.791,186.693z M269.402,190.192c-0.162,0.287-0.375,0.582-0.49,0.91
	c-0.035,0.098,0.209,0.292,0.324,0.439c0.156-0.335,0.34-0.661,0.441-1.013C269.707,190.439,269.472,190.27,269.402,190.192z
	 M297.695,162.377c-0.084-0.121-0.172-0.242-0.254-0.364c-0.135,0.096-0.342,0.173-0.377,0.297c-0.027,0.102,0.148,0.26,0.234,0.394
	C297.429,162.595,297.562,162.486,297.695,162.377z M256.984,191.882c-0.049,0.147-0.098,0.293-0.146,0.439
	c0.152-0.031,0.303-0.064,0.453-0.098C257.187,192.111,257.085,191.999,256.984,191.882z M295.621,157.616
	c0.029-0.321,0.082-0.646,0.059-0.964c-0.006-0.069-0.301-0.117-0.463-0.175c-0.02,0.311-0.078,0.627-0.043,0.933
	C295.183,157.495,295.464,157.548,295.621,157.616z"/>
<rect x="11.954" y="16.162" fill="none" width="104.335" height="45.646"/>
<text transform="matrix(1 0 0 1 11.9541 30.4268)" fill="#FFFFFF" font-family="'DKCrayonCrumble'" font-size="23.1197">cipher day 1</text>
<rect x="267.413" y="18.829" fill="none" width="104.334" height="45.646"/>
<text transform="matrix(1 0 0 1 267.4146 33.0942)" fill="#FFFFFF" font-family="'DKCrayonCrumble'" font-size="23.1197">cipher day 2</text>
<path fill="#FFFFFF" d="M109.543,314.327c0.279-2.088,0.467-4.194,0.566-6.298c0.102-2.1,0.141-4.212,0.057-6.312
	c-0.148-3.595-0.396-7.187-0.639-10.774c-0.102-1.485-0.297-2.965-0.455-4.444c-0.551-5.178-1.145-10.35-1.643-15.534
	c-0.379-3.948-0.545-7.917-0.959-11.861c-0.949-9-1.998-17.991-2.986-26.988c-0.314-2.838-0.6-5.679-0.84-8.522
	c-0.469-5.565-0.885-11.134-1.344-16.698c-0.43-5.191-0.84-10.383-1.344-15.563c-0.471-4.809-1.262-9.599-0.328-14.328
	c-0.785-1.124-1.773-1.615-2.961-1.455c-1.213,0.165-2.393,0.566-3.602,0.726c-0.344,0.045-1.004-0.353-1.062-0.637
	c-0.064-0.341,0.279-1.02,0.592-1.127c0.922-0.312,1.912-0.501,2.885-0.585c1.6-0.139,3.207-0.155,4.744-0.22
	c0.59-0.961,1.094-1.782,1.797-2.927c0.646,1.183,1.135,2.077,1.713,3.14c2.943,0.028,5.908,0.159,8.865,0.066
	c6.205-0.195,12.402-0.598,18.604-0.757c11.543-0.297,23.088-0.473,34.63-0.716c2.726-0.059,5.452-0.211,8.179-0.279
	c5.088-0.134,10.182-0.134,15.266-0.374c11.905-0.558,23.804-0.866,35.716-0.192c2.844,0.16,5.707-0.013,8.56-0.077
	c2.357-0.056,4.716-0.157,7.072-0.275c3.099-0.154,6.196-0.335,9.292-0.528c1.265-0.077,2.455-0.335,3.231-1.513
	c0.224-0.339,0.597-0.581,0.917-0.88c1.143,1.071,1.029,2.129,0.84,3.265c-0.241,1.457-0.459,2.936-0.496,4.408
	c-0.08,3.104-0.025,6.209-0.043,9.312c-0.039,7.696-0.109,15.394-0.121,23.094c-0.007,2.839-0.402,5.651-0.141,8.523
	c0.289,3.194,0.145,6.44,0.049,9.658c-0.146,4.96-0.47,9.915-0.603,14.876c-0.058,2.227,0.028,4.479,0.288,6.692
	c0.754,6.413,1.312,12.832,1.262,19.296c-0.016,1.862-0.059,3.729,0.05,5.586c0.206,3.631-0.274,7.176-1.159,10.683
	c-0.859,3.405-1.195,6.832-0.647,10.33c0.173,1.101,0.269,2.229,0.244,3.342c-0.1,4.847,0.08,9.665,1.05,14.436
	c0.105,0.521-0.176,1.122-0.285,1.729c-2.893,0.058-5.571-0.643-8.291-0.072c1.655,0.418,3.451,0.224,4.847,1.521
	c0.354,0.331,1.194,0.253,1.79,0.188c1.107-0.124,2.191-0.443,3.301-0.542c0.67-0.061,1.363,0.143,2.582,0.292
	c-0.732,0.646-1.024,1.114-1.396,1.189c-0.968,0.194-1.978,0.154-2.952,0.321c-5.902,1.013-11.829,1.263-17.809,0.929
	c-2.844-0.159-5.711-0.097-8.559,0.037c-9.299,0.44-18.604,0.505-27.91,0.654c-7.324,0.12-14.647,0.384-21.883,1.633
	c-6.384,1.101-12.826,1.509-19.274,1.66c-8.562,0.2-17.129,0.129-25.695,0.129c-2.354,0-4.732,0.016-7.061-0.289
	c-4.557-0.596-9.096-1.261-13.711-1.08c-0.721,0.028-1.453-0.184-2.158-0.283c-0.586-1.054-1.117-2.006-1.619-2.91
	C108.979,315.886,109.438,315.128,109.543,314.327z M247.839,173.378c0.602,1.171-0.039,1.647-0.837,1.641
	c-4.585-0.046-9.175-0.074-13.751-0.312c-7.058-0.365-14.057-1.438-21.139-1.714c-10.383-0.406-20.559,0.796-30.688,2.841
	c-6.206,1.254-12.491,2.061-18.812,2.192c-3.951,0.081-7.929-0.298-11.866-0.736c-6.668-0.745-13.35-0.977-20.053-0.959
	c-5.209,0.016-10.436,0.128-15.629-0.206c-3.367-0.215-6.686-0.127-10.023,0.102c-0.482,0.033-0.955,0.174-1.641,0.303
	c-0.139,0.835-0.414,1.658-0.391,2.473c0.1,3.472,0.211,6.945,0.453,10.405c0.953,13.617,2.152,27.22,2.234,40.88
	c0.047,7.713,0.857,15.354,1.719,22.999c0.787,7.018,1.59,14.037,2.48,21.044c0.359,2.823,0.959,5.616,1.479,8.419
	c1.023,5.507,1.26,11.079,1.531,16.659c0.135,2.818,0.559,5.625,0.869,8.579c-0.352,0.163-0.896,0.417-1.607,0.747
	c-0.385,1.97-0.41,4.036-0.256,6.312c0.906,0.239,1.697,0.554,2.514,0.646c3.99,0.441,7.916-0.333,11.861-0.679
	c6.545-0.575,13.082-1.231,19.623-1.87c5.922-0.577,11.836-1.247,17.764-1.746c4.945-0.415,9.905-0.886,14.858-0.886
	c7.065-0.001,14.127-0.152,21.191-0.17c4.835-0.011,9.664-0.038,14.5-0.174c3.955-0.112,7.926,0.312,11.885,0.558
	c4.572,0.279,9.121,1.02,13.729,0.412c1.467-0.193,2.977-0.021,4.464-0.106c1.077-0.062,2.146-0.272,3.513-0.455
	c-0.492-0.908-0.815-1.506-1.143-2.106c0.205-0.653,0.711-0.568,1.168-0.41c0.783,0.272,1.541,0.609,2.499,0.995
	c0.273-2.096,0.639-3.921,0.726-5.757c0.277-5.813,0.841-11.624-0.18-17.439c-0.342-1.943-0.311-3.954-0.377-5.938
	c-0.16-4.707-0.428-9.419-0.375-14.125c0.08-6.819,0.277-13.643,0.659-20.452c0.417-7.425,1.271-14.825,1.2-22.281
	c-0.02-2.222,0.337-4.446,0.381-6.674c0.04-1.846-0.135-3.692-0.197-5.54c-0.117-3.475-0.302-6.945-0.314-10.42
	c-0.025-6.205,0.044-12.408,0.1-18.615c0.014-1.362-0.064-2.775,0.257-4.075c0.444-1.808,0.245-3.398-0.817-5.14
	c-2.199-0.11-4.518-0.585-6.73,0.619c-0.168,0.033-0.336,0.066-0.502,0.1c0.072,0.009,0.16,0.045,0.22,0.021
	c0.089-0.036,0.159-0.113,0.237-0.174C245.727,173.239,246.828,173.309,247.839,173.378z M141.874,316.822
	c1.236,0.113,2.488,0.103,3.713,0.283c10.391,1.56,20.788,1.02,31.203,0.285c5.32-0.374,10.67-0.312,15.984-0.712
	c4.324-0.329,8.616-1.046,12.92-1.614c0.576-0.074,1.148-0.269,2.198-0.955c-2.651,0-4.634,0.056-6.612-0.009
	c-6.449-0.208-12.897-0.474-19.346-0.686c-2.101-0.067-4.177-0.073-6.284,0.399c-1.909,0.426-3.941,0.466-5.915,0.431
	c-5.713-0.104-11.366-0.087-17.038,1.064c-3.473,0.705-7.152,0.419-10.736,0.571c-0.465,0.021-0.928,0.004-1.391,0.004
	c-0.018,0.219-0.039,0.439-0.057,0.658C140.967,316.64,141.417,316.781,141.874,316.822z M180.108,173.85
	c-0.207-0.123-0.444-0.29-0.666-0.283c-11.353,0.348-22.703,0.713-34.057,1.089c-0.033,0-0.062,0.191-0.092,0.29
	c12.637,2.403,25.806,1.905,34.936-0.789C180.192,174.052,180.183,173.895,180.108,173.85z M134.665,319.983
	c6.023-0.163,12.051-0.129,18.893-0.186c-10.014-2.188-34.951-2.496-41.098-1.612C119.918,318.535,127.213,320.184,134.665,319.983z
	 M221.478,316.077c3.832-0.007,7.668-0.132,11.501-0.161c3.706-0.029,7.413-0.007,11.131-0.149
	c-4.194-0.306-8.387-0.632-12.581-0.91c-3.822-0.255-7.645-0.505-11.469-0.66c-3.324-0.135-6.447,0.874-9.562,1.937
	C214.179,317.133,217.826,316.083,221.478,316.077z M252.311,281.717c0.504-1.265,0.978-1.959,1.033-2.686
	c0.2-2.584,0.333-5.177,0.345-7.769c0.01-2.473-0.27-4.95-0.233-7.421c0.065-4.569-0.444-9.08-1.167-14.459
	C251.937,260.519,251.655,270.781,252.311,281.717z M175.089,311.909c-2.581,0.044-4.638-0.271-6.661,0.77
	C170.492,313.038,172.634,313.47,175.089,311.909z M207.984,312.98c-2.945-0.768-5.113-1.061-7.298,0
	C202.858,312.98,205.03,312.98,207.984,312.98z M101.366,180.441c-0.197,0.033-0.396,0.051-0.396,0.069
	c-0.014,1.726-0.012,3.451-0.012,5.177c0.137,0.006,0.273,0.014,0.408,0.021C101.366,183.984,101.366,182.259,101.366,180.441z
	 M237.997,173.509c1.045,0,2.091,0,3.773,0C240.02,172.468,239.019,173.033,237.997,173.509z M188.068,312.1
	c0,0.076-0.001,0.154-0.001,0.232c0.923,0,1.848,0,2.771,0c0.002-0.078,0.002-0.156,0.002-0.232
	C189.917,312.1,188.994,312.1,188.068,312.1z M101.942,191.284c-0.029,0-0.055,0-0.084,0c0,0.593,0,1.187,0,1.781
	c0.029,0,0.055,0,0.084,0C101.942,192.47,101.942,191.876,101.942,191.284z M219.434,312.171c0-0.044,0-0.086,0-0.129
	c-0.333,0-0.665,0-0.997,0c0,0.043,0,0.085,0,0.129C218.769,312.171,219.101,312.171,219.434,312.171z M252.335,310.085
	c-0.024,0.112-0.047,0.237-0.027,0.351c0.016,0.107,0.086,0.207,0.131,0.308c0.029-0.227,0.057-0.452,0.085-0.678
	C252.457,310.071,252.339,310.066,252.335,310.085z M183.095,173.747c0.062-0.118,0.124-0.235,0.184-0.351
	c-0.097-0.002-0.206-0.031-0.288,0.005c-0.066,0.028-0.1,0.133-0.146,0.206C182.929,173.653,183.011,173.7,183.095,173.747z
	 M103.256,210.757l0.127,0.242l0.072-0.311L103.256,210.757z"/>
<rect x="118.473" y="181.589" fill="none" width="104.335" height="45.646"/>
<text transform="matrix(1 0 0 1 118.4736 195.855)" fill="#FFFFFF" font-family="'DKCrayonCrumble'" font-size="23.1197">cipher day 3</text>
<g>
	<g>
		<g>
			<path fill="#3E3E3F" d="M313.742,74.926c-1.973-1.42-14.168-0.453-14.168-0.453s-12.275-0.967-14.248,0.453
				c0,0-0.08,1.856,0,2.842c1.893,0.947,0.631,2.525,1.893,2.841c1.578,0.395,8.25,0.948,9.475,0
				c1.289-0.999,1.895-3.789,2.842-3.789s1.553,2.79,2.84,3.789c1.225,0.948,7.896,0.395,9.475,0c1.262-0.316,0-1.894,1.893-2.841
				C313.822,76.782,313.742,74.926,313.742,74.926z"/>
		</g>
	</g>
	<g>
		<g>
			<path fill="#9CE5F4" d="M288.089,79.413c-0.908-1.82-0.611-4.08,0.229-4.194c0.838-0.114,6.711-0.762,9,0.343
				c0.912,0.441-0.268,4.279-1.604,4.423C292.894,80.291,288.585,80.405,288.089,79.413z"/>
		</g>
	</g>
	<g>
		<g>
			<path fill="#9CE5F4" d="M311.316,79.491c0.91-1.82,0.609-4.08-0.229-4.194c-0.84-0.114-6.711-0.763-8.998,0.344
				c-0.912,0.44,0.266,4.278,1.6,4.422C306.511,80.369,310.82,80.483,311.316,79.491z"/>
		</g>
	</g>
	<g>
		<g>
			<path fill="#C9F2F8" d="M288.318,75.216c-0.84,0.115-1.137,2.374-0.229,4.194c0.062,0.126,0.189,0.233,0.363,0.326l4.209-4.81
				C290.654,74.944,288.765,75.155,288.318,75.216z"/>
		</g>
	</g>
	<g>
		<g>
			<path fill="#C9F2F8" d="M302.089,75.636c-0.848,0.41,0.109,3.745,1.318,4.334l4.326-4.944
				C305.73,74.95,303.359,75.023,302.089,75.636z"/>
		</g>
	</g>
</g>
<g>
	<g>
		<path fill="#F79392" d="M295.099,88.462h8.892c0,0,0,2.668-4.446,2.668C295.099,91.13,295.099,88.462,295.099,88.462z"/>
	</g>
</g>
<g>
	<g>
		<path fill="#682D18" d="M311.537,81.415c-0.026-0.299-0.293-0.542-0.641-0.584c-0.348-0.041-0.684,0.13-0.804,0.413
			c-0.886,2.074-2.466,6.91-3.349,6.533c-0.745-0.317-2.235-2.226-4.846-2.226c-2.235,0-2.235,0-4.473,0
			c-2.609,0-4.102,1.909-4.846,2.226c-0.883,0.376-2.464-4.506-3.349-6.58c-0.12-0.281-0.455-0.453-0.802-0.411
			c-0.35,0.042-0.617,0.285-0.643,0.583c-0.034,0.403-0.055,2.332-0.055,2.91c0,3.498,0.747,14.312,11.931,14.312
			c11.183,0,11.928-10.814,11.928-14.312C311.59,83.701,311.57,81.818,311.537,81.415z M299.663,87.459
			c2.235,1.59,4.1,0.636,5.591,1.907c1.864,1.59-0.373,3.818-2.982,3.818c-1.062,0-1.368-0.646-1.454-1.019
			c-0.036-0.147-0.189-0.255-0.367-0.255h-0.787h-0.79c-0.177,0-0.328,0.107-0.365,0.255c-0.088,0.373-0.394,1.019-1.455,1.019
			c-2.609,0-4.845-2.228-2.981-3.818"/>
	</g>
</g>
<g>
	<path fill="#3E3E3F" d="M184.5,234c0-4.971-5-11-14-11s-14,6.029-14,11l-4.75,13.188c-0.275,0.619-0.219,1.336,0.15,1.902
		c0.369,0.568,1,0.91,1.678,0.91c7.654,0,25.816,0,33.844,0c0.678,0,1.309-0.342,1.678-0.91c0.369-0.566,0.426-1.283,0.15-1.902
		L184.5,234z"/>
	<path fill="#5B5C5F" d="M170.5,223c-9,0-14,6.029-14,11l-4.75,13.188c-0.275,0.619-0.219,1.336,0.15,1.904
		c0.369,0.566,1,0.908,1.678,0.908c3.855,0,10.375,0,16.922,0V223z"/>
	<path fill="#5B5C5F" d="M182.5,239c0-3.314-2.91-6-6.5-6c-2.318,0-4.35,1.125-5.5,2.812c-1.15-1.688-3.18-2.812-5.5-2.812
		c-3.59,0-6.5,2.686-6.5,6c0,0.934,4,16,4,16h16C178.5,255,182.5,239.934,182.5,239z"/>
	<path fill="#818284" d="M170.5,235.813c-1.15-1.688-3.18-2.812-5.5-2.812c-3.59,0-6.5,2.686-6.5,6c0,0.934,4,16,4,16h8V235.813z"/>
	<path fill="#3E3E3F" d="M192.453,261.833c-1.219-4.262-4.508-7.619-8.744-8.922L177.5,251h-7h-7l-6.207,1.91
		c-4.236,1.303-7.527,4.66-8.744,8.922L142.5,283c6.668,2.666,17.334,4,28,4c10.668,0,21.334-1.334,28-4L192.453,261.833z"/>
	<path fill="#5B5C5F" d="M171.5,251h-1h-7l-6.207,1.91c-4.236,1.303-7.527,4.66-8.744,8.922L142.5,283c6.668,2.666,17.334,4,28,4
		c0.334,0,0.666-0.006,1-0.008V251z"/>
	<path fill="#5B5C5F" d="M192.453,261.833c-1.219-4.262-4.508-7.619-8.744-8.922L177.5,251h-7h-7l-6.207,1.91
		c-4.236,1.303-7.527,4.66-8.744,8.922l-0.051,0.174c2.877-0.873,6.314-2.006,10.002-2.006c6,0,8,3,12,3s6-3,12-3
		c3.688,0,7.125,1.133,10.002,2.006L192.453,261.833z"/>
	<path fill="#818284" d="M171.5,251h-1h-7l-6.207,1.91c-4.236,1.303-7.527,4.66-8.744,8.922l-0.051,0.174
		c2.877-0.873,6.314-2.006,10.002-2.006c6,0,8,3,12,3c0.35,0,0.678-0.029,1-0.072V251z"/>
	<path fill="#FA5655" d="M195.5,226c0-1.656,1.344-3,3-3c1.658,0,3,1.344,3,3v41h-6V226z"/>
	<path fill="#3E3E3F" d="M201.5,262h-6v23c0,1.104,0.896,2,2,2h2c1.105,0,2-0.896,2-2V262z"/>
	<path fill="#818284" d="M162.5,267c0-1.105,0.896-2,2-2h12c1.105,0,2,0.895,2,2v12c0,1.104-0.895,2-2,2h-12c-1.104,0-2-0.896-2-2
		V267z"/>
	<rect x="165.5" y="274" fill="#3E3E3F" width="2" height="5"/>
	<rect x="165.5" y="267" fill="#21B2D1" width="4" height="2"/>
	<rect x="165.5" y="270" fill="#21B2D1" width="4" height="2"/>
	<rect x="169.5" y="274" fill="#3E3E3F" width="2" height="5"/>
	<rect x="173.5" y="274" fill="#3E3E3F" width="2" height="5"/>
	<rect x="171.5" y="267" fill="#FA5655" width="4" height="5"/>
	<ellipse fill="#3E3E3F" cx="165" cy="239" rx="4.5" ry="3.375"/>
	<ellipse fill="#3E3E3F" cx="176" cy="239.375" rx="4.5" ry="3.375"/>
	<path fill="#3E3E3F" d="M162.5,255c0,0,6-12,8-12s8,12,8,12H162.5z"/>
	<circle fill="#3E3E3F" cx="164" cy="254.5" r="2.5"/>
	<circle fill="#3E3E3F" cx="177" cy="254.5" r="2.5"/>
	<ellipse fill="#CFD3D4" cx="164" cy="238" rx="1.5" ry="1"/>
	<ellipse fill="#CFD3D4" cx="175" cy="238" rx="1.5" ry="1"/>
	<path fill="#5B5C5F" d="M169.5,252.5c0,0.275-0.223,0.5-0.5,0.5h-1c-0.275,0-0.5-0.225-0.5-0.5v-3.35
		c0-0.098,0.029-0.195,0.084-0.277l1-1.5c0.123-0.182,0.35-0.264,0.561-0.201c0.211,0.064,0.355,0.26,0.355,0.479V252.5z"/>
	<path fill="#5B5C5F" d="M173.5,252.5c0,0.275-0.223,0.5-0.5,0.5h-1c-0.275,0-0.5-0.225-0.5-0.5v-4.85
		c0-0.219,0.145-0.414,0.355-0.479c0.211-0.062,0.439,0.02,0.561,0.201l1,1.5c0.055,0.082,0.084,0.18,0.084,0.277V252.5z"/>
	<path fill="#818284" d="M193.58,277.586c0.283,0.84,1.139,1.414,2.105,1.414h5.609c1.219,0,2.205-0.896,2.205-2v-8
		c0-1.105-0.986-2-2.205-2h-6.014c-1.064,0-1.975,0.689-2.166,1.641C192.513,271.622,192.57,274.604,193.58,277.586z"/>
</g>
</svg>
