<?xml version="1.0" encoding="utf-8"?>
<!-- Generator: Adobe Illustrator 16.0.0, SVG Export Plug-In . SVG Version: 6.00 Build 0)  -->
<!DOCTYPE svg PUBLIC "-//W3C//DTD SVG 1.1//EN" "http://www.w3.org/Graphics/SVG/1.1/DTD/svg11.dtd">
<svg version="1.1" id="Layer_1" xmlns="http://www.w3.org/2000/svg" xmlns:xlink="http://www.w3.org/1999/xlink" x="0px" y="0px"
	 width="236px" height="321px" viewBox="0 0 236 321" enable-background="new 0 0 236 321" xml:space="preserve">
<g>
	<path fill="#FFEB3B" d="M63.691,138.417c-6.135-20.485-1.365-43.589,14.649-59.955c23.381-23.895,61.709-24.31,85.604-0.927
		c23.898,23.381,24.313,61.711,0.931,85.605c-16.069,16.422-39.197,21.74-59.852,15.875c-3.582-0.81-8.959,0.75-10.932,5.799
		c-1.662,4.25,0.953,9.432,5.656,10.836c26.807,7.988,56.675,1.067,77.595-20.308c30.123-30.787,29.591-80.157-1.192-110.279
		C145.365,34.941,95.995,35.477,65.871,66.26c-20.73,21.184-26.625,51.078-18.744,77.626c1.162,3.914,5.857,7.664,11.021,6.079
		C63.807,148.228,64.536,141.249,63.691,138.417z"/>
	<path fill="#FFC107" d="M130.99,162.422c-14.36,3.148-29.942-1.311-40.332-13.131c-15.166-17.252-13.477-43.539,3.781-58.708
		c17.254-15.168,43.536-13.475,58.709,3.777c10.422,11.864,12.877,27.986,7.789,41.833c-0.735,2.416,0.054,6.18,3.412,7.79
		c2.83,1.361,6.51-0.165,7.715-3.315c6.855-17.954,3.66-38.78-9.916-54.218c-19.539-22.231-53.398-24.41-75.628-4.869
		c-22.226,19.539-24.407,53.398-4.866,75.627c13.444,15.299,33.628,20.88,52.229,16.851c2.737-0.595,5.553-3.621,4.731-7.242
		C137.714,162.854,132.971,161.991,130.99,162.422z"/>
	<path fill="#9DBB72" d="M196.093,162.001c-14.481,26.388-42.514,44.28-74.739,44.28c-47.06,0-85.205-38.146-85.205-85.206
		c0-47.056,38.146-85.206,85.205-85.206c32.35,0,60.463,18.035,74.895,44.583c1.585,2.765,5.677,7.901,14.175,4.109
		c5.388-2.405,7.786-7.733,5.167-12.59c-18.671-34.658-52.125-52.9-94.232-52.9c-53.302,0-102.006,41.388-102.006,102.004
		c0,60.622,46.693,103.301,102.006,103.301c41.718,0,73.754-18.312,92.67-52.387c3.174-5.716,0.537-10.397-3.655-12.927
		C205.544,156.159,199.176,156.374,196.093,162.001z"/>
</g>
</svg>
