<?xml version="1.0" encoding="utf-8"?>
<!-- Generator: Adobe Illustrator 16.0.0, SVG Export Plug-In . SVG Version: 6.00 Build 0)  -->
<!DOCTYPE svg PUBLIC "-//W3C//DTD SVG 1.1//EN" "http://www.w3.org/Graphics/SVG/1.1/DTD/svg11.dtd">
<svg version="1.1" id="Layer_1" xmlns="http://www.w3.org/2000/svg" xmlns:xlink="http://www.w3.org/1999/xlink" x="0px" y="0px"
	 width="631.18px" height="205.307px" viewBox="0 0 631.18 205.307" enable-background="new 0 0 631.18 205.307"
	 xml:space="preserve">
<g>
	<path fill="#58595B" d="M251.637,103.788v-0.253c0-18.908,14.621-34.792,34.664-34.792c10.463,0,17.649,3.403,23.323,8.32
		c1.006,0.882,2.397,2.771,2.397,5.294c0,3.907-3.152,6.933-7.064,6.933c-1.889,0-3.527-0.757-4.537-1.513
		c-3.907-3.278-8.194-5.673-14.243-5.673c-11.094,0-19.288,9.581-19.288,21.179v0.251c0,11.85,8.194,21.304,19.92,21.304
		c6.048,0,10.715-2.395,14.873-5.924c0.883-0.756,2.397-1.639,4.159-1.639c3.655,0,6.558,3.024,6.558,6.681
		c0,2.019-0.758,3.655-2.144,4.79c-5.925,5.673-13.111,9.456-24.205,9.456C266.258,138.203,251.637,122.698,251.637,103.788z"/>
	<path fill="#58595B" d="M325.769,52.229c0-4.537,3.779-7.438,8.697-7.438c4.917,0,8.697,2.899,8.697,7.438v0.757
		c0,4.538-3.78,7.562-8.697,7.562c-4.918,0-8.697-3.023-8.697-7.562V52.229z M326.903,77.064c0-4.287,3.273-7.69,7.562-7.69
		c4.286,0,7.689,3.403,7.689,7.69v52.69c0,4.286-3.403,7.564-7.689,7.564c-4.159,0-7.562-3.278-7.562-7.564V77.064z"/>
	<path fill="#58595B" d="M360.817,77.064c0-4.287,3.274-7.69,7.562-7.69s7.69,3.403,7.69,7.69v4.16
		c4.919-6.935,11.85-12.48,22.69-12.48c15.632,0,30.887,12.354,30.887,34.541v0.251c0,22.062-15.131,34.541-30.887,34.541
		c-11.095,0-18.023-5.546-22.69-11.723v23.571c0,4.285-3.403,7.563-7.69,7.563c-4.158,0-7.562-3.278-7.562-7.563V77.064z
		 M414.143,103.535v-0.251c0-12.858-8.7-21.305-19.034-21.305c-10.342,0-19.417,8.571-19.417,21.305v0.251
		c0,12.733,9.075,21.304,19.417,21.304C405.569,124.839,414.143,116.646,414.143,103.535z"/>
	<path fill="#58595B" d="M444.149,51.599c0-4.16,3.277-7.563,7.564-7.563s7.69,3.404,7.69,7.563v28.739
		c4.281-6.176,10.463-11.597,20.799-11.597c15.001,0,23.697,10.085,23.697,25.464v35.549c0,4.286-3.275,7.564-7.562,7.564
		c-4.286,0-7.688-3.278-7.688-7.564V98.871c0-10.337-5.172-16.261-14.241-16.261c-8.826,0-15.002,6.177-15.002,16.515v30.632
		c0,4.286-3.403,7.564-7.69,7.564c-4.163,0-7.564-3.278-7.564-7.564L444.149,51.599L444.149,51.599z"/>
	<path fill="#58595B" d="M551.564,138.203c-19.288,0-34.161-13.994-34.161-34.541v-0.253c0-19.035,13.484-34.666,32.521-34.666
		c21.178,0,31.643,17.396,31.643,32.775c0,4.285-3.276,7.312-7.186,7.312h-41.727c1.637,10.84,9.327,16.894,19.159,16.894
		c6.432,0,11.474-2.271,15.761-5.801c1.135-0.883,2.142-1.388,3.907-1.388c3.401,0,6.047,2.648,6.047,6.178
		c0,1.893-0.877,3.53-2.015,4.664C569.466,134.799,561.903,138.203,551.564,138.203z M566.692,98.746
		c-1.013-9.833-6.809-17.521-16.896-17.521c-9.329,0-15.885,7.185-17.271,17.521H566.692z"/>
	<path fill="#58595B" d="M595.944,77.064c0-4.287,3.274-7.69,7.562-7.69c4.286,0,7.69,3.403,7.69,7.69v6.806
		c3.529-8.319,10.083-14.623,16.768-14.623c4.789,0,7.562,3.151,7.562,7.563c0,4.032-2.648,6.682-6.055,7.312
		c-10.838,1.893-18.274,10.21-18.274,25.969v19.665c0,4.16-3.404,7.564-7.69,7.564c-4.159,0-7.562-3.278-7.562-7.564L595.944,77.064
		L595.944,77.064z"/>
</g>
<g>
	<path fill="#31BDA5" d="M48.691,119.346c-6.135-20.485-1.365-43.59,14.649-59.955c23.381-23.896,61.709-24.311,85.604-0.928
		c23.898,23.382,24.313,61.711,0.929,85.605c-16.07,16.422-39.197,21.742-59.852,15.875c-3.582-0.809-8.959,0.751-10.932,5.8
		c-1.662,4.25,0.953,9.432,5.656,10.836c26.807,7.987,56.675,1.068,77.595-20.307c30.123-30.787,29.589-80.157-1.194-110.279
		C130.363,15.871,80.993,16.407,50.869,47.19c-20.73,21.184-26.625,51.078-18.744,77.626c1.162,3.914,5.857,7.664,11.021,6.078
		C48.807,129.157,49.536,122.178,48.691,119.346z"/>
	<path fill="#DF4E5E" d="M115.99,143.35c-14.36,3.149-29.942-1.312-40.332-13.132c-15.166-17.252-13.477-43.537,3.781-58.707
		c17.254-15.169,43.536-13.476,58.71,3.776c10.422,11.864,12.876,27.986,7.789,41.833c-0.736,2.416,0.053,6.18,3.411,7.79
		c2.831,1.361,6.511-0.165,7.716-3.314c6.856-17.954,3.659-38.78-9.916-54.219c-19.54-22.23-53.399-24.41-75.629-4.869
		c-22.226,19.539-24.407,53.397-4.866,75.627c13.444,15.301,33.628,20.881,52.229,16.851c2.737-0.594,5.552-3.62,4.731-7.241
		C122.714,143.782,117.97,142.92,115.99,143.35z"/>
	<path fill="#F9BB3C" d="M181.093,142.93c-14.482,26.387-42.514,44.279-74.739,44.279c-47.06,0-85.205-38.146-85.205-85.206
		c0-47.056,38.146-85.206,85.205-85.206c32.348,0,60.463,18.035,74.893,44.583c1.585,2.766,5.677,7.901,14.175,4.109
		c5.387-2.405,7.786-7.733,5.167-12.59C181.918,18.242,148.464,0,106.355,0C53.052,0.001,4.348,41.388,4.348,102.005
		c0,60.622,46.693,103.302,102.006,103.302c41.718,0,73.755-18.312,92.671-52.389c3.173-5.715,0.537-10.396-3.656-12.926
		C190.544,137.088,184.176,137.302,181.093,142.93z"/>
</g>
</svg>
