<?xml version="1.0" encoding="utf-8"?>
<!-- Generator: Adobe Illustrator 16.0.0, SVG Export Plug-In . SVG Version: 6.00 Build 0)  -->
<!DOCTYPE svg PUBLIC "-//W3C//DTD SVG 1.1//EN" "http://www.w3.org/Graphics/SVG/1.1/DTD/svg11.dtd">
<svg version="1.1" id="Layer_1" xmlns="http://www.w3.org/2000/svg" xmlns:xlink="http://www.w3.org/1999/xlink" x="0px" y="0px"
	 width="110px" height="110px" viewBox="0 0 110 110" enable-background="new 0 0 110 110" xml:space="preserve">
<path fill="#DF4E5E" d="M16.108,16.109c21.479-21.479,56.304-21.478,77.782,0"/>
<path fill="#DF4E5E" d="M93.891,93.891c-21.479,21.479-56.303,21.479-77.782,0c-21.479-21.479-21.479-56.303,0-77.782"/>
<path fill="#DF4E5E" d="M93.891,16.109c21.479,21.479,21.479,56.303,0,77.781"/>
<g>
	<path fill="#FFE9A1" d="M64.977,64.023v-0.002l-5.105,3.996c-0.568,0.64-1.385,1.004-2.24,1.004h-2.654h-2.654
		c-0.856,0-1.672-0.364-2.24-1.004l-5.105-3.996v3.006l-2,1l12,19.002l9.844-15.59C64.975,68.036,64.977,65.302,64.977,64.023z
		 M54.976,75.029l-0.008-0.006c0.003,0,0.006,0,0.008,0s0.005,0,0.008,0L54.976,75.029z"/>
	<g>
		<path fill="#F5C43D" d="M22.976,87.027l4-11c0.615-1.334,1.697-2.395,3.043-2.982l12.957-5.018l12,19H22.976z"/>
	</g>
	<path fill="#FFF5D9" d="M54.976,69.021h-2.654c-0.856,0-1.672-0.364-2.24-1.004l-5.105-3.996v0.002
		c0,1.277,0.002,4.013,0.156,7.416l9.844,15.59v-12l-0.008-0.006c0.003,0,0.006,0,0.008,0L54.976,69.021L54.976,69.021z"/>
	<g>
		<path fill="#FFFFFF" d="M44.976,64.023c0,3,0,14,2,23c-13,0-14,0-14,0l3-19L44.976,64.023z"/>
	</g>
	<g>
		<polygon fill="#FFE9A1" points="42.226,87.023 40.226,69.023 39.226,87.023 		"/>
	</g>
	<path fill="#FFF5D9" d="M41.976,56.023l3,7.998l5.105,3.996c0.568,0.64,1.384,1.004,2.24,1.004h2.654h2.654
		c0.855,0,1.672-0.364,2.24-1.004l5.105-3.996l3.207-8.018c2.834-0.204,3.793-4.505,3.793-7.758c0-1.085-0.955-2.163-1.932-2.213
		c-0.684,3.405-1.521,6.847-2.068,9.99h-1v-13h-24v13H41.976z"/>
	<g>
		<path fill="#F5C43D" d="M86.977,87.027l-4-11c-0.615-1.334-1.697-2.395-3.043-2.982l-12.957-5.018l-12,19H86.977z"/>
	</g>
	<g>
		<path fill="#FFFFFF" d="M64.977,64.023c0,3,0,14-2,23c13,0,14,0,14,0l-3-19L64.977,64.023z"/>
	</g>
	<g>
		<polygon fill="#FFE9A1" points="67.727,87.023 69.727,69.023 70.727,87.023 		"/>
	</g>
	<path fill="#FFFFFF" d="M42.976,43.024v13h-1c0,0-1.572-4.979-2.746-9.8c-0.697,0.367-1.254,1.195-1.254,2.024
		c0,3.253,0.957,7.554,3.793,7.758l3.207,8.019l5.105,3.994c0.568,0.641,1.384,1.006,2.24,1.006h2.654v-26H42.976z"/>
	<g>
		<path fill="#F5C43D" d="M49.976,58.021h10c0,0,0,3-5,3C49.976,61.021,49.976,58.021,49.976,58.021z"/>
	</g>
	<g>
		<path fill="#3D320C" d="M51.97,48.062c0-1.105-0.896-2-2-2c-0.002,0-0.004,0-0.007,0c0.001,0.021,0.007,0.041,0.007,0.062
			c0,1.103-0.893,1.996-1.994,2c0.033,1.075,0.91,1.938,1.994,1.938C51.073,50.062,51.97,49.166,51.97,48.062z"/>
	</g>
	<g>
		<path fill="#3D320C" d="M61.963,48.062c0-1.105-0.896-2-2-2c-0.002,0-0.004,0-0.007,0c0.002,0.021,0.007,0.041,0.007,0.062
			c0,1.103-0.893,1.996-1.992,2c0.032,1.075,0.909,1.938,1.992,1.938C61.066,50.062,61.963,49.166,61.963,48.062z"/>
	</g>
	<g>
		<path fill="#3D320C" d="M41.976,56.023c0,0-4-12.666-4-17.153c0-11.012,16.611-14.846,16.611-14.846v5l5-5v5l4-3
			c12.334,3,6.39,18.5,4.39,30h-1v-13h-24v13H41.976z"/>
	</g>
	<g>
		<polygon fill="#FFAA00" points="70.977,44.024 37.976,44.024 36.976,38.024 71.977,38.024 		"/>
	</g>
	<g>
		<polygon fill="#FA9200" points="54.976,44.024 70.977,44.024 71.977,38.024 54.976,38.024 		"/>
	</g>
</g>
</svg>
