<?xml version="1.0" encoding="utf-8"?>
<!-- Generator: Adobe Illustrator 16.0.0, SVG Export Plug-In . SVG Version: 6.00 Build 0)  -->
<!DOCTYPE svg PUBLIC "-//W3C//DTD SVG 1.1//EN" "http://www.w3.org/Graphics/SVG/1.1/DTD/svg11.dtd">
<svg version="1.1" id="Layer_1" xmlns="http://www.w3.org/2000/svg" xmlns:xlink="http://www.w3.org/1999/xlink" x="0px" y="0px"
	 width="110px" height="110px" viewBox="0 0 110 110" enable-background="new 0 0 110 110" xml:space="preserve">
<g>
	<path fill="#24B6D2" d="M55,0c30.375,0,55,24.625,55,55"/>
	<path fill="#24B6D2" d="M0,55C0,24.625,24.625,0,55,0"/>
	<path fill="#24B6D2" d="M55,110C24.625,110,0,85.376,0,55"/>
	<path fill="#24B6D2" d="M110,55c0,30.376-24.625,55-55,55"/>
</g>
<g>
	<g>
		<g>
			<path fill="#FBE158" d="M81.846,73.162c-0.615-1.334-1.697-2.395-3.043-2.982l-11.957-4.018h-13h-13L28.888,70.18
				c-1.345,0.588-2.427,1.648-3.042,2.982l-4,11h32h32L81.846,73.162z"/>
		</g>
	</g>
	<g>
		<g>
			<path fill="#DF2C2C" d="M53.845,76.198c3.858,0,13-1,13-7c0-0.676,0-1.788,0-3.071h-3v3.071c0,0-2,4-10,4c-8,0-10-4-10-4v-3.071
				h-3c0,1.283,0,2.396,0,3.071C40.845,75.198,49.988,76.198,53.845,76.198z"/>
		</g>
	</g>
	<g>
		<g>
			<path fill="#F3B607" d="M31.74,69.222l-2.852,0.958c-1.345,0.588-2.427,1.648-3.042,2.982l-4,11h11.914L31.74,69.222z"/>
		</g>
	</g>
	<g>
		<g>
			<path fill="#F3B607" d="M75.949,69.222l2.854,0.958c1.346,0.588,2.428,1.648,3.043,2.982l4,11H73.932L75.949,69.222z"/>
		</g>
	</g>
	<g>
		<path fill="#F4D0A1" d="M56.5,65.162h-2.655H51.19c-0.856,0-1.671-0.365-2.24-1.005l-5.105-3.995v9.036c0,0,2,4,10,4
			c8,0,10-4,10-4v-9.036l-5.105,3.995C58.17,64.797,57.355,65.162,56.5,65.162z"/>
	</g>
	<g>
		<path fill="#F8E1C2" d="M48.951,64.157l-5.105-3.995v9.036c0,0,2,4,10,4v-8.036H51.19C50.334,65.162,49.52,64.797,48.951,64.157z"
			/>
	</g>
	<g>
		<path fill="#F8E1C2" d="M69.762,42.507c-0.189,1.765-0.82,4.691-2.916,4.691c0-3,0-8,0-8s-1,4-5,4c0-4,0-11,0-11s-2,11-10,11
			c0-2,0-7,0-7s-3,7-7,7c0-3,0-6,0-6l-4,5v5c0,0-0.45-0.302-1-0.901v3.865l4,10l5.105,3.995c0.569,0.64,1.384,1.005,2.24,1.005
			h2.655H56.5c0.855,0,1.67-0.365,2.24-1.005l5.105-3.995l3.191-7.982c2.848-0.19,3.809-4.5,3.809-7.759
			C70.846,43.662,70.375,42.913,69.762,42.507z"/>
	</g>
	<g>
		<path fill="#FCF1E2" d="M51.845,43.198c0-2,0-7,0-7s-3,7-7,7c0-3,0-6,0-6l-4,5v5c0,0-2.365-1.583-2.892-4.742
			c-0.626,0.4-1.108,1.16-1.108,1.929c0,3.253,0.958,7.553,3.792,7.758l3.208,8.02l5.105,3.995c0.569,0.64,1.384,1.005,2.24,1.005
			h2.655V42.948C53.224,43.107,52.56,43.198,51.845,43.198z"/>
	</g>
	<g>
		<g>
			<path fill="#F79392" d="M48.845,54.195h10c0,0,0,3-5,3C48.845,57.195,48.845,54.195,48.845,54.195z"/>
		</g>
	</g>
	<g>
		<g>
			<path fill="#3E3E3F" d="M69.846,41.198c0-9.941-6.061-18-16-18c-9.941,0-16,8.059-16,18c0,4,3,6,3,6v-5l4-5c0,0,0,3,0,6
				c4,0,7-7,7-7s0,5,0,7c8,0,10-11,10-11s0,7,0,11c4,0,5-4,5-4s0,5,0,8C69.846,47.198,69.846,41.198,69.846,41.198z"/>
		</g>
	</g>
	<g>
		<g>
			<path fill="#3E3E3F" d="M59.852,45.484c1.191,0,2.248,0.266,2.98,0.678c0.072-0.569-0.17-1.154-0.746-1.59
				c-1.031-0.781-2.703-0.781-3.734,0c-0.465,0.352-0.709,0.801-0.752,1.26C58.24,45.613,59.016,45.484,59.852,45.484z"/>
		</g>
	</g>
	<g>
		<g>
			<path fill="#3E3E3F" d="M47.845,45.484c-1.191,0-2.249,0.266-2.981,0.678c-0.07-0.569,0.172-1.154,0.749-1.59
				c1.03-0.781,2.702-0.781,3.733,0c0.464,0.352,0.709,0.801,0.753,1.26C49.457,45.613,48.681,45.484,47.845,45.484z"/>
		</g>
	</g>
</g>
</svg>
