<?xml version="1.0" encoding="utf-8"?>
<!-- Generator: Adobe Illustrator 16.0.0, SVG Export Plug-In . SVG Version: 6.00 Build 0)  -->
<!DOCTYPE svg PUBLIC "-//W3C//DTD SVG 1.1//EN" "http://www.w3.org/Graphics/SVG/1.1/DTD/svg11.dtd">
<svg version="1.1" id="Layer_1" xmlns="http://www.w3.org/2000/svg" xmlns:xlink="http://www.w3.org/1999/xlink" x="0px" y="0px"
	 width="110px" height="110px" viewBox="0 0 110 110" enable-background="new 0 0 110 110" xml:space="preserve">
<path fill="#31BDA5" d="M16.108,16.109c21.479-21.479,56.304-21.478,77.782,0"/>
<path fill="#31BDA5" d="M93.891,93.891c-21.479,21.479-56.303,21.479-77.782,0c-21.479-21.479-21.479-56.303,0-77.782"/>
<path fill="#31BDA5" d="M93.891,16.109c21.479,21.479,21.479,56.303,0,77.781"/>
<g>
	<g>
		<path fill="#BF8662" d="M69.11,46.677c-8.942-0.024-13.886-2.783-13.886-10.29c-4.018,0-7.982,8-7.982,8l-0.018-7
			c-4.996,0-7.994,8.984-8,8.999v0.001c-0.367,0-0.723,0-1,0c-1,0-2,1.111-2,2.223c0,3.09,0.864,7.13,4.178,7.703
			c2.441,9.102,8.219,12.539,12.822,14.074c4.604-1.535,10.381-4.973,12.822-14.074c3.313-0.573,4.178-4.613,4.178-7.703
			C70.225,47.839,69.739,47.077,69.11,46.677z"/>
	</g>
	<g>
		<path fill="#FACB1B" d="M81.633,79.052c-0.889-2.312-2.797-4.08-5.168-4.792l-13.24-2.872h-10h-10l-13.24,2.872
			c-2.371,0.712-4.279,2.48-5.168,4.792l-3.592,7.336h64L81.633,79.052z"/>
	</g>
	<g>
		<path fill="#AF7653" d="M53.225,70.388v11l10-10v-8.566C60.383,67.217,56.508,69.293,53.225,70.388z"/>
	</g>
	<g>
		<path fill="#BF8662" d="M43.225,62.821v8.566l10,10v-11C49.941,69.293,46.066,67.217,43.225,62.821z"/>
	</g>
	<g>
		<path fill="#CC9978" d="M47.242,44.388l-0.018-7c-4.996,0-7.994,8.984-8,8.999v0.001c-0.367,0-0.723,0-1,0c-1,0-2,1.111-2,2.223
			c0,3.09,0.864,7.13,4.178,7.703c2.441,9.102,8.219,12.539,12.822,14.074V37.003C49.988,38.864,47.242,44.388,47.242,44.388z"/>
	</g>
	<g>
		<g>
			<path fill="#84462D" d="M48.225,59.388h10c0,0,0,3-5,3S48.225,59.388,48.225,59.388z"/>
		</g>
	</g>
	<g>
		<g>
			<path fill="#3E3E3F" d="M50.23,48.388c0-1.104-0.895-2-2-2c-0.002,0-0.004,0-0.006,0c0.001,0.021,0.006,0.041,0.006,0.062
				c0,1.102-0.892,1.996-1.993,1.999c0.033,1.076,0.91,1.938,1.993,1.938C49.336,50.388,50.23,49.492,50.23,48.388z"/>
		</g>
	</g>
	<g>
		<g>
			<path fill="#3E3E3F" d="M60.225,48.388c0-1.104-0.896-2-2-2c-0.002,0-0.004,0-0.006,0c0,0.021,0.006,0.041,0.006,0.062
				c0,1.102-0.893,1.996-1.994,1.999c0.033,1.076,0.91,1.938,1.994,1.938C59.329,50.388,60.225,49.492,60.225,48.388z"/>
		</g>
	</g>
	<g>
		<path fill="#3E3E3F" d="M69.987,24.388c-4.815,0-8.335,1.859-10.737,3.989c-1.854-0.64-3.882-0.989-6.008-0.989
			c-14.75,0-16,12-16,13c0,5,1.982,6,1.982,6s3-9,8-9l0.018,7c0,0,3.965-8,7.982-8c0,7.539,4.982,10.292,14,10.292l0.018-6.292
			h-0.057c-0.311-4.067-2.498-7.54-5.778-9.875c6.084-3.006,21.963,6.907,8.817,20.875C91.225,53.388,88.858,24.388,69.987,24.388z"
			/>
	</g>
	<g>
		<g>
			<path fill="#FACB1B" d="M66.075,30.009c0.717,0.542,0.858,1.562,0.317,2.279c-0.542,0.716-1.562,0.858-2.279,0.317l-5.118-3.935
				c-0.717-0.542-0.858-1.562-0.317-2.279c0.543-0.717,1.562-0.858,2.279-0.316L66.075,30.009z"/>
		</g>
	</g>
</g>
</svg>
