<?xml version="1.0" encoding="utf-8"?>
<!-- Generator: Adobe Illustrator 16.0.0, SVG Export Plug-In . SVG Version: 6.00 Build 0)  -->
<!DOCTYPE svg PUBLIC "-//W3C//DTD SVG 1.1//EN" "http://www.w3.org/Graphics/SVG/1.1/DTD/svg11.dtd">
<svg version="1.1" id="Layer_1" xmlns="http://www.w3.org/2000/svg" xmlns:xlink="http://www.w3.org/1999/xlink" x="0px" y="0px"
	 width="110px" height="110px" viewBox="0 0 110 110" enable-background="new 0 0 110 110" xml:space="preserve">
<g>
	<path fill="#F9BB3C" d="M0,55C0,24.625,24.624,0,55,0"/>
	<path fill="#F9BB3C" d="M55,0c30.376,0,55,24.625,55,55c0,30.376-24.624,55-55,55"/>
	<path fill="#F9BB3C" d="M55,110C24.624,110,0,85.376,0,55"/>
</g>
<g>
	<g>
		<path fill="#FFFFFF" d="M79,23c4.42,0,8,3.58,8,8v48c0,4.42-3.58,8-8,8H31c-4.42,0-8-3.58-8-8V31c0-4.42,3.58-8,8-8H79z"/>
	</g>
	<g>
		<path fill="#D06056" d="M23,35v44c0,4.42,3.58,8,8,8h16V35H23z"/>
	</g>
	<g>
		<path fill="#4A1410" d="M79,23H31c-4.418,0-8,3.582-8,8v4h64v-4C87,26.582,83.418,23,79,23z"/>
	</g>
	<g>
		<circle fill="#FF6C5E" cx="32" cy="29" r="2"/>
	</g>
	<g>
		<circle fill="#FF6C5E" cx="40" cy="29" r="2"/>
	</g>
	<g>
		<circle fill="#FF6C5E" cx="48" cy="29" r="2"/>
	</g>
	<g>
		<rect x="53" y="41" fill="#FF6C5E" width="28" height="12"/>
	</g>
	<g>
		<rect x="53" y="58" fill="#FF6C5E" width="11" height="9"/>
	</g>
	<g>
		<rect x="70" y="58" fill="#FF6C5E" width="11" height="9"/>
	</g>
	<g>
		<rect x="53" y="71" fill="#FF6C5E" width="11" height="9"/>
	</g>
	<g>
		<rect x="70" y="71" fill="#FF6C5E" width="11" height="9"/>
	</g>
	<g>
		<rect x="29" y="42" fill="#FFEFED" width="12" height="3"/>
	</g>
	<g>
		<rect x="29" y="50" fill="#FFEFED" width="12" height="3"/>
	</g>
	<g>
		<rect x="29" y="58" fill="#FFEFED" width="12" height="3"/>
	</g>
	<g>
		<rect x="29" y="66" fill="#FFEFED" width="12" height="3"/>
	</g>
	<g>
		<rect x="29" y="74" fill="#FFEFED" width="12" height="3"/>
	</g>
</g>
</svg>
