<?xml version="1.0" encoding="utf-8"?>
<!-- Generator: Adobe Illustrator 16.0.0, SVG Export Plug-In . SVG Version: 6.00 Build 0)  -->
<!DOCTYPE svg PUBLIC "-//W3C//DTD SVG 1.1//EN" "http://www.w3.org/Graphics/SVG/1.1/DTD/svg11.dtd">
<svg version="1.1" id="Layer_1" xmlns="http://www.w3.org/2000/svg" xmlns:xlink="http://www.w3.org/1999/xlink" x="0px" y="0px"
	 width="110px" height="110px" viewBox="0 0 110 110" enable-background="new 0 0 110 110" xml:space="preserve">
<g>
	<path fill="#DF4E5E" d="M110.001,55c0,30.375-24.625,55-55,55.002"/>
	<path fill="#DF4E5E" d="M-0.001,55C0.001,24.624,24.624,0,55.001,0c30.375,0,55,24.624,55,54.999"/>
	<path fill="#DF4E5E" d="M55.001,110.002C24.625,110.001,0,85.376-0.001,55"/>
</g>
<g>
	<path fill="#3E3E3F" d="M51.963,84.549c0.104,0.6-0.005,1.217-0.384,1.694C51.199,86.721,50.623,87,50.014,87H23.126
		c-0.614,0-1.193-0.282-1.573-0.766c-0.379-0.482-0.473-1.104-0.37-1.709c2.887-16.971,2.977-35.881,0.424-56.724
		c-0.146-1.192,0.062-2.398,0.821-3.329c0.76-0.93,1.896-1.473,3.097-1.473h21.996c1.207,0,2.35,0.545,3.109,1.484
		c0.76,0.938,0.977,2.156,0.804,3.35C48.689,46.743,48.684,65.646,51.963,84.549z"/>
	<path fill="#5B5C5F" d="M36,23H25.525c-1.201,0-2.338,0.544-3.098,1.474c-0.759,0.931-0.968,2.137-0.822,3.329
		c2.554,20.842,2.464,39.751-0.422,56.722c-0.104,0.605-0.01,1.228,0.369,1.711C21.933,86.718,22.512,87,23.126,87H36V23z"/>
	<path fill="#3E3E3F" d="M56.686,43.742c0,5.732,5.732,4.586,5.732,13.758c0,9.171-5.732,8.025-5.732,13.758
		c0,5.733,18.34,6.303,25.074,6.741c2.868,0.187,2.928-3.912,1.824-5.093c-1.341-1.438-4.559-5.086-6.645-9.057
		c0.945-1.636,1.528-3.815,1.528-6.22c0-2.465-0.61-4.698-1.6-6.346c2.082-4.021,5.358-7.739,6.715-9.191
		c1.103-1.182,1.044-5.28-1.824-5.094C75.025,37.439,56.686,38.01,56.686,43.742z"/>
	<path fill="#818284" d="M43.438,56c0,1.104-0.896,2-2,2s-2-0.896-2-2V32c0-1.104,0.896-2,2-2s2,0.896,2,2V56z"/>
	<path fill="#818284" d="M32.052,34.5c0,0.828-0.671,1.5-1.5,1.5c-0.828,0-1.5-0.672-1.5-1.5v-3c0-0.828,0.672-1.5,1.5-1.5
		c0.829,0,1.5,0.672,1.5,1.5V34.5z"/>
	<path fill="#818284" d="M32.052,47.5c0,0.828-0.671,1.5-1.5,1.5c-0.828,0-1.5-0.672-1.5-1.5v-6c0-0.828,0.672-1.5,1.5-1.5
		c0.829,0,1.5,0.672,1.5,1.5V47.5z"/>
	<circle fill="#17B198" cx="36.552" cy="69" r="7"/>
	<circle fill="#3E3E3F" cx="36.552" cy="69" r="3"/>
	<g>
		<path fill="#CFD3D4" d="M73.354,47.182c0,2.868-2.334,5.202-5.203,5.202c-2.867,0-5.201-2.334-5.201-5.202
			c0-2.869,2.334-5.202,5.201-5.202C71.02,41.979,73.354,44.312,73.354,47.182z M64.182,47.182c0,2.188,1.78,3.97,3.969,3.97
			c2.189,0,3.972-1.781,3.972-3.97s-1.781-3.971-3.972-3.971C65.962,43.211,64.182,44.992,64.182,47.182z"/>
	</g>
	<g>
		<path fill="#CFD3D4" d="M73.354,67.818c0,2.867-2.334,5.201-5.203,5.201c-2.867,0-5.201-2.334-5.201-5.201
			c0-2.869,2.334-5.203,5.201-5.203C71.02,62.615,73.354,64.949,73.354,67.818z M64.182,67.818c0,2.188,1.78,3.969,3.969,3.969
			c2.189,0,3.972-1.78,3.972-3.969c0-2.189-1.781-3.971-3.972-3.971C65.962,63.848,64.182,65.629,64.182,67.818z"/>
	</g>
</g>
</svg>
