<?xml version="1.0" encoding="utf-8"?>
<!-- Generator: Adobe Illustrator 16.0.0, SVG Export Plug-In . SVG Version: 6.00 Build 0)  -->
<!DOCTYPE svg PUBLIC "-//W3C//DTD SVG 1.1//EN" "http://www.w3.org/Graphics/SVG/1.1/DTD/svg11.dtd">
<svg version="1.1" id="Layer_1" xmlns="http://www.w3.org/2000/svg" xmlns:xlink="http://www.w3.org/1999/xlink" x="0px" y="0px"
	 width="110px" height="110px" viewBox="0 1 110 110" enable-background="new 0 1 110 110" xml:space="preserve">
<g>
	<path fill="#DF4E5E" d="M55,1c30.376,0,55,24.625,55,55"/>
	<path fill="#DF4E5E" d="M55,111C24.624,111,0,86.376,0,56C0,25.625,24.624,1,55,1"/>
	<path fill="#DF4E5E" d="M110,56c0,30.376-24.624,55-55,55"/>
</g>
<g>
	<g>
		<g>
			<path fill="#FACB1B" d="M51,55v7.08C50.68,62.02,50.34,62,50,62c-3.87,0-7,3.13-7,7s3.13,7,7,7c0.34,0,0.68-0.02,1-0.08V87h11.08
				C62.02,86.68,62,86.34,62,86c0-3.87,3.13-7,7-7s7,3.13,7,7c0,0.34-0.02,0.68-0.08,1H87V55H51z"/>
		</g>
	</g>
	<g>
		<g>
			<path fill="#40C9E7" d="M79,39c0,3.87,3.13,7,7,7c0.34,0,0.68-0.02,1-0.08V55H75.92C75.98,55.32,76,55.66,76,56
				c0,3.87-3.13,7-7,7s-7-3.13-7-7c0-0.34,0.02-0.68,0.08-1H51V23h11.08C62.02,23.32,62,23.66,62,24c0,3.87,3.13,7,7,7s7-3.13,7-7
				c0-0.34-0.02-0.68-0.08-1H87v9.08C86.68,32.02,86.34,32,86,32C82.13,32,79,35.13,79,39z"/>
		</g>
	</g>
	<g>
		<g>
			<path fill="#F0F1F1" d="M50,62c0.34,0,0.68,0.02,1,0.08V43h-7.08c0.06-0.32,0.08-0.66,0.08-1c0-3.87-3.13-7-7-7s-7,3.13-7,7
				c0,0.34,0.02,0.68,0.08,1H23v19.08C23.32,62.02,23.66,62,24,62c3.87,0,7,3.13,7,7s-3.13,7-7,7c-0.34,0-0.68-0.02-1-0.08V87h28
				V75.92C50.68,75.98,50.34,76,50,76c-3.87,0-7-3.13-7-7S46.13,62,50,62z"/>
		</g>
	</g>
	<g>
		<g>
			<path fill="#6FDAF1" d="M76,24c0,3.87-3.13,7-7,7s-7-3.13-7-7c0-0.34,0.02-0.68,0.08-1H51v32h0.799l32-32H75.92
				C75.98,23.32,76,23.66,76,24z"/>
		</g>
	</g>
	<g>
		<g>
			<path fill="#FFFFFF" d="M51,43h-7.08c0.06-0.32,0.08-0.66,0.08-1c0-3.87-3.13-7-7-7s-7,3.13-7,7c0,0.34,0.02,0.68,0.08,1H23
				v19.08C23.32,62.02,23.66,62,24,62c3.87,0,7,3.13,7,7s-3.13,7-7,7c-0.34,0-0.68-0.02-1-0.08v7.879l28-28V43z"/>
		</g>
	</g>
</g>
</svg>
