<?xml version="1.0" encoding="utf-8"?>
<!-- Generator: Adobe Illustrator 16.0.0, SVG Export Plug-In . SVG Version: 6.00 Build 0)  -->
<!DOCTYPE svg PUBLIC "-//W3C//DTD SVG 1.1//EN" "http://www.w3.org/Graphics/SVG/1.1/DTD/svg11.dtd">
<svg version="1.1" id="Layer_1" xmlns="http://www.w3.org/2000/svg" xmlns:xlink="http://www.w3.org/1999/xlink" x="0px" y="0px"
	 width="110px" height="110px" viewBox="0 0 110 110" enable-background="new 0 0 110 110" xml:space="preserve">
<g>
	<g>
		<path fill="#EC8C22" d="M16.108,93.891c21.479,21.479,56.303,21.479,77.783,0c21.479-21.479,21.479-56.302,0-77.781"/>
		<path fill="#EC8C22" d="M16.108,16.109c-21.479,21.479-21.479,56.303,0,77.782"/>
	</g>
	<path fill="#EC8C22" d="M93.891,16.109c-21.479-21.479-56.304-21.479-77.782,0"/>
</g>
<g>
	<g>
		<path fill="#692E19" d="M81.014,51.064c1.978,1.318,2,5-1,5c-4,0-8.19-10.266-16-12c-9-2-10,4-10,4s-1-6-10-4
			c-7.81,1.735-12,12-16,12c-3,0-2.978-3.683-1-5c0,0-5,0-5,8c0,8,8,13,17,13s15-8,15-8s6,8,15,8s17-5,17-13
			C86.014,51.064,81.014,51.064,81.014,51.064z"/>
	</g>
</g>
</svg>
